<?xml version="1.0" encoding="UTF-8" standalone="no"?>
<!DOCTYPE svg PUBLIC "-//W3C//DTD SVG 1.1//EN" "http://www.w3.org/Graphics/SVG/1.1/DTD/svg11.dtd">
<!-- Generated by Microsoft Visio, SVG Export branches.svg Page-1 -->
<svg xmlns="http://www.w3.org/2000/svg" xmlns:xlink="http://www.w3.org/1999/xlink" xmlns:ev="http://www.w3.org/2001/xml-events"
		xmlns:v="http://schemas.microsoft.com/visio/2003/SVGExtensions/" width="8.11925in" height="2.89268in"
		viewBox="0 0 584.586 208.273" xml:space="preserve" color-interpolation-filters="sRGB" class="st6">
	<v:documentProperties v:langID="1033" v:metric="true" v:viewMarkup="false"/>

	<style type="text/css">
	<![CDATA[
		.st1 {fill:#774b04;stroke:#ffffff;stroke-linecap:round;stroke-linejoin:round;stroke-width:0.5}
		.st2 {fill:none;stroke:none;stroke-linecap:round;stroke-linejoin:round;stroke-width:0.5}
		.st3 {fill:#774b04;font-family:PT Sans Caption;font-size:1.5em;font-weight:bold}
		.st4 {baseline-shift:29.9995%;font-size:0.599991em}
		.st5 {font-size:1em}
		.st6 {fill:none;fill-rule:evenodd;font-size:12px;overflow:visible;stroke-linecap:square;stroke-miterlimit:3}
	]]>
	</style>

	<g v:mID="0" v:index="1" v:groupContext="foregroundPage">
		<title>Page-1</title>
		<v:pageProperties v:drawingScale="0.0393701" v:pageScale="0.0393701" v:drawingUnits="24" v:shadowOffsetX="8.50394"
				v:shadowOffsetY="-8.50394"/>
		<g id="group12-1" transform="translate(0.25,-0.25)" v:mID="12" v:groupContext="group">
			<title>Sheet.12</title>
			<g id="shape6-2" v:mID="6" v:groupContext="shape" transform="translate(514.969,78.9138) rotate(90) scale(-1,1)">
				<title>Sharp Bent Arrow.6</title>
				<v:userDefs>
					<v:ud v:nameU="DblArrow" v:prompt="" v:val="VT0(0):5"/>
					<v:ud v:nameU="visVersion" v:prompt="" v:val="VT0(15):26"/>
				</v:userDefs>
				<path d="M0 208.27 L53.09 208.27 L53.09 -49.28 L58.76 -49.28 L48.84 -69.12 L38.92 -49.28 L44.59 -49.28 L44.59 199.77
							 L0 199.77 L0 199.77 L0 204.02 L0 208.27 L0 208.27 Z" class="st1"/>
			</g>
			<g id="shape3-4" v:mID="3" v:groupContext="shape" transform="translate(316.543,129.937) rotate(90) scale(-1,1)">
				<title>Sharp Bent Arrow</title>
				<v:userDefs>
					<v:ud v:nameU="DblArrow" v:prompt="" v:val="VT0(0):5"/>
					<v:ud v:nameU="visVersion" v:prompt="" v:val="VT0(15):26"/>
				</v:userDefs>
				<path d="M0 208.27 L53.09 208.27 L53.09 -247.7 L58.76 -247.7 L48.84 -267.54 L38.92 -247.7 L44.59 -247.7 L44.59 199.77
							 L0 199.77 L0 199.77 L0 204.02 L0 208.27 L0 208.27 Z" class="st1"/>
			</g>
			<g id="shape7-6" v:mID="7" v:groupContext="shape" transform="translate(395.509,129.937) rotate(90)">
				<title>Sharp Bent Arrow.7</title>
				<v:userDefs>
					<v:ud v:nameU="DblArrow" v:prompt="" v:val="VT0(0):5"/>
					<v:ud v:nameU="visVersion" v:prompt="" v:val="VT0(15):26"/>
				</v:userDefs>
				<path d="M0 208.27 L53.09 208.27 L53.09 -168.74 L58.76 -168.74 L48.84 -188.58 L38.92 -168.74 L44.59 -168.74 L44.59
							 199.77 L0 199.77 L0 199.77 L0 204.02 L0 208.27 L0 208.27 Z" class="st1"/>
			</g>
			<g id="shape1-8" v:mID="1" v:groupContext="shape" transform="translate(584.086,338.21) rotate(180)">
				<title>Simple Arrow</title>
				<v:userDefs>
					<v:ud v:nameU="visVersion" v:val="VT0(15):26"/>
					<v:ud v:nameU="ArrowType" v:prompt="" v:val="VT0(2):26"/>
				</v:userDefs>
				<path d="M0 208.27 L17.01 199.77 L17.01 204.02 L17.01 204.02 L17.01 204.02 L584.09 204.02 L584.09 208.27 L584.09
							 212.52 L17.01 212.52 L17.01 212.52 L17.01 212.52 L17.01 216.78 L0 208.27 Z" class="st1"/>
			</g>
			<g id="shape8-10" v:mID="8" v:groupContext="shape" transform="translate(10.0705,-82.5872)">
				<title>Sheet.8</title>
				<desc>trunk</desc>
				<v:textBlock v:margins="rect(4,4,4,4)" v:tabSpace="42.5197"/>
				<v:textRect cx="38.9764" cy="195.708" width="77.96" height="25.1293"/>
				<rect x="0" y="183.143" width="77.9528" height="25.1293" class="st2"/>
				<text x="15.09" y="201.11" class="st3" v:langID="1033"><v:paragraph v:horizAlign="1"/><v:tabList/>trunk</text>			</g>
			<g id="shape9-13" v:mID="9" v:groupContext="shape" transform="translate(144.716,-129.359)">
				<title>Sheet.9</title>
				<desc>1st branch</desc>
				<v:textBlock v:margins="rect(4,4,4,4)" v:tabSpace="42.5197"/>
				<v:textRect cx="56.6929" cy="195.708" width="113.39" height="25.1293"/>
				<rect x="0" y="183.143" width="113.386" height="25.1293" class="st2"/>
				<text x="13.68" y="201.11" class="st3" v:langID="1033"><v:paragraph v:horizAlign="1"/><v:tabList/>1<tspan
							dy="-0.084em" class="st4" v:baseFontSize="18">st</tspan><tspan dy="0.05em" class="st5"> </tspan>branch</text>			</g>
			<g id="shape10-18" v:mID="10" v:groupContext="shape" transform="translate(236.842,0)">
				<title>Sheet.10</title>
				<desc>2nd branch</desc>
				<v:textBlock v:margins="rect(4,4,4,4)" v:tabSpace="42.5197"/>
				<v:textRect cx="56.6929" cy="195.708" width="113.39" height="25.1293"/>
				<rect x="0" y="183.143" width="113.386" height="25.1293" class="st2"/>
				<text x="11.63" y="201.11" class="st3" v:langID="1033"><v:paragraph v:horizAlign="1"/><v:tabList/>2<tspan
							dy="-0.084em" class="st4" v:baseFontSize="18">nd</tspan><tspan dy="0.05em" class="st5"> </tspan>branch</text>			</g>
			<g id="shape11-23" v:mID="11" v:groupContext="shape" transform="translate(343.141,-182.643)">
				<title>Sheet.11</title>
				<desc>3rd branch</desc>
				<v:textBlock v:margins="rect(4,4,4,4)" v:tabSpace="42.5197"/>
				<v:textRect cx="56.6929" cy="195.708" width="113.39" height="25.1293"/>
				<rect x="0" y="183.143" width="113.386" height="25.1293" class="st2"/>
				<text x="12.89" y="201.11" class="st3" v:langID="1033"><v:paragraph v:horizAlign="1"/><v:tabList/>3<tspan
							dy="-0.084em" class="st4" v:baseFontSize="18">rd</tspan><tspan dy="0.05em" class="st5"> </tspan>branch</text>			</g>
		</g>
	</g>
</svg>
