<?xml version="1.0" encoding="UTF-8" standalone="no"?>
<!DOCTYPE svg PUBLIC "-//W3C//DTD SVG 1.1//EN" "http://www.w3.org/Graphics/SVG/1.1/DTD/svg11.dtd">
<!-- Generated by Microsoft Visio, SVG Export git-repos.svg Page-1 -->
<svg xmlns="http://www.w3.org/2000/svg" xmlns:xlink="http://www.w3.org/1999/xlink" xmlns:ev="http://www.w3.org/2001/xml-events"
		xmlns:v="http://schemas.microsoft.com/visio/2003/SVGExtensions/" width="9.80315in" height="4.09598in"
		viewBox="0 0 705.827 294.91" xml:space="preserve" color-interpolation-filters="sRGB" class="st6">
	<v:documentProperties v:langID="1033" v:metric="true" v:viewMarkup="false"/>

	<style type="text/css">
	<![CDATA[
		.st1 {fill:#774b04}
		.st2 {stroke:#ffffff;stroke-linecap:round;stroke-linejoin:round;stroke-width:0.5}
		.st3 {fill:#ffffff}
		.st4 {fill:#774b04;stroke:#ffffff;stroke-linecap:round;stroke-linejoin:round;stroke-width:0.5}
		.st5 {fill:#ffffff;stroke:#774b04;stroke-dasharray:10.5,7.5;stroke-linecap:round;stroke-linejoin:round;stroke-width:1.5}
		.st6 {fill:none;fill-rule:evenodd;font-size:12px;overflow:visible;stroke-linecap:square;stroke-miterlimit:3}
	]]>
	</style>

	<g v:mID="0" v:index="1" v:groupContext="foregroundPage">
		<title>Page-1</title>
		<v:pageProperties v:drawingScale="0.0393701" v:pageScale="0.0393701" v:drawingUnits="24" v:shadowOffsetX="8.50394"
				v:shadowOffsetY="-8.50394"/>
		<g id="group155-1" transform="translate(0,-13.8961)" v:mID="155" v:groupContext="group">
			<title>Sheet.155</title>
			<g id="group1-2" transform="translate(462.047,-104.699)" v:mID="1" v:groupContext="group">
				<v:userDefs>
					<v:ud v:nameU="visVersion" v:prompt="" v:val="VT0(15):26"/>
					<v:ud v:nameU="ShapeClass" v:prompt="" v:val="VT0(5):26"/>
					<v:ud v:nameU="SolSH" v:prompt="" v:val="VT15({BF0433D9-CD73-4EB5-8390-8653BE590246}):41"/>
					<v:ud v:nameU="visLegendShape" v:prompt="" v:val="VT0(2):26"/>
				</v:userDefs>
				<title>Mainframe</title>
				<g id="shape2-3" v:mID="2" v:groupContext="shape" transform="translate(5.68158,0)">
					<title>Sheet.2</title>
					<path d="M0 294.91 L59.5 294.91 L59.5 224.04 L0 224.04 L0 294.91 Z" class="st1"/>
					<path d="M0 294.91 L59.5 294.91 L59.5 224.04 L0 224.04 L0 294.91" class="st2"/>
					<path d="M29.75 294.91 L29.75 224.04" class="st2"/>
				</g>
				<g id="shape3-7" v:mID="3" v:groupContext="shape" transform="translate(11.5726,-5.14536)">
					<title>Sheet.3</title>
					<v:userDefs>
						<v:ud v:nameU="SurroundingRegionColor" v:prompt="" v:val="VT5(1)"/>
						<v:ud v:nameU="SurroundingRegionColor" v:prompt="" v:val="VT5(#774b04)"/>
					</v:userDefs>
					<path d="M36.09 251.06 L49.23 251.06 L49.23 236.02 L36.09 236.02 L36.09 251.06 ZM14.89 242.11 L16.68 242.11 L16.68
								 235.7 L14.89 235.7 L14.89 242.11 ZM14.89 251.35 L16.68 251.35 L16.68 244.93 L14.89 244.93 L14.89
								 251.35 ZM10.63 242.11 L12.43 242.11 L12.43 235.7 L10.63 235.7 L10.63 242.11 ZM10.63 251.35 L12.43
								 251.35 L12.43 244.93 L10.63 244.93 L10.63 251.35 ZM4.25 242.11 L6.05 242.11 L6.05 235.7 L4.25 235.7
								 L4.25 242.11 ZM4.25 251.35 L6.05 251.35 L6.05 244.93 L4.25 244.93 L4.25 251.35 ZM0 242.11 L1.79
								 242.11 L1.79 235.7 L0 235.7 L0 242.11 ZM0 251.35 L1.79 251.35 L1.79 244.93 L0 244.93 L0 251.35 ZM33.82
								 286.08 L33.82 287.33 L49.39 287.33 L49.39 286.08 L33.82 286.08 ZM33.82 289.87 L33.82 291.12 L49.39
								 291.12 L49.39 289.87 L33.82 289.87 ZM33.82 293.66 L33.82 294.91 L49.39 294.91 L49.39 293.66 L33.82
								 293.66 ZM2.96 287.33 L18.52 287.33 L18.52 286.08 L2.95 286.08 L2.96 287.33 ZM2.96 291.12 L18.52
								 291.12 L18.52 289.87 L2.95 289.87 L2.96 291.12 ZM2.96 294.91 L18.52 294.91 L18.52 293.66 L2.95 293.66
								 L2.96 294.91 Z" class="st3"/>
				</g>
				<g id="shape4-10" v:mID="4" v:groupContext="shape" transform="translate(49.0815,-50.4059)">
					<title>Sheet.4</title>
					<path d="M8.15 283.43 A1.11073 1.11073 -180 1 0 10.24 284.2 A1.11073 1.11073 -180 1 0 8.15 283.43 ZM8.17 286.72
								 A1.11073 1.11073 -180 1 0 10.22 287.56 A1.11073 1.11073 -180 1 0 8.17 286.72 ZM8.18 290.02 A1.11073
								 1.11073 -180 1 0 10.21 290.91 A1.11073 1.11073 -180 1 0 8.18 290.02 ZM8.18 293.35 A1.11073 1.11073
								 -180 1 0 10.21 294.24 A1.11073 1.11073 -180 1 0 8.18 293.35 ZM4.1 283.48 A1.11073 1.11073 -180 1
								 0 6.21 284.15 A1.11073 1.11073 -180 1 0 4.1 283.48 ZM4.11 286.77 A1.11073 1.11073 -180 1 0 6.2 287.51
								 A1.11073 1.11073 -180 1 0 4.11 286.77 ZM4.11 290.08 A1.11073 1.11073 -180 1 0 6.19 290.86 A1.11073
								 1.11073 -180 1 0 4.11 290.08 ZM4.11 293.4 A1.11073 1.11073 -180 1 0 6.19 294.18 A1.11073 1.11073
								 -180 1 0 4.11 293.4 ZM0.04 283.53 A1.11144 1.11144 -180 1 0 2.19 284.1 A1.11144 1.11144 -180 1 0
								 0.04 283.53 ZM0.05 286.83 A1.11144 1.11144 -180 1 0 2.18 287.45 A1.11144 1.11144 -180 1 0 0.05 286.83
								 ZM0.05 290.14 A1.11144 1.11144 -180 1 0 2.17 290.8 A1.11144 1.11144 -180 1 0 0.05 290.14 ZM0.05
								 293.46 A1.11144 1.11144 -180 1 0 2.17 294.12 A1.11144 1.11144 -180 1 0 0.05 293.46 Z" class="st1"/>
				</g>
			</g>
			<g id="shape26-13" v:mID="26" v:groupContext="shape" transform="translate(763.71,6.43977) rotate(51.4993)">
				<title>Simple Double Arrow.26</title>
				<v:userDefs>
					<v:ud v:nameU="visVersion" v:val="VT0(15):26"/>
					<v:ud v:nameU="ArrowType" v:prompt="" v:val="VT0(3):26"/>
				</v:userDefs>
				<path d="M0 294.91 L9.92 289.24 L9.92 292.08 L69.76 292.08 L69.76 292.08 L69.76 289.24 L79.69 294.91 L69.76 300.58
							 L69.76 297.74 L69.76 297.74 L9.92 297.74 L9.92 300.58 L0 294.91 Z" class="st4"/>
			</g>
			<g id="shape28-15" v:mID="28" v:groupContext="shape" transform="translate(305.904,-69.0896) rotate(-50.3322)">
				<title>Simple Double Arrow.28</title>
				<v:userDefs>
					<v:ud v:nameU="visVersion" v:val="VT0(15):26"/>
					<v:ud v:nameU="ArrowType" v:prompt="" v:val="VT0(3):26"/>
				</v:userDefs>
				<path d="M0 294.91 L9.92 289.24 L9.92 292.08 L65.57 292.08 L65.57 292.08 L65.57 289.24 L75.49 294.91 L65.57 300.58
							 L65.57 297.74 L65.57 297.74 L9.92 297.74 L9.92 300.58 L0 294.91 Z" class="st4"/>
			</g>
			<g id="group31-17" transform="translate(592.441,0)" v:mID="31" v:groupContext="group">
				<title>Sheet.31</title>
				<g id="shape32-18" v:mID="32" v:groupContext="shape">
					<title>Rounded Rectangle</title>
					<v:userDefs>
						<v:ud v:nameU="CTypeTopLeftSnip" v:prompt="" v:val="VT0(0):5"/>
						<v:ud v:nameU="CTypeTopRightSnip" v:prompt="" v:val="VT0(0):5"/>
						<v:ud v:nameU="CTypeBotLeftSnip" v:prompt="" v:val="VT0(0):5"/>
						<v:ud v:nameU="CTypeBotRightSnip" v:prompt="" v:val="VT0(0):5"/>
						<v:ud v:nameU="CornerLockHoriz" v:prompt="" v:val="VT0(1):5"/>
						<v:ud v:nameU="CornerLockVert" v:prompt="" v:val="VT0(1):5"/>
						<v:ud v:nameU="CornerLockDiag" v:prompt="" v:val="VT0(0):5"/>
						<v:ud v:nameU="TopLeftOffset" v:prompt="" v:val="VT0(0.15748031496063):24"/>
						<v:ud v:nameU="TopRightOffset" v:prompt="" v:val="VT0(0.15748031496063):24"/>
						<v:ud v:nameU="BotLeftOffset" v:prompt="" v:val="VT0(0.15748031496063):24"/>
						<v:ud v:nameU="BotRightOffset" v:prompt="" v:val="VT0(0.15748031496063):24"/>
						<v:ud v:nameU="visVersion" v:prompt="" v:val="VT0(15):26"/>
						<v:ud v:nameU="TopLeftOffset" v:prompt="" v:val="VT0(0.14566929133858):1"/>
						<v:ud v:nameU="TopRightOffset" v:prompt="" v:val="VT0(0.14566929133858):1"/>
						<v:ud v:nameU="BotLeftOffset" v:prompt="" v:val="VT0(0.14566929133858):1"/>
						<v:ud v:nameU="BotRightOffset" v:prompt="" v:val="VT0(0.14566929133858):1"/>
					</v:userDefs>
					<path d="M10.49 294.91 L94.39 294.91 L94.39 294.91 A10.488 10.488 -180 0 0 104.88 284.42 L104.88 220.36 A10.488
								 10.488 -180 0 0 94.39 209.87 L94.39 209.87 L10.49 209.87 L10.49 209.87 A10.488 10.488 -180 0 0 0
								 220.36 L0 284.42 A10.488 10.488 -180 0 0 10.49 294.91 L10.49 294.91 Z" class="st5"/>
				</g>
				<g id="group33-20" transform="translate(42.5197,-8.50394)" v:mID="33" v:groupContext="group">
					<v:userDefs>
						<v:ud v:nameU="visVersion" v:prompt="" v:val="VT0(15):26"/>
						<v:ud v:nameU="ShapeClass" v:prompt="" v:val="VT0(5):26"/>
						<v:ud v:nameU="SolSH" v:prompt="" v:val="VT15({BF0433D9-CD73-4EB5-8390-8653BE590246}):41"/>
						<v:ud v:nameU="visLegendShape" v:prompt="" v:val="VT0(2):26"/>
					</v:userDefs>
					<title>User.21</title>
					<g id="shape34-21" v:mID="34" v:groupContext="shape" transform="translate(18.0575,0)">
						<title>Sheet.34</title>
						<path d="M26.29 232.85 A8.81 8.81 -180 1 0 8.67 232.85 A8.81 8.81 -180 1 0 26.29 232.85 ZM27.58 244.04 L7.17
									 244.04 C3.22 244.04 0 247.26 0 251.21 L0 276.22 L5.59 276.22 L5.59 261.67 L7.45 261.67 L7.45
									 294.91 L16.55 294.91 L16.55 280.05 C16.55 279.54 16.97 279.12 17.48 279.12 C18 279.12 18.42
									 279.54 18.42 280.05 L18.42 294.91 L28.04 294.91 L28.04 261.61 L29.91 261.61 L29.91 276.22 L34.75
									 276.22 L34.75 251.21 C34.75 247.26 31.54 244.04 27.58 244.04 Z" class="st4"/>
					</g>
				</g>
				<g id="group35-23" transform="translate(7.08661,-26.2205)" v:mID="35" v:groupContext="group">
					<v:userDefs>
						<v:ud v:nameU="visVersion" v:prompt="" v:val="VT0(15):26"/>
						<v:ud v:nameU="ShapeClass" v:prompt="" v:val="VT0(5):26"/>
						<v:ud v:nameU="SolSH" v:prompt="" v:val="VT15({BF0433D9-CD73-4EB5-8390-8653BE590246}):41"/>
						<v:ud v:nameU="visLegendShape" v:prompt="" v:val="VT0(2):26"/>
					</v:userDefs>
					<title>Mainframe</title>
					<g id="shape36-24" v:mID="36" v:groupContext="shape" transform="translate(2.84079,0)">
						<title>Sheet.36</title>
						<path d="M0 294.91 L29.75 294.91 L29.75 259.48 L0 259.48 L0 294.91 Z" class="st1"/>
						<path d="M0 294.91 L29.75 294.91 L29.75 259.48 L0 259.48 L0 294.91" class="st2"/>
						<path d="M14.88 294.91 L14.88 259.48" class="st2"/>
					</g>
					<g id="shape37-28" v:mID="37" v:groupContext="shape" transform="translate(5.78631,-2.57268)">
						<title>Sheet.37</title>
						<v:userDefs>
							<v:ud v:nameU="SurroundingRegionColor" v:prompt="" v:val="VT5(1)"/>
							<v:ud v:nameU="SurroundingRegionColor" v:prompt="" v:val="VT5(#774b04)"/>
						</v:userDefs>
						<path d="M18.05 272.98 L24.62 272.98 L24.62 265.46 L18.05 265.46 L18.05 272.98 ZM7.44 268.51 L8.34 268.51
									 L8.34 265.3 L7.44 265.3 L7.44 268.51 ZM7.44 273.13 L8.34 273.13 L8.34 269.92 L7.44 269.92 L7.44
									 273.13 ZM5.32 268.51 L6.21 268.51 L6.21 265.3 L5.32 265.3 L5.32 268.51 ZM5.32 273.13 L6.21 273.13
									 L6.21 269.92 L5.32 269.92 L5.32 273.13 ZM2.13 268.51 L3.02 268.51 L3.02 265.3 L2.13 265.3 L2.13
									 268.51 ZM2.13 273.13 L3.02 273.13 L3.02 269.92 L2.13 269.92 L2.13 273.13 ZM0 268.51 L0.9 268.51
									 L0.9 265.3 L0 265.3 L0 268.51 ZM0 273.13 L0.9 273.13 L0.9 269.92 L0 269.92 L0 273.13 ZM16.91
									 290.5 L16.91 291.12 L24.7 291.12 L24.7 290.49 L16.91 290.5 ZM16.91 292.39 L16.91 293.02 L24.7
									 293.01 L24.7 292.39 L16.91 292.39 ZM16.91 294.29 L16.91 294.91 L24.7 294.91 L24.7 294.29 L16.91
									 294.29 ZM1.48 291.12 L9.26 291.12 L9.26 290.5 L1.48 290.5 L1.48 291.12 ZM1.48 293.02 L9.26 293.02
									 L9.26 292.39 L1.48 292.39 L1.48 293.02 ZM1.48 294.91 L9.26 294.91 L9.26 294.29 L1.48 294.29
									 L1.48 294.91 Z" class="st3"/>
					</g>
					<g id="shape38-31" v:mID="38" v:groupContext="shape" transform="translate(24.5407,-25.203)">
						<title>Sheet.38</title>
						<path d="M4.08 289.17 a0.555364 0.555364 -180 1 0 1.04222 0.383977 a0.555364 0.555364 -180 1 0 -1.04222 -0.383977
									 ZM4.08 290.81 a0.555364 0.555364 -180 1 0 1.02705 0.422902 a0.555364 0.555364 -180 1 0 -1.02705
									 -0.422902 ZM4.09 292.47 a0.555364 0.555364 -180 1 0 1.01759 0.445194 a0.555364 0.555364 -180
									 1 0 -1.01759 -0.445194 ZM4.09 294.13 a0.555364 0.555364 -180 1 0 1.01759 0.445194 a0.555364
									 0.555364 -180 1 0 -1.01759 -0.445194 ZM2.05 289.19 a0.555364 0.555364 -180 1 0 1.05915 0.334468
									 a0.555364 0.555364 -180 1 0 -1.05915 -0.334468 ZM2.05 290.84 a0.555364 0.555364 -180 1 0 1.04739
									 0.369666 a0.555364 0.555364 -180 1 0 -1.04739 -0.369666 ZM2.06 292.49 a0.555364 0.555364 -180
									 1 0 1.03999 0.389997 a0.555364 0.555364 -180 1 0 -1.03999 -0.389997 ZM2.06 294.16 a0.555364
									 0.555364 -180 1 0 1.03999 0.389997 a0.555364 0.555364 -180 1 0 -1.03999 -0.389997 ZM0.02 289.22
									 a0.555718 0.555718 -180 1 0 1.07482 0.282848 a0.555718 0.555718 -180 1 0 -1.07482 -0.282848
									 ZM0.02 290.87 a0.555718 0.555718 -180 1 0 1.06626 0.313605 a0.555718 0.555718 -180 1 0 -1.06626
									 -0.313605 ZM0.03 292.52 a0.555718 0.555718 -180 1 0 1.06083 0.331509 a0.555718 0.555718 -180
									 1 0 -1.06083 -0.331509 ZM0.03 294.19 a0.555718 0.555718 -180 1 0 1.06083 0.331509 a0.555718
									 0.555718 -180 1 0 -1.06083 -0.331509 Z" class="st1"/>
					</g>
				</g>
			</g>
			<g id="group39-34" transform="translate(592.441,-195.225)" v:mID="39" v:groupContext="group">
				<title>Sheet.39</title>
				<g id="shape40-35" v:mID="40" v:groupContext="shape">
					<title>Rounded Rectangle</title>
					<v:userDefs>
						<v:ud v:nameU="CTypeTopLeftSnip" v:prompt="" v:val="VT0(0):5"/>
						<v:ud v:nameU="CTypeTopRightSnip" v:prompt="" v:val="VT0(0):5"/>
						<v:ud v:nameU="CTypeBotLeftSnip" v:prompt="" v:val="VT0(0):5"/>
						<v:ud v:nameU="CTypeBotRightSnip" v:prompt="" v:val="VT0(0):5"/>
						<v:ud v:nameU="CornerLockHoriz" v:prompt="" v:val="VT0(1):5"/>
						<v:ud v:nameU="CornerLockVert" v:prompt="" v:val="VT0(1):5"/>
						<v:ud v:nameU="CornerLockDiag" v:prompt="" v:val="VT0(0):5"/>
						<v:ud v:nameU="TopLeftOffset" v:prompt="" v:val="VT0(0.15748031496063):24"/>
						<v:ud v:nameU="TopRightOffset" v:prompt="" v:val="VT0(0.15748031496063):24"/>
						<v:ud v:nameU="BotLeftOffset" v:prompt="" v:val="VT0(0.15748031496063):24"/>
						<v:ud v:nameU="BotRightOffset" v:prompt="" v:val="VT0(0.15748031496063):24"/>
						<v:ud v:nameU="visVersion" v:prompt="" v:val="VT0(15):26"/>
						<v:ud v:nameU="TopLeftOffset" v:prompt="" v:val="VT0(0.14566929133858):1"/>
						<v:ud v:nameU="TopRightOffset" v:prompt="" v:val="VT0(0.14566929133858):1"/>
						<v:ud v:nameU="BotLeftOffset" v:prompt="" v:val="VT0(0.14566929133858):1"/>
						<v:ud v:nameU="BotRightOffset" v:prompt="" v:val="VT0(0.14566929133858):1"/>
					</v:userDefs>
					<path d="M10.49 294.91 L94.39 294.91 L94.39 294.91 A10.488 10.488 -180 0 0 104.88 284.42 L104.88 220.36 A10.488
								 10.488 -180 0 0 94.39 209.87 L94.39 209.87 L10.49 209.87 L10.49 209.87 A10.488 10.488 -180 0 0 0
								 220.36 L0 284.42 A10.488 10.488 -180 0 0 10.49 294.91 L10.49 294.91 Z" class="st5"/>
				</g>
				<g id="group41-37" transform="translate(42.5197,-8.50394)" v:mID="41" v:groupContext="group">
					<v:userDefs>
						<v:ud v:nameU="visVersion" v:prompt="" v:val="VT0(15):26"/>
						<v:ud v:nameU="ShapeClass" v:prompt="" v:val="VT0(5):26"/>
						<v:ud v:nameU="SolSH" v:prompt="" v:val="VT15({BF0433D9-CD73-4EB5-8390-8653BE590246}):41"/>
						<v:ud v:nameU="visLegendShape" v:prompt="" v:val="VT0(2):26"/>
					</v:userDefs>
					<title>User.21</title>
					<g id="shape42-38" v:mID="42" v:groupContext="shape" transform="translate(18.0575,0)">
						<title>Sheet.42</title>
						<path d="M26.29 232.85 A8.81 8.81 -180 1 0 8.67 232.85 A8.81 8.81 -180 1 0 26.29 232.85 ZM27.58 244.04 L7.17
									 244.04 C3.22 244.04 0 247.26 0 251.21 L0 276.22 L5.59 276.22 L5.59 261.67 L7.45 261.67 L7.45
									 294.91 L16.55 294.91 L16.55 280.05 C16.55 279.54 16.97 279.12 17.48 279.12 C18 279.12 18.42
									 279.54 18.42 280.05 L18.42 294.91 L28.04 294.91 L28.04 261.61 L29.91 261.61 L29.91 276.22 L34.75
									 276.22 L34.75 251.21 C34.75 247.26 31.54 244.04 27.58 244.04 Z" class="st4"/>
					</g>
				</g>
				<g id="group43-40" transform="translate(7.08661,-26.2205)" v:mID="43" v:groupContext="group">
					<v:userDefs>
						<v:ud v:nameU="visVersion" v:prompt="" v:val="VT0(15):26"/>
						<v:ud v:nameU="ShapeClass" v:prompt="" v:val="VT0(5):26"/>
						<v:ud v:nameU="SolSH" v:prompt="" v:val="VT15({BF0433D9-CD73-4EB5-8390-8653BE590246}):41"/>
						<v:ud v:nameU="visLegendShape" v:prompt="" v:val="VT0(2):26"/>
					</v:userDefs>
					<title>Mainframe</title>
					<g id="shape44-41" v:mID="44" v:groupContext="shape" transform="translate(2.84079,0)">
						<title>Sheet.44</title>
						<path d="M0 294.91 L29.75 294.91 L29.75 259.48 L0 259.48 L0 294.91 Z" class="st1"/>
						<path d="M0 294.91 L29.75 294.91 L29.75 259.48 L0 259.48 L0 294.91" class="st2"/>
						<path d="M14.88 294.91 L14.88 259.48" class="st2"/>
					</g>
					<g id="shape45-45" v:mID="45" v:groupContext="shape" transform="translate(5.78631,-2.57268)">
						<title>Sheet.45</title>
						<v:userDefs>
							<v:ud v:nameU="SurroundingRegionColor" v:prompt="" v:val="VT5(1)"/>
							<v:ud v:nameU="SurroundingRegionColor" v:prompt="" v:val="VT5(#774b04)"/>
						</v:userDefs>
						<path d="M18.05 272.98 L24.62 272.98 L24.62 265.46 L18.05 265.46 L18.05 272.98 ZM7.44 268.51 L8.34 268.51
									 L8.34 265.3 L7.44 265.3 L7.44 268.51 ZM7.44 273.13 L8.34 273.13 L8.34 269.92 L7.44 269.92 L7.44
									 273.13 ZM5.32 268.51 L6.21 268.51 L6.21 265.3 L5.32 265.3 L5.32 268.51 ZM5.32 273.13 L6.21 273.13
									 L6.21 269.92 L5.32 269.92 L5.32 273.13 ZM2.13 268.51 L3.02 268.51 L3.02 265.3 L2.13 265.3 L2.13
									 268.51 ZM2.13 273.13 L3.02 273.13 L3.02 269.92 L2.13 269.92 L2.13 273.13 ZM0 268.51 L0.9 268.51
									 L0.9 265.3 L0 265.3 L0 268.51 ZM0 273.13 L0.9 273.13 L0.9 269.92 L0 269.92 L0 273.13 ZM16.91
									 290.5 L16.91 291.12 L24.7 291.12 L24.7 290.49 L16.91 290.5 ZM16.91 292.39 L16.91 293.02 L24.7
									 293.01 L24.7 292.39 L16.91 292.39 ZM16.91 294.29 L16.91 294.91 L24.7 294.91 L24.7 294.29 L16.91
									 294.29 ZM1.48 291.12 L9.26 291.12 L9.26 290.5 L1.48 290.5 L1.48 291.12 ZM1.48 293.02 L9.26 293.02
									 L9.26 292.39 L1.48 292.39 L1.48 293.02 ZM1.48 294.91 L9.26 294.91 L9.26 294.29 L1.48 294.29
									 L1.48 294.91 Z" class="st3"/>
					</g>
					<g id="shape46-48" v:mID="46" v:groupContext="shape" transform="translate(24.5407,-25.203)">
						<title>Sheet.46</title>
						<path d="M4.08 289.17 a0.555364 0.555364 -180 1 0 1.04222 0.383977 a0.555364 0.555364 -180 1 0 -1.04222 -0.383977
									 ZM4.08 290.81 a0.555364 0.555364 -180 1 0 1.02705 0.422902 a0.555364 0.555364 -180 1 0 -1.02705
									 -0.422902 ZM4.09 292.47 a0.555364 0.555364 -180 1 0 1.01759 0.445194 a0.555364 0.555364 -180
									 1 0 -1.01759 -0.445194 ZM4.09 294.13 a0.555364 0.555364 -180 1 0 1.01759 0.445194 a0.555364
									 0.555364 -180 1 0 -1.01759 -0.445194 ZM2.05 289.19 a0.555364 0.555364 -180 1 0 1.05915 0.334468
									 a0.555364 0.555364 -180 1 0 -1.05915 -0.334468 ZM2.05 290.84 a0.555364 0.555364 -180 1 0 1.04739
									 0.369666 a0.555364 0.555364 -180 1 0 -1.04739 -0.369666 ZM2.06 292.49 a0.555364 0.555364 -180
									 1 0 1.03999 0.389997 a0.555364 0.555364 -180 1 0 -1.03999 -0.389997 ZM2.06 294.16 a0.555364
									 0.555364 -180 1 0 1.03999 0.389997 a0.555364 0.555364 -180 1 0 -1.03999 -0.389997 ZM0.02 289.22
									 a0.555718 0.555718 -180 1 0 1.07482 0.282848 a0.555718 0.555718 -180 1 0 -1.07482 -0.282848
									 ZM0.02 290.87 a0.555718 0.555718 -180 1 0 1.06626 0.313605 a0.555718 0.555718 -180 1 0 -1.06626
									 -0.313605 ZM0.03 292.52 a0.555718 0.555718 -180 1 0 1.06083 0.331509 a0.555718 0.555718 -180
									 1 0 -1.06083 -0.331509 ZM0.03 294.19 a0.555718 0.555718 -180 1 0 1.06083 0.331509 a0.555718
									 0.555718 -180 1 0 -1.06083 -0.331509 Z" class="st1"/>
					</g>
				</g>
			</g>
			<g id="group75-51" transform="translate(592.441,-97.6124)" v:mID="75" v:groupContext="group">
				<title>Sheet.75</title>
				<g id="shape76-52" v:mID="76" v:groupContext="shape">
					<title>Rounded Rectangle</title>
					<v:userDefs>
						<v:ud v:nameU="CTypeTopLeftSnip" v:prompt="" v:val="VT0(0):5"/>
						<v:ud v:nameU="CTypeTopRightSnip" v:prompt="" v:val="VT0(0):5"/>
						<v:ud v:nameU="CTypeBotLeftSnip" v:prompt="" v:val="VT0(0):5"/>
						<v:ud v:nameU="CTypeBotRightSnip" v:prompt="" v:val="VT0(0):5"/>
						<v:ud v:nameU="CornerLockHoriz" v:prompt="" v:val="VT0(1):5"/>
						<v:ud v:nameU="CornerLockVert" v:prompt="" v:val="VT0(1):5"/>
						<v:ud v:nameU="CornerLockDiag" v:prompt="" v:val="VT0(0):5"/>
						<v:ud v:nameU="TopLeftOffset" v:prompt="" v:val="VT0(0.15748031496063):24"/>
						<v:ud v:nameU="TopRightOffset" v:prompt="" v:val="VT0(0.15748031496063):24"/>
						<v:ud v:nameU="BotLeftOffset" v:prompt="" v:val="VT0(0.15748031496063):24"/>
						<v:ud v:nameU="BotRightOffset" v:prompt="" v:val="VT0(0.15748031496063):24"/>
						<v:ud v:nameU="visVersion" v:prompt="" v:val="VT0(15):26"/>
						<v:ud v:nameU="TopLeftOffset" v:prompt="" v:val="VT0(0.14566929133858):1"/>
						<v:ud v:nameU="TopRightOffset" v:prompt="" v:val="VT0(0.14566929133858):1"/>
						<v:ud v:nameU="BotLeftOffset" v:prompt="" v:val="VT0(0.14566929133858):1"/>
						<v:ud v:nameU="BotRightOffset" v:prompt="" v:val="VT0(0.14566929133858):1"/>
					</v:userDefs>
					<path d="M10.49 294.91 L94.39 294.91 L94.39 294.91 A10.488 10.488 -180 0 0 104.88 284.42 L104.88 220.36 A10.488
								 10.488 -180 0 0 94.39 209.87 L94.39 209.87 L10.49 209.87 L10.49 209.87 A10.488 10.488 -180 0 0 0
								 220.36 L0 284.42 A10.488 10.488 -180 0 0 10.49 294.91 L10.49 294.91 Z" class="st5"/>
				</g>
				<g id="group77-54" transform="translate(42.5197,-8.50394)" v:mID="77" v:groupContext="group">
					<v:userDefs>
						<v:ud v:nameU="visVersion" v:prompt="" v:val="VT0(15):26"/>
						<v:ud v:nameU="ShapeClass" v:prompt="" v:val="VT0(5):26"/>
						<v:ud v:nameU="SolSH" v:prompt="" v:val="VT15({BF0433D9-CD73-4EB5-8390-8653BE590246}):41"/>
						<v:ud v:nameU="visLegendShape" v:prompt="" v:val="VT0(2):26"/>
					</v:userDefs>
					<title>User.21</title>
					<g id="shape78-55" v:mID="78" v:groupContext="shape" transform="translate(18.0575,0)">
						<title>Sheet.78</title>
						<path d="M26.29 232.85 A8.81 8.81 -180 1 0 8.67 232.85 A8.81 8.81 -180 1 0 26.29 232.85 ZM27.58 244.04 L7.17
									 244.04 C3.22 244.04 0 247.26 0 251.21 L0 276.22 L5.59 276.22 L5.59 261.67 L7.45 261.67 L7.45
									 294.91 L16.55 294.91 L16.55 280.05 C16.55 279.54 16.97 279.12 17.48 279.12 C18 279.12 18.42
									 279.54 18.42 280.05 L18.42 294.91 L28.04 294.91 L28.04 261.61 L29.91 261.61 L29.91 276.22 L34.75
									 276.22 L34.75 251.21 C34.75 247.26 31.54 244.04 27.58 244.04 Z" class="st4"/>
					</g>
				</g>
				<g id="group79-57" transform="translate(7.08661,-26.2205)" v:mID="79" v:groupContext="group">
					<v:userDefs>
						<v:ud v:nameU="visVersion" v:prompt="" v:val="VT0(15):26"/>
						<v:ud v:nameU="ShapeClass" v:prompt="" v:val="VT0(5):26"/>
						<v:ud v:nameU="SolSH" v:prompt="" v:val="VT15({BF0433D9-CD73-4EB5-8390-8653BE590246}):41"/>
						<v:ud v:nameU="visLegendShape" v:prompt="" v:val="VT0(2):26"/>
					</v:userDefs>
					<title>Mainframe</title>
					<g id="shape80-58" v:mID="80" v:groupContext="shape" transform="translate(2.84079,0)">
						<title>Sheet.80</title>
						<path d="M0 294.91 L29.75 294.91 L29.75 259.48 L0 259.48 L0 294.91 Z" class="st1"/>
						<path d="M0 294.91 L29.75 294.91 L29.75 259.48 L0 259.48 L0 294.91" class="st2"/>
						<path d="M14.88 294.91 L14.88 259.48" class="st2"/>
					</g>
					<g id="shape81-62" v:mID="81" v:groupContext="shape" transform="translate(5.78631,-2.57268)">
						<title>Sheet.81</title>
						<v:userDefs>
							<v:ud v:nameU="SurroundingRegionColor" v:prompt="" v:val="VT5(1)"/>
							<v:ud v:nameU="SurroundingRegionColor" v:prompt="" v:val="VT5(#774b04)"/>
						</v:userDefs>
						<path d="M18.05 272.98 L24.62 272.98 L24.62 265.46 L18.05 265.46 L18.05 272.98 ZM7.44 268.51 L8.34 268.51
									 L8.34 265.3 L7.44 265.3 L7.44 268.51 ZM7.44 273.13 L8.34 273.13 L8.34 269.92 L7.44 269.92 L7.44
									 273.13 ZM5.32 268.51 L6.21 268.51 L6.21 265.3 L5.32 265.3 L5.32 268.51 ZM5.32 273.13 L6.21 273.13
									 L6.21 269.92 L5.32 269.92 L5.32 273.13 ZM2.13 268.51 L3.02 268.51 L3.02 265.3 L2.13 265.3 L2.13
									 268.51 ZM2.13 273.13 L3.02 273.13 L3.02 269.92 L2.13 269.92 L2.13 273.13 ZM0 268.51 L0.9 268.51
									 L0.9 265.3 L0 265.3 L0 268.51 ZM0 273.13 L0.9 273.13 L0.9 269.92 L0 269.92 L0 273.13 ZM16.91
									 290.5 L16.91 291.12 L24.7 291.12 L24.7 290.49 L16.91 290.5 ZM16.91 292.39 L16.91 293.02 L24.7
									 293.01 L24.7 292.39 L16.91 292.39 ZM16.91 294.29 L16.91 294.91 L24.7 294.91 L24.7 294.29 L16.91
									 294.29 ZM1.48 291.12 L9.26 291.12 L9.26 290.5 L1.48 290.5 L1.48 291.12 ZM1.48 293.02 L9.26 293.02
									 L9.26 292.39 L1.48 292.39 L1.48 293.02 ZM1.48 294.91 L9.26 294.91 L9.26 294.29 L1.48 294.29
									 L1.48 294.91 Z" class="st3"/>
					</g>
					<g id="shape82-65" v:mID="82" v:groupContext="shape" transform="translate(24.5407,-25.203)">
						<title>Sheet.82</title>
						<path d="M4.08 289.17 a0.555364 0.555364 -180 1 0 1.04222 0.383977 a0.555364 0.555364 -180 1 0 -1.04222 -0.383977
									 ZM4.08 290.81 a0.555364 0.555364 -180 1 0 1.02705 0.422902 a0.555364 0.555364 -180 1 0 -1.02705
									 -0.422902 ZM4.09 292.47 a0.555364 0.555364 -180 1 0 1.01759 0.445194 a0.555364 0.555364 -180
									 1 0 -1.01759 -0.445194 ZM4.09 294.13 a0.555364 0.555364 -180 1 0 1.01759 0.445194 a0.555364
									 0.555364 -180 1 0 -1.01759 -0.445194 ZM2.05 289.19 a0.555364 0.555364 -180 1 0 1.05915 0.334468
									 a0.555364 0.555364 -180 1 0 -1.05915 -0.334468 ZM2.05 290.84 a0.555364 0.555364 -180 1 0 1.04739
									 0.369666 a0.555364 0.555364 -180 1 0 -1.04739 -0.369666 ZM2.06 292.49 a0.555364 0.555364 -180
									 1 0 1.03999 0.389997 a0.555364 0.555364 -180 1 0 -1.03999 -0.389997 ZM2.06 294.16 a0.555364
									 0.555364 -180 1 0 1.03999 0.389997 a0.555364 0.555364 -180 1 0 -1.03999 -0.389997 ZM0.02 289.22
									 a0.555718 0.555718 -180 1 0 1.07482 0.282848 a0.555718 0.555718 -180 1 0 -1.07482 -0.282848
									 ZM0.02 290.87 a0.555718 0.555718 -180 1 0 1.06626 0.313605 a0.555718 0.555718 -180 1 0 -1.06626
									 -0.313605 ZM0.03 292.52 a0.555718 0.555718 -180 1 0 1.06083 0.331509 a0.555718 0.555718 -180
									 1 0 -1.06083 -0.331509 ZM0.03 294.19 a0.555718 0.555718 -180 1 0 1.06083 0.331509 a0.555718
									 0.555718 -180 1 0 -1.06083 -0.331509 Z" class="st1"/>
					</g>
				</g>
			</g>
			<g id="shape85-68" v:mID="85" v:groupContext="shape" transform="translate(532.913,-140.132)">
				<title>Simple Double Arrow.85</title>
				<v:userDefs>
					<v:ud v:nameU="visVersion" v:val="VT0(15):26"/>
					<v:ud v:nameU="ArrowType" v:prompt="" v:val="VT0(3):26"/>
				</v:userDefs>
				<path d="M0 294.91 L9.92 289.24 L9.92 292.08 L38.27 292.08 L38.27 292.08 L38.27 289.24 L48.19 294.91 L38.27 300.58
							 L38.27 297.74 L38.27 297.74 L9.92 297.74 L9.92 300.58 L0 294.91 Z" class="st4"/>
			</g>
			<g id="group118-70" transform="translate(243.78,-104.699) scale(-1,1)" v:mID="118" v:groupContext="group">
				<v:userDefs>
					<v:ud v:nameU="visVersion" v:prompt="" v:val="VT0(15):26"/>
					<v:ud v:nameU="ShapeClass" v:prompt="" v:val="VT0(5):26"/>
					<v:ud v:nameU="SolSH" v:prompt="" v:val="VT15({BF0433D9-CD73-4EB5-8390-8653BE590246}):41"/>
					<v:ud v:nameU="visLegendShape" v:prompt="" v:val="VT0(2):26"/>
				</v:userDefs>
				<title>Mainframe.118</title>
				<g id="shape119-71" v:mID="119" v:groupContext="shape" transform="translate(5.68158,0)">
					<title>Sheet.119</title>
					<path d="M0 294.91 L59.5 294.91 L59.5 224.04 L0 224.04 L0 294.91 Z" class="st1"/>
					<path d="M0 294.91 L59.5 294.91 L59.5 224.04 L0 224.04 L0 294.91" class="st2"/>
					<path d="M29.75 294.91 L29.75 224.04" class="st2"/>
				</g>
				<g id="shape120-75" v:mID="120" v:groupContext="shape" transform="translate(11.5726,-5.14536)">
					<title>Sheet.120</title>
					<v:userDefs>
						<v:ud v:nameU="SurroundingRegionColor" v:prompt="" v:val="VT5(1)"/>
						<v:ud v:nameU="SurroundingRegionColor" v:prompt="" v:val="VT5(#774b04)"/>
					</v:userDefs>
					<path d="M36.09 251.06 L49.23 251.06 L49.23 236.02 L36.09 236.02 L36.09 251.06 ZM14.89 242.11 L16.68 242.11 L16.68
								 235.7 L14.89 235.7 L14.89 242.11 ZM14.89 251.35 L16.68 251.35 L16.68 244.93 L14.89 244.93 L14.89
								 251.35 ZM10.63 242.11 L12.43 242.11 L12.43 235.7 L10.63 235.7 L10.63 242.11 ZM10.63 251.35 L12.43
								 251.35 L12.43 244.93 L10.63 244.93 L10.63 251.35 ZM4.25 242.11 L6.05 242.11 L6.05 235.7 L4.25 235.7
								 L4.25 242.11 ZM4.25 251.35 L6.05 251.35 L6.05 244.93 L4.25 244.93 L4.25 251.35 ZM0 242.11 L1.79
								 242.11 L1.79 235.7 L0 235.7 L0 242.11 ZM0 251.35 L1.79 251.35 L1.79 244.93 L0 244.93 L0 251.35 ZM33.82
								 286.08 L33.82 287.33 L49.39 287.33 L49.39 286.08 L33.82 286.08 ZM33.82 289.87 L33.82 291.12 L49.39
								 291.12 L49.39 289.87 L33.82 289.87 ZM33.82 293.66 L33.82 294.91 L49.39 294.91 L49.39 293.66 L33.82
								 293.66 ZM2.96 287.33 L18.52 287.33 L18.52 286.08 L2.95 286.08 L2.96 287.33 ZM2.96 291.12 L18.52
								 291.12 L18.52 289.87 L2.95 289.87 L2.96 291.12 ZM2.96 294.91 L18.52 294.91 L18.52 293.66 L2.95 293.66
								 L2.96 294.91 Z" class="st3"/>
				</g>
				<g id="shape121-78" v:mID="121" v:groupContext="shape" transform="translate(49.0815,-50.4059)">
					<title>Sheet.121</title>
					<path d="M8.15 283.43 A1.11073 1.11073 -180 1 0 10.24 284.2 A1.11073 1.11073 -180 1 0 8.15 283.43 ZM8.17 286.72
								 A1.11073 1.11073 -180 1 0 10.22 287.56 A1.11073 1.11073 -180 1 0 8.17 286.72 ZM8.18 290.02 A1.11073
								 1.11073 -180 1 0 10.21 290.91 A1.11073 1.11073 -180 1 0 8.18 290.02 ZM8.18 293.35 A1.11073 1.11073
								 -180 1 0 10.21 294.24 A1.11073 1.11073 -180 1 0 8.18 293.35 ZM4.1 283.48 A1.11073 1.11073 -180 1
								 0 6.21 284.15 A1.11073 1.11073 -180 1 0 4.1 283.48 ZM4.11 286.77 A1.11073 1.11073 -180 1 0 6.2 287.51
								 A1.11073 1.11073 -180 1 0 4.11 286.77 ZM4.11 290.08 A1.11073 1.11073 -180 1 0 6.19 290.86 A1.11073
								 1.11073 -180 1 0 4.11 290.08 ZM4.11 293.4 A1.11073 1.11073 -180 1 0 6.19 294.18 A1.11073 1.11073
								 -180 1 0 4.11 293.4 ZM0.04 283.53 A1.11144 1.11144 -180 1 0 2.19 284.1 A1.11144 1.11144 -180 1 0
								 0.04 283.53 ZM0.05 286.83 A1.11144 1.11144 -180 1 0 2.18 287.45 A1.11144 1.11144 -180 1 0 0.05 286.83
								 ZM0.05 290.14 A1.11144 1.11144 -180 1 0 2.17 290.8 A1.11144 1.11144 -180 1 0 0.05 290.14 ZM0.05
								 293.46 A1.11144 1.11144 -180 1 0 2.17 294.12 A1.11144 1.11144 -180 1 0 0.05 293.46 Z" class="st1"/>
				</g>
			</g>
			<g id="shape122-81" v:mID="122" v:groupContext="shape"
					transform="translate(-57.8837,6.43977) rotate(-51.4993) scale(-1,1)">
				<title>Simple Double Arrow.122</title>
				<v:userDefs>
					<v:ud v:nameU="visVersion" v:val="VT0(15):26"/>
					<v:ud v:nameU="ArrowType" v:prompt="" v:val="VT0(3):26"/>
				</v:userDefs>
				<path d="M0 294.91 L9.92 289.24 L9.92 292.08 L69.76 292.08 L69.76 292.08 L69.76 289.24 L79.69 294.91 L69.76 300.58
							 L69.76 297.74 L69.76 297.74 L9.92 297.74 L9.92 300.58 L0 294.91 Z" class="st4"/>
			</g>
			<g id="shape123-83" v:mID="123" v:groupContext="shape"
					transform="translate(399.923,-69.0896) rotate(50.3322) scale(-1,1)">
				<title>Simple Double Arrow.123</title>
				<v:userDefs>
					<v:ud v:nameU="visVersion" v:val="VT0(15):26"/>
					<v:ud v:nameU="ArrowType" v:prompt="" v:val="VT0(3):26"/>
				</v:userDefs>
				<path d="M0 294.91 L9.92 289.24 L9.92 292.08 L65.57 292.08 L65.57 292.08 L65.57 289.24 L75.49 294.91 L65.57 300.58
							 L65.57 297.74 L65.57 297.74 L9.92 297.74 L9.92 300.58 L0 294.91 Z" class="st4"/>
			</g>
			<g id="group124-85" transform="translate(113.386,0) scale(-1,1)" v:mID="124" v:groupContext="group">
				<title>Sheet.124</title>
				<g id="shape125-86" v:mID="125" v:groupContext="shape">
					<title>Rounded Rectangle</title>
					<v:userDefs>
						<v:ud v:nameU="CTypeTopLeftSnip" v:prompt="" v:val="VT0(0):5"/>
						<v:ud v:nameU="CTypeTopRightSnip" v:prompt="" v:val="VT0(0):5"/>
						<v:ud v:nameU="CTypeBotLeftSnip" v:prompt="" v:val="VT0(0):5"/>
						<v:ud v:nameU="CTypeBotRightSnip" v:prompt="" v:val="VT0(0):5"/>
						<v:ud v:nameU="CornerLockHoriz" v:prompt="" v:val="VT0(1):5"/>
						<v:ud v:nameU="CornerLockVert" v:prompt="" v:val="VT0(1):5"/>
						<v:ud v:nameU="CornerLockDiag" v:prompt="" v:val="VT0(0):5"/>
						<v:ud v:nameU="TopLeftOffset" v:prompt="" v:val="VT0(0.15748031496063):24"/>
						<v:ud v:nameU="TopRightOffset" v:prompt="" v:val="VT0(0.15748031496063):24"/>
						<v:ud v:nameU="BotLeftOffset" v:prompt="" v:val="VT0(0.15748031496063):24"/>
						<v:ud v:nameU="BotRightOffset" v:prompt="" v:val="VT0(0.15748031496063):24"/>
						<v:ud v:nameU="visVersion" v:prompt="" v:val="VT0(15):26"/>
						<v:ud v:nameU="TopLeftOffset" v:prompt="" v:val="VT0(0.14566929133858):1"/>
						<v:ud v:nameU="TopRightOffset" v:prompt="" v:val="VT0(0.14566929133858):1"/>
						<v:ud v:nameU="BotLeftOffset" v:prompt="" v:val="VT0(0.14566929133858):1"/>
						<v:ud v:nameU="BotRightOffset" v:prompt="" v:val="VT0(0.14566929133858):1"/>
					</v:userDefs>
					<path d="M10.49 294.91 L94.39 294.91 L94.39 294.91 A10.488 10.488 -180 0 0 104.88 284.42 L104.88 220.36 A10.488
								 10.488 -180 0 0 94.39 209.87 L94.39 209.87 L10.49 209.87 L10.49 209.87 A10.488 10.488 -180 0 0 0
								 220.36 L0 284.42 A10.488 10.488 -180 0 0 10.49 294.91 L10.49 294.91 Z" class="st5"/>
				</g>
				<g id="group126-88" transform="translate(42.5197,-8.50394)" v:mID="126" v:groupContext="group">
					<v:userDefs>
						<v:ud v:nameU="visVersion" v:prompt="" v:val="VT0(15):26"/>
						<v:ud v:nameU="ShapeClass" v:prompt="" v:val="VT0(5):26"/>
						<v:ud v:nameU="SolSH" v:prompt="" v:val="VT15({BF0433D9-CD73-4EB5-8390-8653BE590246}):41"/>
						<v:ud v:nameU="visLegendShape" v:prompt="" v:val="VT0(2):26"/>
					</v:userDefs>
					<title>User.21</title>
					<g id="shape127-89" v:mID="127" v:groupContext="shape" transform="translate(18.0575,0)">
						<title>Sheet.127</title>
						<path d="M26.29 232.85 A8.81 8.81 -180 1 0 8.67 232.85 A8.81 8.81 -180 1 0 26.29 232.85 ZM27.58 244.04 L7.17
									 244.04 C3.22 244.04 0 247.26 0 251.21 L0 276.22 L5.59 276.22 L5.59 261.67 L7.45 261.67 L7.45
									 294.91 L16.55 294.91 L16.55 280.05 C16.55 279.54 16.97 279.12 17.48 279.12 C18 279.12 18.42
									 279.54 18.42 280.05 L18.42 294.91 L28.04 294.91 L28.04 261.61 L29.91 261.61 L29.91 276.22 L34.75
									 276.22 L34.75 251.21 C34.75 247.26 31.54 244.04 27.58 244.04 Z" class="st4"/>
					</g>
				</g>
				<g id="group128-91" transform="translate(7.08661,-26.2205)" v:mID="128" v:groupContext="group">
					<v:userDefs>
						<v:ud v:nameU="visVersion" v:prompt="" v:val="VT0(15):26"/>
						<v:ud v:nameU="ShapeClass" v:prompt="" v:val="VT0(5):26"/>
						<v:ud v:nameU="SolSH" v:prompt="" v:val="VT15({BF0433D9-CD73-4EB5-8390-8653BE590246}):41"/>
						<v:ud v:nameU="visLegendShape" v:prompt="" v:val="VT0(2):26"/>
					</v:userDefs>
					<title>Mainframe</title>
					<g id="shape129-92" v:mID="129" v:groupContext="shape" transform="translate(2.84079,0)">
						<title>Sheet.129</title>
						<path d="M0 294.91 L29.75 294.91 L29.75 259.48 L0 259.48 L0 294.91 Z" class="st1"/>
						<path d="M0 294.91 L29.75 294.91 L29.75 259.48 L0 259.48 L0 294.91" class="st2"/>
						<path d="M14.88 294.91 L14.88 259.48" class="st2"/>
					</g>
					<g id="shape130-96" v:mID="130" v:groupContext="shape" transform="translate(5.78631,-2.57268)">
						<title>Sheet.130</title>
						<v:userDefs>
							<v:ud v:nameU="SurroundingRegionColor" v:prompt="" v:val="VT5(1)"/>
							<v:ud v:nameU="SurroundingRegionColor" v:prompt="" v:val="VT5(#774b04)"/>
						</v:userDefs>
						<path d="M18.05 272.98 L24.62 272.98 L24.62 265.46 L18.05 265.46 L18.05 272.98 ZM7.44 268.51 L8.34 268.51
									 L8.34 265.3 L7.44 265.3 L7.44 268.51 ZM7.44 273.13 L8.34 273.13 L8.34 269.92 L7.44 269.92 L7.44
									 273.13 ZM5.32 268.51 L6.21 268.51 L6.21 265.3 L5.32 265.3 L5.32 268.51 ZM5.32 273.13 L6.21 273.13
									 L6.21 269.92 L5.32 269.92 L5.32 273.13 ZM2.13 268.51 L3.02 268.51 L3.02 265.3 L2.13 265.3 L2.13
									 268.51 ZM2.13 273.13 L3.02 273.13 L3.02 269.92 L2.13 269.92 L2.13 273.13 ZM0 268.51 L0.9 268.51
									 L0.9 265.3 L0 265.3 L0 268.51 ZM0 273.13 L0.9 273.13 L0.9 269.92 L0 269.92 L0 273.13 ZM16.91
									 290.5 L16.91 291.12 L24.7 291.12 L24.7 290.49 L16.91 290.5 ZM16.91 292.39 L16.91 293.02 L24.7
									 293.01 L24.7 292.39 L16.91 292.39 ZM16.91 294.29 L16.91 294.91 L24.7 294.91 L24.7 294.29 L16.91
									 294.29 ZM1.48 291.12 L9.26 291.12 L9.26 290.5 L1.48 290.5 L1.48 291.12 ZM1.48 293.02 L9.26 293.02
									 L9.26 292.39 L1.48 292.39 L1.48 293.02 ZM1.48 294.91 L9.26 294.91 L9.26 294.29 L1.48 294.29
									 L1.48 294.91 Z" class="st3"/>
					</g>
					<g id="shape131-99" v:mID="131" v:groupContext="shape" transform="translate(24.5407,-25.203)">
						<title>Sheet.131</title>
						<path d="M4.08 289.17 a0.555364 0.555364 -180 1 0 1.04222 0.383977 a0.555364 0.555364 -180 1 0 -1.04222 -0.383977
									 ZM4.08 290.81 a0.555364 0.555364 -180 1 0 1.02705 0.422902 a0.555364 0.555364 -180 1 0 -1.02705
									 -0.422902 ZM4.09 292.47 a0.555364 0.555364 -180 1 0 1.01759 0.445194 a0.555364 0.555364 -180
									 1 0 -1.01759 -0.445194 ZM4.09 294.13 a0.555364 0.555364 -180 1 0 1.01759 0.445194 a0.555364
									 0.555364 -180 1 0 -1.01759 -0.445194 ZM2.05 289.19 a0.555364 0.555364 -180 1 0 1.05915 0.334468
									 a0.555364 0.555364 -180 1 0 -1.05915 -0.334468 ZM2.05 290.84 a0.555364 0.555364 -180 1 0 1.04739
									 0.369666 a0.555364 0.555364 -180 1 0 -1.04739 -0.369666 ZM2.06 292.49 a0.555364 0.555364 -180
									 1 0 1.03999 0.389997 a0.555364 0.555364 -180 1 0 -1.03999 -0.389997 ZM2.06 294.16 a0.555364
									 0.555364 -180 1 0 1.03999 0.389997 a0.555364 0.555364 -180 1 0 -1.03999 -0.389997 ZM0.02 289.22
									 a0.555718 0.555718 -180 1 0 1.07482 0.282848 a0.555718 0.555718 -180 1 0 -1.07482 -0.282848
									 ZM0.02 290.87 a0.555718 0.555718 -180 1 0 1.06626 0.313605 a0.555718 0.555718 -180 1 0 -1.06626
									 -0.313605 ZM0.03 292.52 a0.555718 0.555718 -180 1 0 1.06083 0.331509 a0.555718 0.555718 -180
									 1 0 -1.06083 -0.331509 ZM0.03 294.19 a0.555718 0.555718 -180 1 0 1.06083 0.331509 a0.555718
									 0.555718 -180 1 0 -1.06083 -0.331509 Z" class="st1"/>
					</g>
				</g>
			</g>
			<g id="group132-102" transform="translate(113.386,-195.225) scale(-1,1)" v:mID="132" v:groupContext="group">
				<title>Sheet.132</title>
				<g id="shape133-103" v:mID="133" v:groupContext="shape">
					<title>Rounded Rectangle</title>
					<v:userDefs>
						<v:ud v:nameU="CTypeTopLeftSnip" v:prompt="" v:val="VT0(0):5"/>
						<v:ud v:nameU="CTypeTopRightSnip" v:prompt="" v:val="VT0(0):5"/>
						<v:ud v:nameU="CTypeBotLeftSnip" v:prompt="" v:val="VT0(0):5"/>
						<v:ud v:nameU="CTypeBotRightSnip" v:prompt="" v:val="VT0(0):5"/>
						<v:ud v:nameU="CornerLockHoriz" v:prompt="" v:val="VT0(1):5"/>
						<v:ud v:nameU="CornerLockVert" v:prompt="" v:val="VT0(1):5"/>
						<v:ud v:nameU="CornerLockDiag" v:prompt="" v:val="VT0(0):5"/>
						<v:ud v:nameU="TopLeftOffset" v:prompt="" v:val="VT0(0.15748031496063):24"/>
						<v:ud v:nameU="TopRightOffset" v:prompt="" v:val="VT0(0.15748031496063):24"/>
						<v:ud v:nameU="BotLeftOffset" v:prompt="" v:val="VT0(0.15748031496063):24"/>
						<v:ud v:nameU="BotRightOffset" v:prompt="" v:val="VT0(0.15748031496063):24"/>
						<v:ud v:nameU="visVersion" v:prompt="" v:val="VT0(15):26"/>
						<v:ud v:nameU="TopLeftOffset" v:prompt="" v:val="VT0(0.14566929133858):1"/>
						<v:ud v:nameU="TopRightOffset" v:prompt="" v:val="VT0(0.14566929133858):1"/>
						<v:ud v:nameU="BotLeftOffset" v:prompt="" v:val="VT0(0.14566929133858):1"/>
						<v:ud v:nameU="BotRightOffset" v:prompt="" v:val="VT0(0.14566929133858):1"/>
					</v:userDefs>
					<path d="M10.49 294.91 L94.39 294.91 L94.39 294.91 A10.488 10.488 -180 0 0 104.88 284.42 L104.88 220.36 A10.488
								 10.488 -180 0 0 94.39 209.87 L94.39 209.87 L10.49 209.87 L10.49 209.87 A10.488 10.488 -180 0 0 0
								 220.36 L0 284.42 A10.488 10.488 -180 0 0 10.49 294.91 L10.49 294.91 Z" class="st5"/>
				</g>
				<g id="group134-105" transform="translate(42.5197,-8.50394)" v:mID="134" v:groupContext="group">
					<v:userDefs>
						<v:ud v:nameU="visVersion" v:prompt="" v:val="VT0(15):26"/>
						<v:ud v:nameU="ShapeClass" v:prompt="" v:val="VT0(5):26"/>
						<v:ud v:nameU="SolSH" v:prompt="" v:val="VT15({BF0433D9-CD73-4EB5-8390-8653BE590246}):41"/>
						<v:ud v:nameU="visLegendShape" v:prompt="" v:val="VT0(2):26"/>
					</v:userDefs>
					<title>User.21</title>
					<g id="shape135-106" v:mID="135" v:groupContext="shape" transform="translate(18.0575,0)">
						<title>Sheet.135</title>
						<path d="M26.29 232.85 A8.81 8.81 -180 1 0 8.67 232.85 A8.81 8.81 -180 1 0 26.29 232.85 ZM27.58 244.04 L7.17
									 244.04 C3.22 244.04 0 247.26 0 251.21 L0 276.22 L5.59 276.22 L5.59 261.67 L7.45 261.67 L7.45
									 294.91 L16.55 294.91 L16.55 280.05 C16.55 279.54 16.97 279.12 17.48 279.12 C18 279.12 18.42
									 279.54 18.42 280.05 L18.42 294.91 L28.04 294.91 L28.04 261.61 L29.91 261.61 L29.91 276.22 L34.75
									 276.22 L34.75 251.21 C34.75 247.26 31.54 244.04 27.58 244.04 Z" class="st4"/>
					</g>
				</g>
				<g id="group136-108" transform="translate(7.08661,-26.2205)" v:mID="136" v:groupContext="group">
					<v:userDefs>
						<v:ud v:nameU="visVersion" v:prompt="" v:val="VT0(15):26"/>
						<v:ud v:nameU="ShapeClass" v:prompt="" v:val="VT0(5):26"/>
						<v:ud v:nameU="SolSH" v:prompt="" v:val="VT15({BF0433D9-CD73-4EB5-8390-8653BE590246}):41"/>
						<v:ud v:nameU="visLegendShape" v:prompt="" v:val="VT0(2):26"/>
					</v:userDefs>
					<title>Mainframe</title>
					<g id="shape137-109" v:mID="137" v:groupContext="shape" transform="translate(2.84079,0)">
						<title>Sheet.137</title>
						<path d="M0 294.91 L29.75 294.91 L29.75 259.48 L0 259.48 L0 294.91 Z" class="st1"/>
						<path d="M0 294.91 L29.75 294.91 L29.75 259.48 L0 259.48 L0 294.91" class="st2"/>
						<path d="M14.88 294.91 L14.88 259.48" class="st2"/>
					</g>
					<g id="shape138-113" v:mID="138" v:groupContext="shape" transform="translate(5.78631,-2.57268)">
						<title>Sheet.138</title>
						<v:userDefs>
							<v:ud v:nameU="SurroundingRegionColor" v:prompt="" v:val="VT5(1)"/>
							<v:ud v:nameU="SurroundingRegionColor" v:prompt="" v:val="VT5(#774b04)"/>
						</v:userDefs>
						<path d="M18.05 272.98 L24.62 272.98 L24.62 265.46 L18.05 265.46 L18.05 272.98 ZM7.44 268.51 L8.34 268.51
									 L8.34 265.3 L7.44 265.3 L7.44 268.51 ZM7.44 273.13 L8.34 273.13 L8.34 269.92 L7.44 269.92 L7.44
									 273.13 ZM5.32 268.51 L6.21 268.51 L6.21 265.3 L5.32 265.3 L5.32 268.51 ZM5.32 273.13 L6.21 273.13
									 L6.21 269.92 L5.32 269.92 L5.32 273.13 ZM2.13 268.51 L3.02 268.51 L3.02 265.3 L2.13 265.3 L2.13
									 268.51 ZM2.13 273.13 L3.02 273.13 L3.02 269.92 L2.13 269.92 L2.13 273.13 ZM0 268.51 L0.9 268.51
									 L0.9 265.3 L0 265.3 L0 268.51 ZM0 273.13 L0.9 273.13 L0.9 269.92 L0 269.92 L0 273.13 ZM16.91
									 290.5 L16.91 291.12 L24.7 291.12 L24.7 290.49 L16.91 290.5 ZM16.91 292.39 L16.91 293.02 L24.7
									 293.01 L24.7 292.39 L16.91 292.39 ZM16.91 294.29 L16.91 294.91 L24.7 294.91 L24.7 294.29 L16.91
									 294.29 ZM1.48 291.12 L9.26 291.12 L9.26 290.5 L1.48 290.5 L1.48 291.12 ZM1.48 293.02 L9.26 293.02
									 L9.26 292.39 L1.48 292.39 L1.48 293.02 ZM1.48 294.91 L9.26 294.91 L9.26 294.29 L1.48 294.29
									 L1.48 294.91 Z" class="st3"/>
					</g>
					<g id="shape139-116" v:mID="139" v:groupContext="shape" transform="translate(24.5407,-25.203)">
						<title>Sheet.139</title>
						<path d="M4.08 289.17 a0.555364 0.555364 -180 1 0 1.04222 0.383977 a0.555364 0.555364 -180 1 0 -1.04222 -0.383977
									 ZM4.08 290.81 a0.555364 0.555364 -180 1 0 1.02705 0.422902 a0.555364 0.555364 -180 1 0 -1.02705
									 -0.422902 ZM4.09 292.47 a0.555364 0.555364 -180 1 0 1.01759 0.445194 a0.555364 0.555364 -180
									 1 0 -1.01759 -0.445194 ZM4.09 294.13 a0.555364 0.555364 -180 1 0 1.01759 0.445194 a0.555364
									 0.555364 -180 1 0 -1.01759 -0.445194 ZM2.05 289.19 a0.555364 0.555364 -180 1 0 1.05915 0.334468
									 a0.555364 0.555364 -180 1 0 -1.05915 -0.334468 ZM2.05 290.84 a0.555364 0.555364 -180 1 0 1.04739
									 0.369666 a0.555364 0.555364 -180 1 0 -1.04739 -0.369666 ZM2.06 292.49 a0.555364 0.555364 -180
									 1 0 1.03999 0.389997 a0.555364 0.555364 -180 1 0 -1.03999 -0.389997 ZM2.06 294.16 a0.555364
									 0.555364 -180 1 0 1.03999 0.389997 a0.555364 0.555364 -180 1 0 -1.03999 -0.389997 ZM0.02 289.22
									 a0.555718 0.555718 -180 1 0 1.07482 0.282848 a0.555718 0.555718 -180 1 0 -1.07482 -0.282848
									 ZM0.02 290.87 a0.555718 0.555718 -180 1 0 1.06626 0.313605 a0.555718 0.555718 -180 1 0 -1.06626
									 -0.313605 ZM0.03 292.52 a0.555718 0.555718 -180 1 0 1.06083 0.331509 a0.555718 0.555718 -180
									 1 0 -1.06083 -0.331509 ZM0.03 294.19 a0.555718 0.555718 -180 1 0 1.06083 0.331509 a0.555718
									 0.555718 -180 1 0 -1.06083 -0.331509 Z" class="st1"/>
					</g>
				</g>
			</g>
			<g id="group140-119" transform="translate(113.386,-97.6124) scale(-1,1)" v:mID="140" v:groupContext="group">
				<title>Sheet.140</title>
				<g id="shape141-120" v:mID="141" v:groupContext="shape">
					<title>Rounded Rectangle</title>
					<v:userDefs>
						<v:ud v:nameU="CTypeTopLeftSnip" v:prompt="" v:val="VT0(0):5"/>
						<v:ud v:nameU="CTypeTopRightSnip" v:prompt="" v:val="VT0(0):5"/>
						<v:ud v:nameU="CTypeBotLeftSnip" v:prompt="" v:val="VT0(0):5"/>
						<v:ud v:nameU="CTypeBotRightSnip" v:prompt="" v:val="VT0(0):5"/>
						<v:ud v:nameU="CornerLockHoriz" v:prompt="" v:val="VT0(1):5"/>
						<v:ud v:nameU="CornerLockVert" v:prompt="" v:val="VT0(1):5"/>
						<v:ud v:nameU="CornerLockDiag" v:prompt="" v:val="VT0(0):5"/>
						<v:ud v:nameU="TopLeftOffset" v:prompt="" v:val="VT0(0.15748031496063):24"/>
						<v:ud v:nameU="TopRightOffset" v:prompt="" v:val="VT0(0.15748031496063):24"/>
						<v:ud v:nameU="BotLeftOffset" v:prompt="" v:val="VT0(0.15748031496063):24"/>
						<v:ud v:nameU="BotRightOffset" v:prompt="" v:val="VT0(0.15748031496063):24"/>
						<v:ud v:nameU="visVersion" v:prompt="" v:val="VT0(15):26"/>
						<v:ud v:nameU="TopLeftOffset" v:prompt="" v:val="VT0(0.14566929133858):1"/>
						<v:ud v:nameU="TopRightOffset" v:prompt="" v:val="VT0(0.14566929133858):1"/>
						<v:ud v:nameU="BotLeftOffset" v:prompt="" v:val="VT0(0.14566929133858):1"/>
						<v:ud v:nameU="BotRightOffset" v:prompt="" v:val="VT0(0.14566929133858):1"/>
					</v:userDefs>
					<path d="M10.49 294.91 L94.39 294.91 L94.39 294.91 A10.488 10.488 -180 0 0 104.88 284.42 L104.88 220.36 A10.488
								 10.488 -180 0 0 94.39 209.87 L94.39 209.87 L10.49 209.87 L10.49 209.87 A10.488 10.488 -180 0 0 0
								 220.36 L0 284.42 A10.488 10.488 -180 0 0 10.49 294.91 L10.49 294.91 Z" class="st5"/>
				</g>
				<g id="group142-122" transform="translate(42.5197,-8.50394)" v:mID="142" v:groupContext="group">
					<v:userDefs>
						<v:ud v:nameU="visVersion" v:prompt="" v:val="VT0(15):26"/>
						<v:ud v:nameU="ShapeClass" v:prompt="" v:val="VT0(5):26"/>
						<v:ud v:nameU="SolSH" v:prompt="" v:val="VT15({BF0433D9-CD73-4EB5-8390-8653BE590246}):41"/>
						<v:ud v:nameU="visLegendShape" v:prompt="" v:val="VT0(2):26"/>
					</v:userDefs>
					<title>User.21</title>
					<g id="shape143-123" v:mID="143" v:groupContext="shape" transform="translate(18.0575,0)">
						<title>Sheet.143</title>
						<path d="M26.29 232.85 A8.81 8.81 -180 1 0 8.67 232.85 A8.81 8.81 -180 1 0 26.29 232.85 ZM27.58 244.04 L7.17
									 244.04 C3.22 244.04 0 247.26 0 251.21 L0 276.22 L5.59 276.22 L5.59 261.67 L7.45 261.67 L7.45
									 294.91 L16.55 294.91 L16.55 280.05 C16.55 279.54 16.97 279.12 17.48 279.12 C18 279.12 18.42
									 279.54 18.42 280.05 L18.42 294.91 L28.04 294.91 L28.04 261.61 L29.91 261.61 L29.91 276.22 L34.75
									 276.22 L34.75 251.21 C34.75 247.26 31.54 244.04 27.58 244.04 Z" class="st4"/>
					</g>
				</g>
				<g id="group144-125" transform="translate(7.08661,-26.2205)" v:mID="144" v:groupContext="group">
					<v:userDefs>
						<v:ud v:nameU="visVersion" v:prompt="" v:val="VT0(15):26"/>
						<v:ud v:nameU="ShapeClass" v:prompt="" v:val="VT0(5):26"/>
						<v:ud v:nameU="SolSH" v:prompt="" v:val="VT15({BF0433D9-CD73-4EB5-8390-8653BE590246}):41"/>
						<v:ud v:nameU="visLegendShape" v:prompt="" v:val="VT0(2):26"/>
					</v:userDefs>
					<title>Mainframe</title>
					<g id="shape145-126" v:mID="145" v:groupContext="shape" transform="translate(2.84079,0)">
						<title>Sheet.145</title>
						<path d="M0 294.91 L29.75 294.91 L29.75 259.48 L0 259.48 L0 294.91 Z" class="st1"/>
						<path d="M0 294.91 L29.75 294.91 L29.75 259.48 L0 259.48 L0 294.91" class="st2"/>
						<path d="M14.88 294.91 L14.88 259.48" class="st2"/>
					</g>
					<g id="shape146-130" v:mID="146" v:groupContext="shape" transform="translate(5.78631,-2.57268)">
						<title>Sheet.146</title>
						<v:userDefs>
							<v:ud v:nameU="SurroundingRegionColor" v:prompt="" v:val="VT5(1)"/>
							<v:ud v:nameU="SurroundingRegionColor" v:prompt="" v:val="VT5(#774b04)"/>
						</v:userDefs>
						<path d="M18.05 272.98 L24.62 272.98 L24.62 265.46 L18.05 265.46 L18.05 272.98 ZM7.44 268.51 L8.34 268.51
									 L8.34 265.3 L7.44 265.3 L7.44 268.51 ZM7.44 273.13 L8.34 273.13 L8.34 269.92 L7.44 269.92 L7.44
									 273.13 ZM5.32 268.51 L6.21 268.51 L6.21 265.3 L5.32 265.3 L5.32 268.51 ZM5.32 273.13 L6.21 273.13
									 L6.21 269.92 L5.32 269.92 L5.32 273.13 ZM2.13 268.51 L3.02 268.51 L3.02 265.3 L2.13 265.3 L2.13
									 268.51 ZM2.13 273.13 L3.02 273.13 L3.02 269.92 L2.13 269.92 L2.13 273.13 ZM0 268.51 L0.9 268.51
									 L0.9 265.3 L0 265.3 L0 268.51 ZM0 273.13 L0.9 273.13 L0.9 269.92 L0 269.92 L0 273.13 ZM16.91
									 290.5 L16.91 291.12 L24.7 291.12 L24.7 290.49 L16.91 290.5 ZM16.91 292.39 L16.91 293.02 L24.7
									 293.01 L24.7 292.39 L16.91 292.39 ZM16.91 294.29 L16.91 294.91 L24.7 294.91 L24.7 294.29 L16.91
									 294.29 ZM1.48 291.12 L9.26 291.12 L9.26 290.5 L1.48 290.5 L1.48 291.12 ZM1.48 293.02 L9.26 293.02
									 L9.26 292.39 L1.48 292.39 L1.48 293.02 ZM1.48 294.91 L9.26 294.91 L9.26 294.29 L1.48 294.29
									 L1.48 294.91 Z" class="st3"/>
					</g>
					<g id="shape147-133" v:mID="147" v:groupContext="shape" transform="translate(24.5407,-25.203)">
						<title>Sheet.147</title>
						<path d="M4.08 289.17 a0.555364 0.555364 -180 1 0 1.04222 0.383977 a0.555364 0.555364 -180 1 0 -1.04222 -0.383977
									 ZM4.08 290.81 a0.555364 0.555364 -180 1 0 1.02705 0.422902 a0.555364 0.555364 -180 1 0 -1.02705
									 -0.422902 ZM4.09 292.47 a0.555364 0.555364 -180 1 0 1.01759 0.445194 a0.555364 0.555364 -180
									 1 0 -1.01759 -0.445194 ZM4.09 294.13 a0.555364 0.555364 -180 1 0 1.01759 0.445194 a0.555364
									 0.555364 -180 1 0 -1.01759 -0.445194 ZM2.05 289.19 a0.555364 0.555364 -180 1 0 1.05915 0.334468
									 a0.555364 0.555364 -180 1 0 -1.05915 -0.334468 ZM2.05 290.84 a0.555364 0.555364 -180 1 0 1.04739
									 0.369666 a0.555364 0.555364 -180 1 0 -1.04739 -0.369666 ZM2.06 292.49 a0.555364 0.555364 -180
									 1 0 1.03999 0.389997 a0.555364 0.555364 -180 1 0 -1.03999 -0.389997 ZM2.06 294.16 a0.555364
									 0.555364 -180 1 0 1.03999 0.389997 a0.555364 0.555364 -180 1 0 -1.03999 -0.389997 ZM0.02 289.22
									 a0.555718 0.555718 -180 1 0 1.07482 0.282848 a0.555718 0.555718 -180 1 0 -1.07482 -0.282848
									 ZM0.02 290.87 a0.555718 0.555718 -180 1 0 1.06626 0.313605 a0.555718 0.555718 -180 1 0 -1.06626
									 -0.313605 ZM0.03 292.52 a0.555718 0.555718 -180 1 0 1.06083 0.331509 a0.555718 0.555718 -180
									 1 0 -1.06083 -0.331509 ZM0.03 294.19 a0.555718 0.555718 -180 1 0 1.06083 0.331509 a0.555718
									 0.555718 -180 1 0 -1.06083 -0.331509 Z" class="st1"/>
					</g>
				</g>
			</g>
			<g id="shape148-136" v:mID="148" v:groupContext="shape" transform="translate(172.913,-140.132) scale(-1,1)">
				<title>Simple Double Arrow.148</title>
				<v:userDefs>
					<v:ud v:nameU="visVersion" v:val="VT0(15):26"/>
					<v:ud v:nameU="ArrowType" v:prompt="" v:val="VT0(3):26"/>
				</v:userDefs>
				<path d="M0 294.91 L9.92 289.24 L9.92 292.08 L38.27 292.08 L38.27 292.08 L38.27 289.24 L48.19 294.91 L38.27 300.58
							 L38.27 297.74 L38.27 297.74 L9.92 297.74 L9.92 300.58 L0 294.91 Z" class="st4"/>
			</g>
			<g id="group149-138" transform="translate(292.677,-79.8959)" v:mID="149" v:groupContext="group">
				<v:userDefs>
					<v:ud v:nameU="visVersion" v:prompt="" v:val="VT0(15):26"/>
					<v:ud v:nameU="ShapeClass" v:prompt="" v:val="VT0(5):26"/>
					<v:ud v:nameU="SolSH" v:prompt="" v:val="VT15({BF0433D9-CD73-4EB5-8390-8653BE590246}):41"/>
					<v:ud v:nameU="visLegendShape" v:prompt="" v:val="VT0(2):26"/>
				</v:userDefs>
				<title>Mainframe.149</title>
				<g id="shape150-139" v:mID="150" v:groupContext="shape" transform="translate(9.65869,0)">
					<title>Sheet.150</title>
					<path d="M0 294.91 L101.16 294.91 L101.16 174.44 L0 174.44 L0 294.91 Z" class="st1"/>
					<path d="M0 294.91 L101.16 294.91 L101.16 174.44 L0 174.44 L0 294.91" class="st2"/>
					<path d="M50.58 294.91 L50.58 174.44" class="st2"/>
				</g>
				<g id="shape151-143" v:mID="151" v:groupContext="shape" transform="translate(19.6735,-8.74711)">
					<title>Sheet.151</title>
					<v:userDefs>
						<v:ud v:nameU="SurroundingRegionColor" v:prompt="" v:val="VT5(1)"/>
						<v:ud v:nameU="SurroundingRegionColor" v:prompt="" v:val="VT5(#774b04)"/>
					</v:userDefs>
					<path d="M61.36 220.36 L83.7 220.36 L83.7 194.79 L61.36 194.79 L61.36 220.36 ZM25.31 205.15 L28.36 205.15 L28.36
								 194.25 L25.31 194.25 L25.31 205.15 ZM25.31 220.85 L28.36 220.85 L28.36 209.95 L25.31 209.95 L25.31
								 220.85 ZM18.08 205.15 L21.13 205.15 L21.13 194.25 L18.08 194.25 L18.08 205.15 ZM18.08 220.85 L21.13
								 220.85 L21.13 209.95 L18.08 209.95 L18.08 220.85 ZM7.23 205.15 L10.28 205.15 L10.28 194.25 L7.23
								 194.25 L7.23 205.15 ZM7.23 220.85 L10.28 220.85 L10.28 209.95 L7.23 209.95 L7.23 220.85 ZM0 205.15
								 L3.05 205.15 L3.05 194.25 L0 194.25 L0 205.15 ZM0 220.85 L3.05 220.85 L3.05 209.95 L0 209.95 L0
								 220.85 ZM57.5 279.9 L57.5 282.02 L83.96 282.02 L83.96 279.89 L57.5 279.9 ZM57.5 286.34 L57.5 288.47
								 L83.96 288.47 L83.96 286.34 L57.5 286.34 ZM57.5 292.79 L57.5 294.91 L83.96 294.91 L83.96 292.78
								 L57.5 292.79 ZM5.02 282.02 L31.48 282.02 L31.48 279.9 L5.02 279.9 L5.02 282.02 ZM5.02 288.47 L31.48
								 288.47 L31.48 286.34 L5.02 286.34 L5.02 288.47 ZM5.02 294.91 L31.48 294.91 L31.48 292.79 L5.02 292.78
								 L5.02 294.91 Z" class="st3"/>
				</g>
				<g id="shape152-146" v:mID="152" v:groupContext="shape" transform="translate(83.4385,-85.6901)">
					<title>Sheet.152</title>
					<path d="M13.86 275.39 A1.88824 1.88824 -180 1 0 17.4 276.7 A1.88824 1.88824 -180 1 0 13.86 275.39 ZM13.89 280.98
								 A1.88824 1.88824 -180 1 0 17.38 282.42 A1.88824 1.88824 -180 1 0 13.89 280.98 ZM13.9 286.6 A1.88824
								 1.88824 -180 1 0 17.36 288.11 A1.88824 1.88824 -180 1 0 13.9 286.6 ZM13.9 292.25 A1.88824 1.88824
								 -180 1 0 17.36 293.77 A1.88824 1.88824 -180 1 0 13.9 292.25 ZM6.96 275.48 A1.88824 1.88824 -180
								 1 0 10.56 276.61 A1.88824 1.88824 -180 1 0 6.96 275.48 ZM6.98 281.07 A1.88824 1.88824 -180 1 0 10.54
								 282.33 A1.88824 1.88824 -180 1 0 6.98 281.07 ZM6.99 286.69 A1.88824 1.88824 -180 1 0 10.53 288.02
								 A1.88824 1.88824 -180 1 0 6.99 286.69 ZM6.99 292.35 A1.88824 1.88824 -180 1 0 10.53 293.67 A1.88824
								 1.88824 -180 1 0 6.99 292.35 ZM0.07 275.56 A1.88944 1.88944 -180 1 0 3.72 276.52 A1.88944 1.88944
								 -180 1 0 0.07 275.56 ZM0.08 281.17 A1.88944 1.88944 -180 1 0 3.71 282.23 A1.88944 1.88944 -180 1
								 0 0.08 281.17 ZM0.09 286.79 A1.88944 1.88944 -180 1 0 3.7 287.92 A1.88944 1.88944 -180 1 0 0.09
								 286.79 ZM0.09 292.45 A1.88944 1.88944 -180 1 0 3.7 293.57 A1.88944 1.88944 -180 1 0 0.09 292.45
								 Z" class="st1"/>
				</g>
			</g>
			<g id="shape153-149" v:mID="153" v:groupContext="shape" transform="translate(412.441,-140.132)">
				<title>Simple Double Arrow.153</title>
				<v:userDefs>
					<v:ud v:nameU="visVersion" v:val="VT0(15):26"/>
					<v:ud v:nameU="ArrowType" v:prompt="" v:val="VT0(3):26"/>
				</v:userDefs>
				<path d="M0 294.91 L9.92 289.24 L9.92 292.08 L38.27 292.08 L38.27 292.08 L38.27 289.24 L48.19 294.91 L38.27 300.58
							 L38.27 297.74 L38.27 297.74 L9.92 297.74 L9.92 300.58 L0 294.91 Z" class="st4"/>
			</g>
			<g id="shape154-151" v:mID="154" v:groupContext="shape" transform="translate(246.614,-140.132)">
				<title>Simple Double Arrow.154</title>
				<v:userDefs>
					<v:ud v:nameU="visVersion" v:val="VT0(15):26"/>
					<v:ud v:nameU="ArrowType" v:prompt="" v:val="VT0(3):26"/>
				</v:userDefs>
				<path d="M0 294.91 L9.92 289.24 L9.92 292.08 L38.27 292.08 L38.27 292.08 L38.27 289.24 L48.19 294.91 L38.27 300.58
							 L38.27 297.74 L38.27 297.74 L9.92 297.74 L9.92 300.58 L0 294.91 Z" class="st4"/>
			</g>
		</g>
	</g>
</svg>
