<?xml version="1.0" encoding="UTF-8" standalone="no"?>
<!DOCTYPE svg PUBLIC "-//W3C//DTD SVG 1.1//EN" "http://www.w3.org/Graphics/SVG/1.1/DTD/svg11.dtd">
<!-- Generated by Microsoft Visio, SVG Export git-repo.svg Page-1 -->
<svg xmlns="http://www.w3.org/2000/svg" xmlns:xlink="http://www.w3.org/1999/xlink" xmlns:ev="http://www.w3.org/2001/xml-events"
		xmlns:v="http://schemas.microsoft.com/visio/2003/SVGExtensions/" width="6.28373in" height="3.47735in"
		viewBox="0 0 452.428 250.369" xml:space="preserve" color-interpolation-filters="sRGB" class="st6">
	<v:documentProperties v:langID="1033" v:metric="true" v:viewMarkup="false"/>

	<style type="text/css">
	<![CDATA[
		.st1 {fill:#774b04}
		.st2 {stroke:#ffffff;stroke-linecap:round;stroke-linejoin:round;stroke-width:0.5}
		.st3 {fill:#ffffff}
		.st4 {fill:#774b04;stroke:#ffffff;stroke-linecap:round;stroke-linejoin:round;stroke-width:0.5}
		.st5 {fill:#ffffff;stroke:#774b04;stroke-dasharray:10.5,7.5;stroke-linecap:round;stroke-linejoin:round;stroke-width:1.5}
		.st6 {fill:none;fill-rule:evenodd;font-size:12px;overflow:visible;stroke-linecap:square;stroke-miterlimit:3}
	]]>
	</style>

	<g v:mID="0" v:index="1" v:groupContext="foregroundPage">
		<title>Page-1</title>
		<v:pageProperties v:drawingScale="0.0393701" v:pageScale="0.0393701" v:drawingUnits="24" v:shadowOffsetX="8.50394"
				v:shadowOffsetY="-8.50394"/>
		<g id="group63-1" transform="translate(0.749828,-13.8961)" v:mID="63" v:groupContext="group">
			<title>Sheet.63</title>
			<g id="group1-2" transform="translate(184.252,-85.0394)" v:mID="1" v:groupContext="group">
				<v:userDefs>
					<v:ud v:nameU="visVersion" v:prompt="" v:val="VT0(15):26"/>
					<v:ud v:nameU="ShapeClass" v:prompt="" v:val="VT0(5):26"/>
					<v:ud v:nameU="SolSH" v:prompt="" v:val="VT15({BF0433D9-CD73-4EB5-8390-8653BE590246}):41"/>
					<v:ud v:nameU="visLegendShape" v:prompt="" v:val="VT0(2):26"/>
				</v:userDefs>
				<title>Mainframe</title>
				<g id="shape2-3" v:mID="2" v:groupContext="shape" transform="translate(5.68158,0)">
					<title>Sheet.2</title>
					<path d="M0 250.37 L59.5 250.37 L59.5 179.5 L0 179.5 L0 250.37 Z" class="st1"/>
					<path d="M0 250.37 L59.5 250.37 L59.5 179.5 L0 179.5 L0 250.37" class="st2"/>
					<path d="M29.75 250.37 L29.75 179.5" class="st2"/>
				</g>
				<g id="shape3-7" v:mID="3" v:groupContext="shape" transform="translate(11.5726,-5.14536)">
					<title>Sheet.3</title>
					<v:userDefs>
						<v:ud v:nameU="SurroundingRegionColor" v:prompt="" v:val="VT5(1)"/>
						<v:ud v:nameU="SurroundingRegionColor" v:prompt="" v:val="VT5(#774b04)"/>
					</v:userDefs>
					<path d="M36.09 206.51 L49.23 206.51 L49.23 191.48 L36.09 191.48 L36.09 206.51 ZM14.89 197.57 L16.68 197.57 L16.68
								 191.16 L14.89 191.16 L14.89 197.57 ZM14.89 206.81 L16.68 206.81 L16.68 200.39 L14.89 200.39 L14.89
								 206.81 ZM10.63 197.57 L12.43 197.57 L12.43 191.16 L10.63 191.16 L10.63 197.57 ZM10.63 206.81 L12.43
								 206.81 L12.43 200.39 L10.63 200.39 L10.63 206.81 ZM4.25 197.57 L6.05 197.57 L6.05 191.16 L4.25 191.16
								 L4.25 197.57 ZM4.25 206.81 L6.05 206.81 L6.05 200.39 L4.25 200.39 L4.25 206.81 ZM0 197.57 L1.79
								 197.57 L1.79 191.16 L0 191.16 L0 197.57 ZM0 206.81 L1.79 206.81 L1.79 200.39 L0 200.39 L0 206.81
								 ZM33.82 241.54 L33.82 242.79 L49.39 242.79 L49.39 241.54 L33.82 241.54 ZM33.82 245.33 L33.82 246.58
								 L49.39 246.58 L49.39 245.33 L33.82 245.33 ZM33.82 249.12 L33.82 250.37 L49.39 250.37 L49.39 249.12
								 L33.82 249.12 ZM2.96 242.79 L18.52 242.79 L18.52 241.54 L2.95 241.54 L2.96 242.79 ZM2.96 246.58
								 L18.52 246.58 L18.52 245.33 L2.95 245.33 L2.96 246.58 ZM2.96 250.37 L18.52 250.37 L18.52 249.12
								 L2.95 249.12 L2.96 250.37 Z" class="st3"/>
				</g>
				<g id="shape4-10" v:mID="4" v:groupContext="shape" transform="translate(49.0815,-50.4059)">
					<title>Sheet.4</title>
					<path d="M8.15 238.89 A1.11073 1.11073 -180 1 0 10.24 239.66 A1.11073 1.11073 -180 1 0 8.15 238.89 ZM8.17 242.18
								 A1.11073 1.11073 -180 1 0 10.22 243.02 A1.11073 1.11073 -180 1 0 8.17 242.18 ZM8.18 245.48 A1.11073
								 1.11073 -180 1 0 10.21 246.37 A1.11073 1.11073 -180 1 0 8.18 245.48 ZM8.18 248.81 A1.11073 1.11073
								 -180 1 0 10.21 249.7 A1.11073 1.11073 -180 1 0 8.18 248.81 ZM4.1 238.94 A1.11073 1.11073 -180 1
								 0 6.21 239.61 A1.11073 1.11073 -180 1 0 4.1 238.94 ZM4.11 242.23 A1.11073 1.11073 -180 1 0 6.2 242.97
								 A1.11073 1.11073 -180 1 0 4.11 242.23 ZM4.11 245.54 A1.11073 1.11073 -180 1 0 6.19 246.32 A1.11073
								 1.11073 -180 1 0 4.11 245.54 ZM4.11 248.86 A1.11073 1.11073 -180 1 0 6.19 249.64 A1.11073 1.11073
								 -180 1 0 4.11 248.86 ZM0.04 238.99 A1.11144 1.11144 -180 1 0 2.19 239.55 A1.11144 1.11144 -180 1
								 0 0.04 238.99 ZM0.05 242.29 A1.11144 1.11144 -180 1 0 2.18 242.91 A1.11144 1.11144 -180 1 0 0.05
								 242.29 ZM0.05 245.59 A1.11144 1.11144 -180 1 0 2.17 246.26 A1.11144 1.11144 -180 1 0 0.05 245.59
								 ZM0.05 248.92 A1.11144 1.11144 -180 1 0 2.17 249.58 A1.11144 1.11144 -180 1 0 0.05 248.92 Z"
							class="st1"/>
				</g>
			</g>
			<g id="shape24-13" v:mID="24" v:groupContext="shape" transform="translate(8.72345,-26.065) rotate(-24.4251)">
				<title>Simple Double Arrow</title>
				<v:userDefs>
					<v:ud v:nameU="visVersion" v:val="VT0(15):26"/>
					<v:ud v:nameU="ArrowType" v:prompt="" v:val="VT0(3):26"/>
				</v:userDefs>
				<path d="M0 250.37 L9.92 244.7 L9.92 247.53 L61.37 247.53 L61.37 247.53 L61.37 244.7 L71.29 250.37 L61.37 256.04
							 L61.37 253.2 L61.37 253.2 L9.92 253.2 L9.92 256.04 L0 250.37 Z" class="st4"/>
			</g>
			<g id="shape26-15" v:mID="26" v:groupContext="shape" transform="translate(379.493,-52.3952) rotate(26.1139)">
				<title>Simple Double Arrow.26</title>
				<v:userDefs>
					<v:ud v:nameU="visVersion" v:val="VT0(15):26"/>
					<v:ud v:nameU="ArrowType" v:prompt="" v:val="VT0(3):26"/>
				</v:userDefs>
				<path d="M0 250.37 L9.92 244.7 L9.92 247.53 L54.48 247.53 L54.48 247.53 L54.48 244.7 L64.4 250.37 L54.48 256.04 L54.48
							 253.2 L54.48 253.2 L9.92 253.2 L9.92 256.04 L0 250.37 Z" class="st4"/>
			</g>
			<g id="shape28-17" v:mID="28" v:groupContext="shape" transform="translate(162.01,-142.069) rotate(-23.59)">
				<title>Simple Double Arrow.28</title>
				<v:userDefs>
					<v:ud v:nameU="visVersion" v:val="VT0(15):26"/>
					<v:ud v:nameU="ArrowType" v:prompt="" v:val="VT0(3):26"/>
				</v:userDefs>
				<path d="M0 250.37 L9.92 244.7 L9.92 247.53 L60.91 247.53 L60.91 247.53 L60.91 244.7 L70.83 250.37 L60.91 256.04
							 L60.91 253.2 L60.91 253.2 L9.92 253.2 L9.92 256.04 L0 250.37 Z" class="st4"/>
			</g>
			<g id="shape30-19" v:mID="30" v:groupContext="shape" transform="translate(224.611,-164.711) rotate(26.665)">
				<title>Simple Double Arrow.30</title>
				<v:userDefs>
					<v:ud v:nameU="visVersion" v:val="VT0(15):26"/>
					<v:ud v:nameU="ArrowType" v:prompt="" v:val="VT0(3):26"/>
				</v:userDefs>
				<path d="M0 250.37 L9.92 244.7 L9.92 247.53 L62.72 247.53 L62.72 247.53 L62.72 244.7 L72.64 250.37 L62.72 256.04
							 L62.72 253.2 L62.72 253.2 L9.92 253.2 L9.92 256.04 L0 250.37 Z" class="st4"/>
			</g>
			<g id="group31-21" transform="translate(338.293,-2.84217E-014)" v:mID="31" v:groupContext="group">
				<title>Sheet.31</title>
				<g id="shape32-22" v:mID="32" v:groupContext="shape">
					<title>Rounded Rectangle</title>
					<v:userDefs>
						<v:ud v:nameU="CTypeTopLeftSnip" v:prompt="" v:val="VT0(0):5"/>
						<v:ud v:nameU="CTypeTopRightSnip" v:prompt="" v:val="VT0(0):5"/>
						<v:ud v:nameU="CTypeBotLeftSnip" v:prompt="" v:val="VT0(0):5"/>
						<v:ud v:nameU="CTypeBotRightSnip" v:prompt="" v:val="VT0(0):5"/>
						<v:ud v:nameU="CornerLockHoriz" v:prompt="" v:val="VT0(1):5"/>
						<v:ud v:nameU="CornerLockVert" v:prompt="" v:val="VT0(1):5"/>
						<v:ud v:nameU="CornerLockDiag" v:prompt="" v:val="VT0(0):5"/>
						<v:ud v:nameU="TopLeftOffset" v:prompt="" v:val="VT0(0.15748031496063):24"/>
						<v:ud v:nameU="TopRightOffset" v:prompt="" v:val="VT0(0.15748031496063):24"/>
						<v:ud v:nameU="BotLeftOffset" v:prompt="" v:val="VT0(0.15748031496063):24"/>
						<v:ud v:nameU="BotRightOffset" v:prompt="" v:val="VT0(0.15748031496063):24"/>
						<v:ud v:nameU="visVersion" v:prompt="" v:val="VT0(15):26"/>
						<v:ud v:nameU="TopLeftOffset" v:prompt="" v:val="VT0(0.14566929133858):1"/>
						<v:ud v:nameU="TopRightOffset" v:prompt="" v:val="VT0(0.14566929133858):1"/>
						<v:ud v:nameU="BotLeftOffset" v:prompt="" v:val="VT0(0.14566929133858):1"/>
						<v:ud v:nameU="BotRightOffset" v:prompt="" v:val="VT0(0.14566929133858):1"/>
					</v:userDefs>
					<path d="M10.49 250.37 L94.39 250.37 L94.39 250.37 A10.488 10.488 -180 0 0 104.88 239.88 L104.88 175.82 A10.488
								 10.488 -180 0 0 94.39 165.33 L94.39 165.33 L10.49 165.33 L10.49 165.33 A10.488 10.488 -180 0 0 0
								 175.82 L0 239.88 A10.488 10.488 -180 0 0 10.49 250.37 L10.49 250.37 Z" class="st5"/>
				</g>
				<g id="group33-24" transform="translate(42.5197,-8.50394)" v:mID="33" v:groupContext="group">
					<v:userDefs>
						<v:ud v:nameU="visVersion" v:prompt="" v:val="VT0(15):26"/>
						<v:ud v:nameU="ShapeClass" v:prompt="" v:val="VT0(5):26"/>
						<v:ud v:nameU="SolSH" v:prompt="" v:val="VT15({BF0433D9-CD73-4EB5-8390-8653BE590246}):41"/>
						<v:ud v:nameU="visLegendShape" v:prompt="" v:val="VT0(2):26"/>
					</v:userDefs>
					<title>User.21</title>
					<g id="shape34-25" v:mID="34" v:groupContext="shape" transform="translate(18.0575,0)">
						<title>Sheet.34</title>
						<path d="M26.29 188.31 A8.81 8.81 -180 1 0 8.67 188.31 A8.81 8.81 -180 1 0 26.29 188.31 ZM27.58 199.5 L7.17
									 199.5 C3.22 199.5 0 202.72 0 206.67 L0 231.67 L5.59 231.67 L5.59 217.12 L7.45 217.12 L7.45 250.37
									 L16.55 250.37 L16.55 235.51 C16.55 234.99 16.97 234.58 17.48 234.58 C18 234.58 18.42 234.99
									 18.42 235.51 L18.42 250.37 L28.04 250.37 L28.04 217.07 L29.91 217.07 L29.91 231.67 L34.75 231.67
									 L34.75 206.67 C34.75 202.72 31.54 199.5 27.58 199.5 Z" class="st4"/>
					</g>
				</g>
				<g id="group35-27" transform="translate(7.08661,-26.2205)" v:mID="35" v:groupContext="group">
					<v:userDefs>
						<v:ud v:nameU="visVersion" v:prompt="" v:val="VT0(15):26"/>
						<v:ud v:nameU="ShapeClass" v:prompt="" v:val="VT0(5):26"/>
						<v:ud v:nameU="SolSH" v:prompt="" v:val="VT15({BF0433D9-CD73-4EB5-8390-8653BE590246}):41"/>
						<v:ud v:nameU="visLegendShape" v:prompt="" v:val="VT0(2):26"/>
					</v:userDefs>
					<title>Mainframe</title>
					<g id="shape36-28" v:mID="36" v:groupContext="shape" transform="translate(2.84079,0)">
						<title>Sheet.36</title>
						<path d="M0 250.37 L29.75 250.37 L29.75 214.94 L0 214.94 L0 250.37 Z" class="st1"/>
						<path d="M0 250.37 L29.75 250.37 L29.75 214.94 L0 214.94 L0 250.37" class="st2"/>
						<path d="M14.88 250.37 L14.88 214.94" class="st2"/>
					</g>
					<g id="shape37-32" v:mID="37" v:groupContext="shape" transform="translate(5.78631,-2.57268)">
						<title>Sheet.37</title>
						<v:userDefs>
							<v:ud v:nameU="SurroundingRegionColor" v:prompt="" v:val="VT5(1)"/>
							<v:ud v:nameU="SurroundingRegionColor" v:prompt="" v:val="VT5(#774b04)"/>
						</v:userDefs>
						<path d="M18.05 228.44 L24.62 228.44 L24.62 220.92 L18.05 220.92 L18.05 228.44 ZM7.44 223.97 L8.34 223.97
									 L8.34 220.76 L7.44 220.76 L7.44 223.97 ZM7.44 228.59 L8.34 228.59 L8.34 225.38 L7.44 225.38
									 L7.44 228.59 ZM5.32 223.97 L6.21 223.97 L6.21 220.76 L5.32 220.76 L5.32 223.97 ZM5.32 228.59
									 L6.21 228.59 L6.21 225.38 L5.32 225.38 L5.32 228.59 ZM2.13 223.97 L3.02 223.97 L3.02 220.76
									 L2.13 220.76 L2.13 223.97 ZM2.13 228.59 L3.02 228.59 L3.02 225.38 L2.13 225.38 L2.13 228.59
									 ZM0 223.97 L0.9 223.97 L0.9 220.76 L0 220.76 L0 223.97 ZM0 228.59 L0.9 228.59 L0.9 225.38 L0
									 225.38 L0 228.59 ZM16.91 245.95 L16.91 246.58 L24.7 246.58 L24.7 245.95 L16.91 245.95 ZM16.91
									 247.85 L16.91 248.47 L24.7 248.47 L24.7 247.85 L16.91 247.85 ZM16.91 249.74 L16.91 250.37 L24.7
									 250.37 L24.7 249.74 L16.91 249.74 ZM1.48 246.58 L9.26 246.58 L9.26 245.95 L1.48 245.95 L1.48
									 246.58 ZM1.48 248.47 L9.26 248.47 L9.26 247.85 L1.48 247.85 L1.48 248.47 ZM1.48 250.37 L9.26
									 250.37 L9.26 249.74 L1.48 249.74 L1.48 250.37 Z" class="st3"/>
					</g>
					<g id="shape38-35" v:mID="38" v:groupContext="shape" transform="translate(24.5407,-25.203)">
						<title>Sheet.38</title>
						<path d="M4.08 244.63 a0.555364 0.555364 -180 1 0 1.04222 0.383977 a0.555364 0.555364 -180 1 0 -1.04222 -0.383977
									 ZM4.08 246.27 a0.555364 0.555364 -180 1 0 1.02705 0.422902 a0.555364 0.555364 -180 1 0 -1.02705
									 -0.422902 ZM4.09 247.92 a0.555364 0.555364 -180 1 0 1.01759 0.445194 a0.555364 0.555364 -180
									 1 0 -1.01759 -0.445194 ZM4.09 249.59 a0.555364 0.555364 -180 1 0 1.01759 0.445194 a0.555364
									 0.555364 -180 1 0 -1.01759 -0.445194 ZM2.05 244.65 a0.555364 0.555364 -180 1 0 1.05915 0.334468
									 a0.555364 0.555364 -180 1 0 -1.05915 -0.334468 ZM2.05 246.3 a0.555364 0.555364 -180 1 0 1.04739
									 0.369666 a0.555364 0.555364 -180 1 0 -1.04739 -0.369666 ZM2.06 247.95 a0.555364 0.555364 -180
									 1 0 1.03999 0.389997 a0.555364 0.555364 -180 1 0 -1.03999 -0.389997 ZM2.06 249.62 a0.555364
									 0.555364 -180 1 0 1.03999 0.389997 a0.555364 0.555364 -180 1 0 -1.03999 -0.389997 ZM0.02 244.68
									 a0.555718 0.555718 -180 1 0 1.07482 0.282848 a0.555718 0.555718 -180 1 0 -1.07482 -0.282848
									 ZM0.02 246.33 a0.555718 0.555718 -180 1 0 1.06626 0.313605 a0.555718 0.555718 -180 1 0 -1.06626
									 -0.313605 ZM0.03 247.98 a0.555718 0.555718 -180 1 0 1.06083 0.331509 a0.555718 0.555718 -180
									 1 0 -1.06083 -0.331509 ZM0.03 249.64 a0.555718 0.555718 -180 1 0 1.06083 0.331509 a0.555718
									 0.555718 -180 1 0 -1.06083 -0.331509 Z" class="st1"/>
					</g>
				</g>
			</g>
			<g id="group39-38" transform="translate(338.293,-150.684)" v:mID="39" v:groupContext="group">
				<title>Sheet.39</title>
				<g id="shape40-39" v:mID="40" v:groupContext="shape">
					<title>Rounded Rectangle</title>
					<v:userDefs>
						<v:ud v:nameU="CTypeTopLeftSnip" v:prompt="" v:val="VT0(0):5"/>
						<v:ud v:nameU="CTypeTopRightSnip" v:prompt="" v:val="VT0(0):5"/>
						<v:ud v:nameU="CTypeBotLeftSnip" v:prompt="" v:val="VT0(0):5"/>
						<v:ud v:nameU="CTypeBotRightSnip" v:prompt="" v:val="VT0(0):5"/>
						<v:ud v:nameU="CornerLockHoriz" v:prompt="" v:val="VT0(1):5"/>
						<v:ud v:nameU="CornerLockVert" v:prompt="" v:val="VT0(1):5"/>
						<v:ud v:nameU="CornerLockDiag" v:prompt="" v:val="VT0(0):5"/>
						<v:ud v:nameU="TopLeftOffset" v:prompt="" v:val="VT0(0.15748031496063):24"/>
						<v:ud v:nameU="TopRightOffset" v:prompt="" v:val="VT0(0.15748031496063):24"/>
						<v:ud v:nameU="BotLeftOffset" v:prompt="" v:val="VT0(0.15748031496063):24"/>
						<v:ud v:nameU="BotRightOffset" v:prompt="" v:val="VT0(0.15748031496063):24"/>
						<v:ud v:nameU="visVersion" v:prompt="" v:val="VT0(15):26"/>
						<v:ud v:nameU="TopLeftOffset" v:prompt="" v:val="VT0(0.14566929133858):1"/>
						<v:ud v:nameU="TopRightOffset" v:prompt="" v:val="VT0(0.14566929133858):1"/>
						<v:ud v:nameU="BotLeftOffset" v:prompt="" v:val="VT0(0.14566929133858):1"/>
						<v:ud v:nameU="BotRightOffset" v:prompt="" v:val="VT0(0.14566929133858):1"/>
					</v:userDefs>
					<path d="M10.49 250.37 L94.39 250.37 L94.39 250.37 A10.488 10.488 -180 0 0 104.88 239.88 L104.88 175.82 A10.488
								 10.488 -180 0 0 94.39 165.33 L94.39 165.33 L10.49 165.33 L10.49 165.33 A10.488 10.488 -180 0 0 0
								 175.82 L0 239.88 A10.488 10.488 -180 0 0 10.49 250.37 L10.49 250.37 Z" class="st5"/>
				</g>
				<g id="group41-41" transform="translate(42.5197,-8.50394)" v:mID="41" v:groupContext="group">
					<v:userDefs>
						<v:ud v:nameU="visVersion" v:prompt="" v:val="VT0(15):26"/>
						<v:ud v:nameU="ShapeClass" v:prompt="" v:val="VT0(5):26"/>
						<v:ud v:nameU="SolSH" v:prompt="" v:val="VT15({BF0433D9-CD73-4EB5-8390-8653BE590246}):41"/>
						<v:ud v:nameU="visLegendShape" v:prompt="" v:val="VT0(2):26"/>
					</v:userDefs>
					<title>User.21</title>
					<g id="shape42-42" v:mID="42" v:groupContext="shape" transform="translate(18.0575,0)">
						<title>Sheet.42</title>
						<path d="M26.29 188.31 A8.81 8.81 -180 1 0 8.67 188.31 A8.81 8.81 -180 1 0 26.29 188.31 ZM27.58 199.5 L7.17
									 199.5 C3.22 199.5 0 202.72 0 206.67 L0 231.67 L5.59 231.67 L5.59 217.12 L7.45 217.12 L7.45 250.37
									 L16.55 250.37 L16.55 235.51 C16.55 234.99 16.97 234.58 17.48 234.58 C18 234.58 18.42 234.99
									 18.42 235.51 L18.42 250.37 L28.04 250.37 L28.04 217.07 L29.91 217.07 L29.91 231.67 L34.75 231.67
									 L34.75 206.67 C34.75 202.72 31.54 199.5 27.58 199.5 Z" class="st4"/>
					</g>
				</g>
				<g id="group43-44" transform="translate(7.08661,-26.2205)" v:mID="43" v:groupContext="group">
					<v:userDefs>
						<v:ud v:nameU="visVersion" v:prompt="" v:val="VT0(15):26"/>
						<v:ud v:nameU="ShapeClass" v:prompt="" v:val="VT0(5):26"/>
						<v:ud v:nameU="SolSH" v:prompt="" v:val="VT15({BF0433D9-CD73-4EB5-8390-8653BE590246}):41"/>
						<v:ud v:nameU="visLegendShape" v:prompt="" v:val="VT0(2):26"/>
					</v:userDefs>
					<title>Mainframe</title>
					<g id="shape44-45" v:mID="44" v:groupContext="shape" transform="translate(2.84079,0)">
						<title>Sheet.44</title>
						<path d="M0 250.37 L29.75 250.37 L29.75 214.94 L0 214.94 L0 250.37 Z" class="st1"/>
						<path d="M0 250.37 L29.75 250.37 L29.75 214.94 L0 214.94 L0 250.37" class="st2"/>
						<path d="M14.88 250.37 L14.88 214.94" class="st2"/>
					</g>
					<g id="shape45-49" v:mID="45" v:groupContext="shape" transform="translate(5.78631,-2.57268)">
						<title>Sheet.45</title>
						<v:userDefs>
							<v:ud v:nameU="SurroundingRegionColor" v:prompt="" v:val="VT5(1)"/>
							<v:ud v:nameU="SurroundingRegionColor" v:prompt="" v:val="VT5(#774b04)"/>
						</v:userDefs>
						<path d="M18.05 228.44 L24.62 228.44 L24.62 220.92 L18.05 220.92 L18.05 228.44 ZM7.44 223.97 L8.34 223.97
									 L8.34 220.76 L7.44 220.76 L7.44 223.97 ZM7.44 228.59 L8.34 228.59 L8.34 225.38 L7.44 225.38
									 L7.44 228.59 ZM5.32 223.97 L6.21 223.97 L6.21 220.76 L5.32 220.76 L5.32 223.97 ZM5.32 228.59
									 L6.21 228.59 L6.21 225.38 L5.32 225.38 L5.32 228.59 ZM2.13 223.97 L3.02 223.97 L3.02 220.76
									 L2.13 220.76 L2.13 223.97 ZM2.13 228.59 L3.02 228.59 L3.02 225.38 L2.13 225.38 L2.13 228.59
									 ZM0 223.97 L0.9 223.97 L0.9 220.76 L0 220.76 L0 223.97 ZM0 228.59 L0.9 228.59 L0.9 225.38 L0
									 225.38 L0 228.59 ZM16.91 245.95 L16.91 246.58 L24.7 246.58 L24.7 245.95 L16.91 245.95 ZM16.91
									 247.85 L16.91 248.47 L24.7 248.47 L24.7 247.85 L16.91 247.85 ZM16.91 249.74 L16.91 250.37 L24.7
									 250.37 L24.7 249.74 L16.91 249.74 ZM1.48 246.58 L9.26 246.58 L9.26 245.95 L1.48 245.95 L1.48
									 246.58 ZM1.48 248.47 L9.26 248.47 L9.26 247.85 L1.48 247.85 L1.48 248.47 ZM1.48 250.37 L9.26
									 250.37 L9.26 249.74 L1.48 249.74 L1.48 250.37 Z" class="st3"/>
					</g>
					<g id="shape46-52" v:mID="46" v:groupContext="shape" transform="translate(24.5407,-25.203)">
						<title>Sheet.46</title>
						<path d="M4.08 244.63 a0.555364 0.555364 -180 1 0 1.04222 0.383977 a0.555364 0.555364 -180 1 0 -1.04222 -0.383977
									 ZM4.08 246.27 a0.555364 0.555364 -180 1 0 1.02705 0.422902 a0.555364 0.555364 -180 1 0 -1.02705
									 -0.422902 ZM4.09 247.92 a0.555364 0.555364 -180 1 0 1.01759 0.445194 a0.555364 0.555364 -180
									 1 0 -1.01759 -0.445194 ZM4.09 249.59 a0.555364 0.555364 -180 1 0 1.01759 0.445194 a0.555364
									 0.555364 -180 1 0 -1.01759 -0.445194 ZM2.05 244.65 a0.555364 0.555364 -180 1 0 1.05915 0.334468
									 a0.555364 0.555364 -180 1 0 -1.05915 -0.334468 ZM2.05 246.3 a0.555364 0.555364 -180 1 0 1.04739
									 0.369666 a0.555364 0.555364 -180 1 0 -1.04739 -0.369666 ZM2.06 247.95 a0.555364 0.555364 -180
									 1 0 1.03999 0.389997 a0.555364 0.555364 -180 1 0 -1.03999 -0.389997 ZM2.06 249.62 a0.555364
									 0.555364 -180 1 0 1.03999 0.389997 a0.555364 0.555364 -180 1 0 -1.03999 -0.389997 ZM0.02 244.68
									 a0.555718 0.555718 -180 1 0 1.07482 0.282848 a0.555718 0.555718 -180 1 0 -1.07482 -0.282848
									 ZM0.02 246.33 a0.555718 0.555718 -180 1 0 1.06626 0.313605 a0.555718 0.555718 -180 1 0 -1.06626
									 -0.313605 ZM0.03 247.98 a0.555718 0.555718 -180 1 0 1.06083 0.331509 a0.555718 0.555718 -180
									 1 0 -1.06083 -0.331509 ZM0.03 249.64 a0.555718 0.555718 -180 1 0 1.06083 0.331509 a0.555718
									 0.555718 -180 1 0 -1.06083 -0.331509 Z" class="st1"/>
					</g>
				</g>
			</g>
			<g id="group47-55" v:mID="47" v:groupContext="group">
				<title>Sheet.47</title>
				<g id="shape48-56" v:mID="48" v:groupContext="shape">
					<title>Rounded Rectangle</title>
					<v:userDefs>
						<v:ud v:nameU="CTypeTopLeftSnip" v:prompt="" v:val="VT0(0):5"/>
						<v:ud v:nameU="CTypeTopRightSnip" v:prompt="" v:val="VT0(0):5"/>
						<v:ud v:nameU="CTypeBotLeftSnip" v:prompt="" v:val="VT0(0):5"/>
						<v:ud v:nameU="CTypeBotRightSnip" v:prompt="" v:val="VT0(0):5"/>
						<v:ud v:nameU="CornerLockHoriz" v:prompt="" v:val="VT0(1):5"/>
						<v:ud v:nameU="CornerLockVert" v:prompt="" v:val="VT0(1):5"/>
						<v:ud v:nameU="CornerLockDiag" v:prompt="" v:val="VT0(0):5"/>
						<v:ud v:nameU="TopLeftOffset" v:prompt="" v:val="VT0(0.15748031496063):24"/>
						<v:ud v:nameU="TopRightOffset" v:prompt="" v:val="VT0(0.15748031496063):24"/>
						<v:ud v:nameU="BotLeftOffset" v:prompt="" v:val="VT0(0.15748031496063):24"/>
						<v:ud v:nameU="BotRightOffset" v:prompt="" v:val="VT0(0.15748031496063):24"/>
						<v:ud v:nameU="visVersion" v:prompt="" v:val="VT0(15):26"/>
						<v:ud v:nameU="TopLeftOffset" v:prompt="" v:val="VT0(0.14566929133858):1"/>
						<v:ud v:nameU="TopRightOffset" v:prompt="" v:val="VT0(0.14566929133858):1"/>
						<v:ud v:nameU="BotLeftOffset" v:prompt="" v:val="VT0(0.14566929133858):1"/>
						<v:ud v:nameU="BotRightOffset" v:prompt="" v:val="VT0(0.14566929133858):1"/>
					</v:userDefs>
					<path d="M10.49 250.37 L94.39 250.37 L94.39 250.37 A10.488 10.488 -180 0 0 104.88 239.88 L104.88 175.82 A10.488
								 10.488 -180 0 0 94.39 165.33 L94.39 165.33 L10.49 165.33 L10.49 165.33 A10.488 10.488 -180 0 0 0
								 175.82 L0 239.88 A10.488 10.488 -180 0 0 10.49 250.37 L10.49 250.37 Z" class="st5"/>
				</g>
				<g id="group49-58" transform="translate(42.5197,-8.50394)" v:mID="49" v:groupContext="group">
					<v:userDefs>
						<v:ud v:nameU="visVersion" v:prompt="" v:val="VT0(15):26"/>
						<v:ud v:nameU="ShapeClass" v:prompt="" v:val="VT0(5):26"/>
						<v:ud v:nameU="SolSH" v:prompt="" v:val="VT15({BF0433D9-CD73-4EB5-8390-8653BE590246}):41"/>
						<v:ud v:nameU="visLegendShape" v:prompt="" v:val="VT0(2):26"/>
					</v:userDefs>
					<title>User.21</title>
					<g id="shape50-59" v:mID="50" v:groupContext="shape" transform="translate(18.0575,0)">
						<title>Sheet.50</title>
						<path d="M26.29 188.31 A8.81 8.81 -180 1 0 8.67 188.31 A8.81 8.81 -180 1 0 26.29 188.31 ZM27.58 199.5 L7.17
									 199.5 C3.22 199.5 0 202.72 0 206.67 L0 231.67 L5.59 231.67 L5.59 217.12 L7.45 217.12 L7.45 250.37
									 L16.55 250.37 L16.55 235.51 C16.55 234.99 16.97 234.58 17.48 234.58 C18 234.58 18.42 234.99
									 18.42 235.51 L18.42 250.37 L28.04 250.37 L28.04 217.07 L29.91 217.07 L29.91 231.67 L34.75 231.67
									 L34.75 206.67 C34.75 202.72 31.54 199.5 27.58 199.5 Z" class="st4"/>
					</g>
				</g>
				<g id="group51-61" transform="translate(7.08661,-26.2205)" v:mID="51" v:groupContext="group">
					<v:userDefs>
						<v:ud v:nameU="visVersion" v:prompt="" v:val="VT0(15):26"/>
						<v:ud v:nameU="ShapeClass" v:prompt="" v:val="VT0(5):26"/>
						<v:ud v:nameU="SolSH" v:prompt="" v:val="VT15({BF0433D9-CD73-4EB5-8390-8653BE590246}):41"/>
						<v:ud v:nameU="visLegendShape" v:prompt="" v:val="VT0(2):26"/>
					</v:userDefs>
					<title>Mainframe</title>
					<g id="shape52-62" v:mID="52" v:groupContext="shape" transform="translate(2.84079,0)">
						<title>Sheet.52</title>
						<path d="M0 250.37 L29.75 250.37 L29.75 214.94 L0 214.94 L0 250.37 Z" class="st1"/>
						<path d="M0 250.37 L29.75 250.37 L29.75 214.94 L0 214.94 L0 250.37" class="st2"/>
						<path d="M14.88 250.37 L14.88 214.94" class="st2"/>
					</g>
					<g id="shape53-66" v:mID="53" v:groupContext="shape" transform="translate(5.78631,-2.57268)">
						<title>Sheet.53</title>
						<v:userDefs>
							<v:ud v:nameU="SurroundingRegionColor" v:prompt="" v:val="VT5(1)"/>
							<v:ud v:nameU="SurroundingRegionColor" v:prompt="" v:val="VT5(#774b04)"/>
						</v:userDefs>
						<path d="M18.05 228.44 L24.62 228.44 L24.62 220.92 L18.05 220.92 L18.05 228.44 ZM7.44 223.97 L8.34 223.97
									 L8.34 220.76 L7.44 220.76 L7.44 223.97 ZM7.44 228.59 L8.34 228.59 L8.34 225.38 L7.44 225.38
									 L7.44 228.59 ZM5.32 223.97 L6.21 223.97 L6.21 220.76 L5.32 220.76 L5.32 223.97 ZM5.32 228.59
									 L6.21 228.59 L6.21 225.38 L5.32 225.38 L5.32 228.59 ZM2.13 223.97 L3.02 223.97 L3.02 220.76
									 L2.13 220.76 L2.13 223.97 ZM2.13 228.59 L3.02 228.59 L3.02 225.38 L2.13 225.38 L2.13 228.59
									 ZM0 223.97 L0.9 223.97 L0.9 220.76 L0 220.76 L0 223.97 ZM0 228.59 L0.9 228.59 L0.9 225.38 L0
									 225.38 L0 228.59 ZM16.91 245.95 L16.91 246.58 L24.7 246.58 L24.7 245.95 L16.91 245.95 ZM16.91
									 247.85 L16.91 248.47 L24.7 248.47 L24.7 247.85 L16.91 247.85 ZM16.91 249.74 L16.91 250.37 L24.7
									 250.37 L24.7 249.74 L16.91 249.74 ZM1.48 246.58 L9.26 246.58 L9.26 245.95 L1.48 245.95 L1.48
									 246.58 ZM1.48 248.47 L9.26 248.47 L9.26 247.85 L1.48 247.85 L1.48 248.47 ZM1.48 250.37 L9.26
									 250.37 L9.26 249.74 L1.48 249.74 L1.48 250.37 Z" class="st3"/>
					</g>
					<g id="shape54-69" v:mID="54" v:groupContext="shape" transform="translate(24.5407,-25.203)">
						<title>Sheet.54</title>
						<path d="M4.08 244.63 a0.555364 0.555364 -180 1 0 1.04222 0.383977 a0.555364 0.555364 -180 1 0 -1.04222 -0.383977
									 ZM4.08 246.27 a0.555364 0.555364 -180 1 0 1.02705 0.422902 a0.555364 0.555364 -180 1 0 -1.02705
									 -0.422902 ZM4.09 247.92 a0.555364 0.555364 -180 1 0 1.01759 0.445194 a0.555364 0.555364 -180
									 1 0 -1.01759 -0.445194 ZM4.09 249.59 a0.555364 0.555364 -180 1 0 1.01759 0.445194 a0.555364
									 0.555364 -180 1 0 -1.01759 -0.445194 ZM2.05 244.65 a0.555364 0.555364 -180 1 0 1.05915 0.334468
									 a0.555364 0.555364 -180 1 0 -1.05915 -0.334468 ZM2.05 246.3 a0.555364 0.555364 -180 1 0 1.04739
									 0.369666 a0.555364 0.555364 -180 1 0 -1.04739 -0.369666 ZM2.06 247.95 a0.555364 0.555364 -180
									 1 0 1.03999 0.389997 a0.555364 0.555364 -180 1 0 -1.03999 -0.389997 ZM2.06 249.62 a0.555364
									 0.555364 -180 1 0 1.03999 0.389997 a0.555364 0.555364 -180 1 0 -1.03999 -0.389997 ZM0.02 244.68
									 a0.555718 0.555718 -180 1 0 1.07482 0.282848 a0.555718 0.555718 -180 1 0 -1.07482 -0.282848
									 ZM0.02 246.33 a0.555718 0.555718 -180 1 0 1.06626 0.313605 a0.555718 0.555718 -180 1 0 -1.06626
									 -0.313605 ZM0.03 247.98 a0.555718 0.555718 -180 1 0 1.06083 0.331509 a0.555718 0.555718 -180
									 1 0 -1.06083 -0.331509 ZM0.03 249.64 a0.555718 0.555718 -180 1 0 1.06083 0.331509 a0.555718
									 0.555718 -180 1 0 -1.06083 -0.331509 Z" class="st1"/>
					</g>
				</g>
			</g>
			<g id="group55-72" transform="translate(-3.9968E-014,-150.684)" v:mID="55" v:groupContext="group">
				<title>Sheet.55</title>
				<g id="shape56-73" v:mID="56" v:groupContext="shape">
					<title>Rounded Rectangle</title>
					<v:userDefs>
						<v:ud v:nameU="CTypeTopLeftSnip" v:prompt="" v:val="VT0(0):5"/>
						<v:ud v:nameU="CTypeTopRightSnip" v:prompt="" v:val="VT0(0):5"/>
						<v:ud v:nameU="CTypeBotLeftSnip" v:prompt="" v:val="VT0(0):5"/>
						<v:ud v:nameU="CTypeBotRightSnip" v:prompt="" v:val="VT0(0):5"/>
						<v:ud v:nameU="CornerLockHoriz" v:prompt="" v:val="VT0(1):5"/>
						<v:ud v:nameU="CornerLockVert" v:prompt="" v:val="VT0(1):5"/>
						<v:ud v:nameU="CornerLockDiag" v:prompt="" v:val="VT0(0):5"/>
						<v:ud v:nameU="TopLeftOffset" v:prompt="" v:val="VT0(0.15748031496063):24"/>
						<v:ud v:nameU="TopRightOffset" v:prompt="" v:val="VT0(0.15748031496063):24"/>
						<v:ud v:nameU="BotLeftOffset" v:prompt="" v:val="VT0(0.15748031496063):24"/>
						<v:ud v:nameU="BotRightOffset" v:prompt="" v:val="VT0(0.15748031496063):24"/>
						<v:ud v:nameU="visVersion" v:prompt="" v:val="VT0(15):26"/>
						<v:ud v:nameU="TopLeftOffset" v:prompt="" v:val="VT0(0.14566929133858):1"/>
						<v:ud v:nameU="TopRightOffset" v:prompt="" v:val="VT0(0.14566929133858):1"/>
						<v:ud v:nameU="BotLeftOffset" v:prompt="" v:val="VT0(0.14566929133858):1"/>
						<v:ud v:nameU="BotRightOffset" v:prompt="" v:val="VT0(0.14566929133858):1"/>
					</v:userDefs>
					<path d="M10.49 250.37 L94.39 250.37 L94.39 250.37 A10.488 10.488 -180 0 0 104.88 239.88 L104.88 175.82 A10.488
								 10.488 -180 0 0 94.39 165.33 L94.39 165.33 L10.49 165.33 L10.49 165.33 A10.488 10.488 -180 0 0 0
								 175.82 L0 239.88 A10.488 10.488 -180 0 0 10.49 250.37 L10.49 250.37 Z" class="st5"/>
				</g>
				<g id="group57-75" transform="translate(42.5197,-8.50394)" v:mID="57" v:groupContext="group">
					<v:userDefs>
						<v:ud v:nameU="visVersion" v:prompt="" v:val="VT0(15):26"/>
						<v:ud v:nameU="ShapeClass" v:prompt="" v:val="VT0(5):26"/>
						<v:ud v:nameU="SolSH" v:prompt="" v:val="VT15({BF0433D9-CD73-4EB5-8390-8653BE590246}):41"/>
						<v:ud v:nameU="visLegendShape" v:prompt="" v:val="VT0(2):26"/>
					</v:userDefs>
					<title>User.21</title>
					<g id="shape58-76" v:mID="58" v:groupContext="shape" transform="translate(18.0575,0)">
						<title>Sheet.58</title>
						<path d="M26.29 188.31 A8.81 8.81 -180 1 0 8.67 188.31 A8.81 8.81 -180 1 0 26.29 188.31 ZM27.58 199.5 L7.17
									 199.5 C3.22 199.5 0 202.72 0 206.67 L0 231.67 L5.59 231.67 L5.59 217.12 L7.45 217.12 L7.45 250.37
									 L16.55 250.37 L16.55 235.51 C16.55 234.99 16.97 234.58 17.48 234.58 C18 234.58 18.42 234.99
									 18.42 235.51 L18.42 250.37 L28.04 250.37 L28.04 217.07 L29.91 217.07 L29.91 231.67 L34.75 231.67
									 L34.75 206.67 C34.75 202.72 31.54 199.5 27.58 199.5 Z" class="st4"/>
					</g>
				</g>
				<g id="group59-78" transform="translate(7.08661,-26.2205)" v:mID="59" v:groupContext="group">
					<v:userDefs>
						<v:ud v:nameU="visVersion" v:prompt="" v:val="VT0(15):26"/>
						<v:ud v:nameU="ShapeClass" v:prompt="" v:val="VT0(5):26"/>
						<v:ud v:nameU="SolSH" v:prompt="" v:val="VT15({BF0433D9-CD73-4EB5-8390-8653BE590246}):41"/>
						<v:ud v:nameU="visLegendShape" v:prompt="" v:val="VT0(2):26"/>
					</v:userDefs>
					<title>Mainframe</title>
					<g id="shape60-79" v:mID="60" v:groupContext="shape" transform="translate(2.84079,0)">
						<title>Sheet.60</title>
						<path d="M0 250.37 L29.75 250.37 L29.75 214.94 L0 214.94 L0 250.37 Z" class="st1"/>
						<path d="M0 250.37 L29.75 250.37 L29.75 214.94 L0 214.94 L0 250.37" class="st2"/>
						<path d="M14.88 250.37 L14.88 214.94" class="st2"/>
					</g>
					<g id="shape61-83" v:mID="61" v:groupContext="shape" transform="translate(5.78631,-2.57268)">
						<title>Sheet.61</title>
						<v:userDefs>
							<v:ud v:nameU="SurroundingRegionColor" v:prompt="" v:val="VT5(1)"/>
							<v:ud v:nameU="SurroundingRegionColor" v:prompt="" v:val="VT5(#774b04)"/>
						</v:userDefs>
						<path d="M18.05 228.44 L24.62 228.44 L24.62 220.92 L18.05 220.92 L18.05 228.44 ZM7.44 223.97 L8.34 223.97
									 L8.34 220.76 L7.44 220.76 L7.44 223.97 ZM7.44 228.59 L8.34 228.59 L8.34 225.38 L7.44 225.38
									 L7.44 228.59 ZM5.32 223.97 L6.21 223.97 L6.21 220.76 L5.32 220.76 L5.32 223.97 ZM5.32 228.59
									 L6.21 228.59 L6.21 225.38 L5.32 225.38 L5.32 228.59 ZM2.13 223.97 L3.02 223.97 L3.02 220.76
									 L2.13 220.76 L2.13 223.97 ZM2.13 228.59 L3.02 228.59 L3.02 225.38 L2.13 225.38 L2.13 228.59
									 ZM0 223.97 L0.9 223.97 L0.9 220.76 L0 220.76 L0 223.97 ZM0 228.59 L0.9 228.59 L0.9 225.38 L0
									 225.38 L0 228.59 ZM16.91 245.95 L16.91 246.58 L24.7 246.58 L24.7 245.95 L16.91 245.95 ZM16.91
									 247.85 L16.91 248.47 L24.7 248.47 L24.7 247.85 L16.91 247.85 ZM16.91 249.74 L16.91 250.37 L24.7
									 250.37 L24.7 249.74 L16.91 249.74 ZM1.48 246.58 L9.26 246.58 L9.26 245.95 L1.48 245.95 L1.48
									 246.58 ZM1.48 248.47 L9.26 248.47 L9.26 247.85 L1.48 247.85 L1.48 248.47 ZM1.48 250.37 L9.26
									 250.37 L9.26 249.74 L1.48 249.74 L1.48 250.37 Z" class="st3"/>
					</g>
					<g id="shape62-86" v:mID="62" v:groupContext="shape" transform="translate(24.5407,-25.203)">
						<title>Sheet.62</title>
						<path d="M4.08 244.63 a0.555364 0.555364 -180 1 0 1.04222 0.383977 a0.555364 0.555364 -180 1 0 -1.04222 -0.383977
									 ZM4.08 246.27 a0.555364 0.555364 -180 1 0 1.02705 0.422902 a0.555364 0.555364 -180 1 0 -1.02705
									 -0.422902 ZM4.09 247.92 a0.555364 0.555364 -180 1 0 1.01759 0.445194 a0.555364 0.555364 -180
									 1 0 -1.01759 -0.445194 ZM4.09 249.59 a0.555364 0.555364 -180 1 0 1.01759 0.445194 a0.555364
									 0.555364 -180 1 0 -1.01759 -0.445194 ZM2.05 244.65 a0.555364 0.555364 -180 1 0 1.05915 0.334468
									 a0.555364 0.555364 -180 1 0 -1.05915 -0.334468 ZM2.05 246.3 a0.555364 0.555364 -180 1 0 1.04739
									 0.369666 a0.555364 0.555364 -180 1 0 -1.04739 -0.369666 ZM2.06 247.95 a0.555364 0.555364 -180
									 1 0 1.03999 0.389997 a0.555364 0.555364 -180 1 0 -1.03999 -0.389997 ZM2.06 249.62 a0.555364
									 0.555364 -180 1 0 1.03999 0.389997 a0.555364 0.555364 -180 1 0 -1.03999 -0.389997 ZM0.02 244.68
									 a0.555718 0.555718 -180 1 0 1.07482 0.282848 a0.555718 0.555718 -180 1 0 -1.07482 -0.282848
									 ZM0.02 246.33 a0.555718 0.555718 -180 1 0 1.06626 0.313605 a0.555718 0.555718 -180 1 0 -1.06626
									 -0.313605 ZM0.03 247.98 a0.555718 0.555718 -180 1 0 1.06083 0.331509 a0.555718 0.555718 -180
									 1 0 -1.06083 -0.331509 ZM0.03 249.64 a0.555718 0.555718 -180 1 0 1.06083 0.331509 a0.555718
									 0.555718 -180 1 0 -1.06083 -0.331509 Z" class="st1"/>
					</g>
				</g>
			</g>
		</g>
	</g>
</svg>
