<?xml version="1.0" encoding="UTF-8" standalone="no"?>
<!DOCTYPE svg PUBLIC "-//W3C//DTD SVG 1.1//EN" "http://www.w3.org/Graphics/SVG/1.1/DTD/svg11.dtd">
<!-- Generated by Microsoft Visio, SVG Export git-star.svg Page-1 -->
<svg xmlns="http://www.w3.org/2000/svg" xmlns:xlink="http://www.w3.org/1999/xlink" xmlns:ev="http://www.w3.org/2001/xml-events"
		xmlns:v="http://schemas.microsoft.com/visio/2003/SVGExtensions/" width="8.11236in" height="5.74672in"
		viewBox="0 0 584.09 413.764" xml:space="preserve" color-interpolation-filters="sRGB" class="st6">
	<v:documentProperties v:langID="1033" v:metric="true" v:viewMarkup="false"/>

	<style type="text/css">
	<![CDATA[
		.st1 {fill:#ffffff;stroke:#774b04;stroke-dasharray:10.5,7.5;stroke-linecap:round;stroke-linejoin:round;stroke-width:1.5}
		.st2 {fill:#774b04;stroke:#ffffff;stroke-linecap:round;stroke-linejoin:round;stroke-width:0.5}
		.st3 {fill:#774b04}
		.st4 {stroke:#ffffff;stroke-linecap:round;stroke-linejoin:round;stroke-width:0.5}
		.st5 {fill:#ffffff}
		.st6 {fill:none;fill-rule:evenodd;font-size:12px;overflow:visible;stroke-linecap:square;stroke-miterlimit:3}
	]]>
	</style>

	<g v:mID="0" v:index="1" v:groupContext="foregroundPage">
		<title>Page-1</title>
		<v:pageProperties v:drawingScale="0.0393701" v:pageScale="0.0393701" v:drawingUnits="24" v:shadowOffsetX="8.50394"
				v:shadowOffsetY="-8.50394"/>
		<g id="group60-1" transform="translate(0.749828,-13.8961)" v:mID="60" v:groupContext="group">
			<title>Sheet.60</title>
			<g id="group8-2" transform="translate(344.633,-314.079)" v:mID="8" v:groupContext="group">
				<title>Sheet.8</title>
				<g id="shape7-3" v:mID="7" v:groupContext="shape">
					<title>Rounded Rectangle</title>
					<v:userDefs>
						<v:ud v:nameU="CTypeTopLeftSnip" v:prompt="" v:val="VT0(0):5"/>
						<v:ud v:nameU="CTypeTopRightSnip" v:prompt="" v:val="VT0(0):5"/>
						<v:ud v:nameU="CTypeBotLeftSnip" v:prompt="" v:val="VT0(0):5"/>
						<v:ud v:nameU="CTypeBotRightSnip" v:prompt="" v:val="VT0(0):5"/>
						<v:ud v:nameU="CornerLockHoriz" v:prompt="" v:val="VT0(1):5"/>
						<v:ud v:nameU="CornerLockVert" v:prompt="" v:val="VT0(1):5"/>
						<v:ud v:nameU="CornerLockDiag" v:prompt="" v:val="VT0(0):5"/>
						<v:ud v:nameU="TopLeftOffset" v:prompt="" v:val="VT0(0.15748031496063):24"/>
						<v:ud v:nameU="TopRightOffset" v:prompt="" v:val="VT0(0.15748031496063):24"/>
						<v:ud v:nameU="BotLeftOffset" v:prompt="" v:val="VT0(0.15748031496063):24"/>
						<v:ud v:nameU="BotRightOffset" v:prompt="" v:val="VT0(0.15748031496063):24"/>
						<v:ud v:nameU="visVersion" v:prompt="" v:val="VT0(15):26"/>
						<v:ud v:nameU="TopLeftOffset" v:prompt="" v:val="VT0(0.14566929133858):1"/>
						<v:ud v:nameU="TopRightOffset" v:prompt="" v:val="VT0(0.14566929133858):1"/>
						<v:ud v:nameU="BotLeftOffset" v:prompt="" v:val="VT0(0.14566929133858):1"/>
						<v:ud v:nameU="BotRightOffset" v:prompt="" v:val="VT0(0.14566929133858):1"/>
					</v:userDefs>
					<path d="M10.49 413.76 L94.39 413.76 L94.39 413.76 A10.488 10.488 -180 0 0 104.88 403.28 L104.88 339.21 A10.488
								 10.488 -180 0 0 94.39 328.72 L94.39 328.72 L10.49 328.72 L10.49 328.72 A10.488 10.488 -180 0 0 0
								 339.21 L0 403.28 A10.488 10.488 -180 0 0 10.49 413.76 L10.49 413.76 Z" class="st1"/>
				</g>
				<g id="group1-5" transform="translate(42.5197,-8.50394)" v:mID="1" v:groupContext="group">
					<v:userDefs>
						<v:ud v:nameU="visVersion" v:prompt="" v:val="VT0(15):26"/>
						<v:ud v:nameU="ShapeClass" v:prompt="" v:val="VT0(5):26"/>
						<v:ud v:nameU="SolSH" v:prompt="" v:val="VT15({BF0433D9-CD73-4EB5-8390-8653BE590246}):41"/>
						<v:ud v:nameU="visLegendShape" v:prompt="" v:val="VT0(2):26"/>
					</v:userDefs>
					<title>User.21</title>
					<g id="shape2-6" v:mID="2" v:groupContext="shape" transform="translate(18.0575,0)">
						<title>Sheet.2</title>
						<path d="M26.29 351.71 A8.81 8.81 -180 1 0 8.67 351.71 A8.81 8.81 -180 1 0 26.29 351.71 ZM27.58 362.9 L7.17
									 362.9 C3.22 362.9 0 366.11 0 370.07 L0 395.07 L5.59 395.07 L5.59 380.52 L7.45 380.52 L7.45 413.76
									 L16.55 413.76 L16.55 398.9 C16.55 398.39 16.97 397.97 17.48 397.97 C18 397.97 18.42 398.39 18.42
									 398.9 L18.42 413.76 L28.04 413.76 L28.04 380.46 L29.91 380.46 L29.91 395.07 L34.75 395.07 L34.75
									 370.07 C34.75 366.11 31.54 362.9 27.58 362.9 Z" class="st2"/>
					</g>
				</g>
				<g id="group3-8" transform="translate(7.08661,-26.2205)" v:mID="3" v:groupContext="group">
					<v:userDefs>
						<v:ud v:nameU="visVersion" v:prompt="" v:val="VT0(15):26"/>
						<v:ud v:nameU="ShapeClass" v:prompt="" v:val="VT0(5):26"/>
						<v:ud v:nameU="SolSH" v:prompt="" v:val="VT15({BF0433D9-CD73-4EB5-8390-8653BE590246}):41"/>
						<v:ud v:nameU="visLegendShape" v:prompt="" v:val="VT0(2):26"/>
					</v:userDefs>
					<title>Mainframe</title>
					<g id="shape4-9" v:mID="4" v:groupContext="shape" transform="translate(2.84079,0)">
						<title>Sheet.4</title>
						<path d="M0 413.76 L29.75 413.76 L29.75 378.33 L0 378.33 L0 413.76 Z" class="st3"/>
						<path d="M0 413.76 L29.75 413.76 L29.75 378.33 L0 378.33 L0 413.76" class="st4"/>
						<path d="M14.88 413.76 L14.88 378.33" class="st4"/>
					</g>
					<g id="shape5-13" v:mID="5" v:groupContext="shape" transform="translate(5.78631,-2.57268)">
						<title>Sheet.5</title>
						<v:userDefs>
							<v:ud v:nameU="SurroundingRegionColor" v:prompt="" v:val="VT5(1)"/>
							<v:ud v:nameU="SurroundingRegionColor" v:prompt="" v:val="VT5(#774b04)"/>
						</v:userDefs>
						<path d="M18.05 391.84 L24.62 391.84 L24.62 384.32 L18.05 384.32 L18.05 391.84 ZM7.44 387.36 L8.34 387.36
									 L8.34 384.16 L7.44 384.16 L7.44 387.36 ZM7.44 391.98 L8.34 391.98 L8.34 388.78 L7.44 388.78
									 L7.44 391.98 ZM5.32 387.36 L6.21 387.36 L6.21 384.16 L5.32 384.16 L5.32 387.36 ZM5.32 391.98
									 L6.21 391.98 L6.21 388.78 L5.32 388.78 L5.32 391.98 ZM2.13 387.36 L3.02 387.36 L3.02 384.16
									 L2.13 384.16 L2.13 387.36 ZM2.13 391.98 L3.02 391.98 L3.02 388.78 L2.13 388.78 L2.13 391.98
									 ZM0 387.36 L0.9 387.36 L0.9 384.16 L0 384.16 L0 387.36 ZM0 391.98 L0.9 391.98 L0.9 388.78 L0
									 388.78 L0 391.98 ZM16.91 409.35 L16.91 409.97 L24.7 409.97 L24.7 409.35 L16.91 409.35 ZM16.91
									 411.24 L16.91 411.87 L24.7 411.87 L24.7 411.24 L16.91 411.24 ZM16.91 413.14 L16.91 413.76 L24.7
									 413.76 L24.7 413.14 L16.91 413.14 ZM1.48 409.97 L9.26 409.97 L9.26 409.35 L1.48 409.35 L1.48
									 409.97 ZM1.48 411.87 L9.26 411.87 L9.26 411.24 L1.48 411.24 L1.48 411.87 ZM1.48 413.76 L9.26
									 413.76 L9.26 413.14 L1.48 413.14 L1.48 413.76 Z" class="st5"/>
					</g>
					<g id="shape6-16" v:mID="6" v:groupContext="shape" transform="translate(24.5407,-25.203)">
						<title>Sheet.6</title>
						<path d="M4.08 408.02 a0.555364 0.555364 -180 1 0 1.04222 0.383977 a0.555364 0.555364 -180 1 0 -1.04222 -0.383977
									 ZM4.08 409.67 a0.555364 0.555364 -180 1 0 1.02705 0.422902 a0.555364 0.555364 -180 1 0 -1.02705
									 -0.422902 ZM4.09 411.32 a0.555364 0.555364 -180 1 0 1.01759 0.445194 a0.555364 0.555364 -180
									 1 0 -1.01759 -0.445194 ZM4.09 412.98 a0.555364 0.555364 -180 1 0 1.01759 0.445194 a0.555364
									 0.555364 -180 1 0 -1.01759 -0.445194 ZM2.05 408.05 a0.555364 0.555364 -180 1 0 1.05915 0.334468
									 a0.555364 0.555364 -180 1 0 -1.05915 -0.334468 ZM2.05 409.69 a0.555364 0.555364 -180 1 0 1.04739
									 0.369666 a0.555364 0.555364 -180 1 0 -1.04739 -0.369666 ZM2.06 411.35 a0.555364 0.555364 -180
									 1 0 1.03999 0.389997 a0.555364 0.555364 -180 1 0 -1.03999 -0.389997 ZM2.06 413.01 a0.555364
									 0.555364 -180 1 0 1.03999 0.389997 a0.555364 0.555364 -180 1 0 -1.03999 -0.389997 ZM0.02 408.07
									 a0.555718 0.555718 -180 1 0 1.07482 0.282848 a0.555718 0.555718 -180 1 0 -1.07482 -0.282848
									 ZM0.02 409.72 a0.555718 0.555718 -180 1 0 1.06626 0.313605 a0.555718 0.555718 -180 1 0 -1.06626
									 -0.313605 ZM0.03 411.38 a0.555718 0.555718 -180 1 0 1.06083 0.331509 a0.555718 0.555718 -180
									 1 0 -1.06083 -0.331509 ZM0.03 413.04 a0.555718 0.555718 -180 1 0 1.06083 0.331509 a0.555718
									 0.555718 -180 1 0 -1.06083 -0.331509 Z" class="st3"/>
					</g>
				</g>
			</g>
			<g id="group9-19" transform="translate(469.954,-157.039)" v:mID="9" v:groupContext="group">
				<title>Sheet.9</title>
				<g id="shape10-20" v:mID="10" v:groupContext="shape">
					<title>Rounded Rectangle</title>
					<v:userDefs>
						<v:ud v:nameU="CTypeTopLeftSnip" v:prompt="" v:val="VT0(0):5"/>
						<v:ud v:nameU="CTypeTopRightSnip" v:prompt="" v:val="VT0(0):5"/>
						<v:ud v:nameU="CTypeBotLeftSnip" v:prompt="" v:val="VT0(0):5"/>
						<v:ud v:nameU="CTypeBotRightSnip" v:prompt="" v:val="VT0(0):5"/>
						<v:ud v:nameU="CornerLockHoriz" v:prompt="" v:val="VT0(1):5"/>
						<v:ud v:nameU="CornerLockVert" v:prompt="" v:val="VT0(1):5"/>
						<v:ud v:nameU="CornerLockDiag" v:prompt="" v:val="VT0(0):5"/>
						<v:ud v:nameU="TopLeftOffset" v:prompt="" v:val="VT0(0.15748031496063):24"/>
						<v:ud v:nameU="TopRightOffset" v:prompt="" v:val="VT0(0.15748031496063):24"/>
						<v:ud v:nameU="BotLeftOffset" v:prompt="" v:val="VT0(0.15748031496063):24"/>
						<v:ud v:nameU="BotRightOffset" v:prompt="" v:val="VT0(0.15748031496063):24"/>
						<v:ud v:nameU="visVersion" v:prompt="" v:val="VT0(15):26"/>
						<v:ud v:nameU="TopLeftOffset" v:prompt="" v:val="VT0(0.14566929133858):1"/>
						<v:ud v:nameU="TopRightOffset" v:prompt="" v:val="VT0(0.14566929133858):1"/>
						<v:ud v:nameU="BotLeftOffset" v:prompt="" v:val="VT0(0.14566929133858):1"/>
						<v:ud v:nameU="BotRightOffset" v:prompt="" v:val="VT0(0.14566929133858):1"/>
					</v:userDefs>
					<path d="M10.49 413.76 L94.39 413.76 L94.39 413.76 A10.488 10.488 -180 0 0 104.88 403.28 L104.88 339.21 A10.488
								 10.488 -180 0 0 94.39 328.72 L94.39 328.72 L10.49 328.72 L10.49 328.72 A10.488 10.488 -180 0 0 0
								 339.21 L0 403.28 A10.488 10.488 -180 0 0 10.49 413.76 L10.49 413.76 Z" class="st1"/>
				</g>
				<g id="group11-22" transform="translate(42.5197,-8.50394)" v:mID="11" v:groupContext="group">
					<v:userDefs>
						<v:ud v:nameU="visVersion" v:prompt="" v:val="VT0(15):26"/>
						<v:ud v:nameU="ShapeClass" v:prompt="" v:val="VT0(5):26"/>
						<v:ud v:nameU="SolSH" v:prompt="" v:val="VT15({BF0433D9-CD73-4EB5-8390-8653BE590246}):41"/>
						<v:ud v:nameU="visLegendShape" v:prompt="" v:val="VT0(2):26"/>
					</v:userDefs>
					<title>User.21</title>
					<g id="shape12-23" v:mID="12" v:groupContext="shape" transform="translate(18.0575,0)">
						<title>Sheet.12</title>
						<path d="M26.29 351.71 A8.81 8.81 -180 1 0 8.67 351.71 A8.81 8.81 -180 1 0 26.29 351.71 ZM27.58 362.9 L7.17
									 362.9 C3.22 362.9 0 366.11 0 370.07 L0 395.07 L5.59 395.07 L5.59 380.52 L7.45 380.52 L7.45 413.76
									 L16.55 413.76 L16.55 398.9 C16.55 398.39 16.97 397.97 17.48 397.97 C18 397.97 18.42 398.39 18.42
									 398.9 L18.42 413.76 L28.04 413.76 L28.04 380.46 L29.91 380.46 L29.91 395.07 L34.75 395.07 L34.75
									 370.07 C34.75 366.11 31.54 362.9 27.58 362.9 Z" class="st2"/>
					</g>
				</g>
				<g id="group13-25" transform="translate(7.08661,-26.2205)" v:mID="13" v:groupContext="group">
					<v:userDefs>
						<v:ud v:nameU="visVersion" v:prompt="" v:val="VT0(15):26"/>
						<v:ud v:nameU="ShapeClass" v:prompt="" v:val="VT0(5):26"/>
						<v:ud v:nameU="SolSH" v:prompt="" v:val="VT15({BF0433D9-CD73-4EB5-8390-8653BE590246}):41"/>
						<v:ud v:nameU="visLegendShape" v:prompt="" v:val="VT0(2):26"/>
					</v:userDefs>
					<title>Mainframe</title>
					<g id="shape14-26" v:mID="14" v:groupContext="shape" transform="translate(2.84079,0)">
						<title>Sheet.14</title>
						<path d="M0 413.76 L29.75 413.76 L29.75 378.33 L0 378.33 L0 413.76 Z" class="st3"/>
						<path d="M0 413.76 L29.75 413.76 L29.75 378.33 L0 378.33 L0 413.76" class="st4"/>
						<path d="M14.88 413.76 L14.88 378.33" class="st4"/>
					</g>
					<g id="shape15-30" v:mID="15" v:groupContext="shape" transform="translate(5.78631,-2.57268)">
						<title>Sheet.15</title>
						<v:userDefs>
							<v:ud v:nameU="SurroundingRegionColor" v:prompt="" v:val="VT5(1)"/>
							<v:ud v:nameU="SurroundingRegionColor" v:prompt="" v:val="VT5(#774b04)"/>
						</v:userDefs>
						<path d="M18.05 391.84 L24.62 391.84 L24.62 384.32 L18.05 384.32 L18.05 391.84 ZM7.44 387.36 L8.34 387.36
									 L8.34 384.16 L7.44 384.16 L7.44 387.36 ZM7.44 391.98 L8.34 391.98 L8.34 388.78 L7.44 388.78
									 L7.44 391.98 ZM5.32 387.36 L6.21 387.36 L6.21 384.16 L5.32 384.16 L5.32 387.36 ZM5.32 391.98
									 L6.21 391.98 L6.21 388.78 L5.32 388.78 L5.32 391.98 ZM2.13 387.36 L3.02 387.36 L3.02 384.16
									 L2.13 384.16 L2.13 387.36 ZM2.13 391.98 L3.02 391.98 L3.02 388.78 L2.13 388.78 L2.13 391.98
									 ZM0 387.36 L0.9 387.36 L0.9 384.16 L0 384.16 L0 387.36 ZM0 391.98 L0.9 391.98 L0.9 388.78 L0
									 388.78 L0 391.98 ZM16.91 409.35 L16.91 409.97 L24.7 409.97 L24.7 409.35 L16.91 409.35 ZM16.91
									 411.24 L16.91 411.87 L24.7 411.87 L24.7 411.24 L16.91 411.24 ZM16.91 413.14 L16.91 413.76 L24.7
									 413.76 L24.7 413.14 L16.91 413.14 ZM1.48 409.97 L9.26 409.97 L9.26 409.35 L1.48 409.35 L1.48
									 409.97 ZM1.48 411.87 L9.26 411.87 L9.26 411.24 L1.48 411.24 L1.48 411.87 ZM1.48 413.76 L9.26
									 413.76 L9.26 413.14 L1.48 413.14 L1.48 413.76 Z" class="st5"/>
					</g>
					<g id="shape16-33" v:mID="16" v:groupContext="shape" transform="translate(24.5407,-25.203)">
						<title>Sheet.16</title>
						<path d="M4.08 408.02 a0.555364 0.555364 -180 1 0 1.04222 0.383977 a0.555364 0.555364 -180 1 0 -1.04222 -0.383977
									 ZM4.08 409.67 a0.555364 0.555364 -180 1 0 1.02705 0.422902 a0.555364 0.555364 -180 1 0 -1.02705
									 -0.422902 ZM4.09 411.32 a0.555364 0.555364 -180 1 0 1.01759 0.445194 a0.555364 0.555364 -180
									 1 0 -1.01759 -0.445194 ZM4.09 412.98 a0.555364 0.555364 -180 1 0 1.01759 0.445194 a0.555364
									 0.555364 -180 1 0 -1.01759 -0.445194 ZM2.05 408.05 a0.555364 0.555364 -180 1 0 1.05915 0.334468
									 a0.555364 0.555364 -180 1 0 -1.05915 -0.334468 ZM2.05 409.69 a0.555364 0.555364 -180 1 0 1.04739
									 0.369666 a0.555364 0.555364 -180 1 0 -1.04739 -0.369666 ZM2.06 411.35 a0.555364 0.555364 -180
									 1 0 1.03999 0.389997 a0.555364 0.555364 -180 1 0 -1.03999 -0.389997 ZM2.06 413.01 a0.555364
									 0.555364 -180 1 0 1.03999 0.389997 a0.555364 0.555364 -180 1 0 -1.03999 -0.389997 ZM0.02 408.07
									 a0.555718 0.555718 -180 1 0 1.07482 0.282848 a0.555718 0.555718 -180 1 0 -1.07482 -0.282848
									 ZM0.02 409.72 a0.555718 0.555718 -180 1 0 1.06626 0.313605 a0.555718 0.555718 -180 1 0 -1.06626
									 -0.313605 ZM0.03 411.38 a0.555718 0.555718 -180 1 0 1.06083 0.331509 a0.555718 0.555718 -180
									 1 0 -1.06083 -0.331509 ZM0.03 413.04 a0.555718 0.555718 -180 1 0 1.06083 0.331509 a0.555718
									 0.555718 -180 1 0 -1.06083 -0.331509 Z" class="st3"/>
					</g>
				</g>
			</g>
			<g id="group17-36" transform="translate(344.633,0)" v:mID="17" v:groupContext="group">
				<title>Sheet.17</title>
				<g id="shape18-37" v:mID="18" v:groupContext="shape">
					<title>Rounded Rectangle</title>
					<v:userDefs>
						<v:ud v:nameU="CTypeTopLeftSnip" v:prompt="" v:val="VT0(0):5"/>
						<v:ud v:nameU="CTypeTopRightSnip" v:prompt="" v:val="VT0(0):5"/>
						<v:ud v:nameU="CTypeBotLeftSnip" v:prompt="" v:val="VT0(0):5"/>
						<v:ud v:nameU="CTypeBotRightSnip" v:prompt="" v:val="VT0(0):5"/>
						<v:ud v:nameU="CornerLockHoriz" v:prompt="" v:val="VT0(1):5"/>
						<v:ud v:nameU="CornerLockVert" v:prompt="" v:val="VT0(1):5"/>
						<v:ud v:nameU="CornerLockDiag" v:prompt="" v:val="VT0(0):5"/>
						<v:ud v:nameU="TopLeftOffset" v:prompt="" v:val="VT0(0.15748031496063):24"/>
						<v:ud v:nameU="TopRightOffset" v:prompt="" v:val="VT0(0.15748031496063):24"/>
						<v:ud v:nameU="BotLeftOffset" v:prompt="" v:val="VT0(0.15748031496063):24"/>
						<v:ud v:nameU="BotRightOffset" v:prompt="" v:val="VT0(0.15748031496063):24"/>
						<v:ud v:nameU="visVersion" v:prompt="" v:val="VT0(15):26"/>
						<v:ud v:nameU="TopLeftOffset" v:prompt="" v:val="VT0(0.14566929133858):1"/>
						<v:ud v:nameU="TopRightOffset" v:prompt="" v:val="VT0(0.14566929133858):1"/>
						<v:ud v:nameU="BotLeftOffset" v:prompt="" v:val="VT0(0.14566929133858):1"/>
						<v:ud v:nameU="BotRightOffset" v:prompt="" v:val="VT0(0.14566929133858):1"/>
					</v:userDefs>
					<path d="M10.49 413.76 L94.39 413.76 L94.39 413.76 A10.488 10.488 -180 0 0 104.88 403.28 L104.88 339.21 A10.488
								 10.488 -180 0 0 94.39 328.72 L94.39 328.72 L10.49 328.72 L10.49 328.72 A10.488 10.488 -180 0 0 0
								 339.21 L0 403.28 A10.488 10.488 -180 0 0 10.49 413.76 L10.49 413.76 Z" class="st1"/>
				</g>
				<g id="group19-39" transform="translate(42.5197,-8.50394)" v:mID="19" v:groupContext="group">
					<v:userDefs>
						<v:ud v:nameU="visVersion" v:prompt="" v:val="VT0(15):26"/>
						<v:ud v:nameU="ShapeClass" v:prompt="" v:val="VT0(5):26"/>
						<v:ud v:nameU="SolSH" v:prompt="" v:val="VT15({BF0433D9-CD73-4EB5-8390-8653BE590246}):41"/>
						<v:ud v:nameU="visLegendShape" v:prompt="" v:val="VT0(2):26"/>
					</v:userDefs>
					<title>User.21</title>
					<g id="shape20-40" v:mID="20" v:groupContext="shape" transform="translate(18.0575,0)">
						<title>Sheet.20</title>
						<path d="M26.29 351.71 A8.81 8.81 -180 1 0 8.67 351.71 A8.81 8.81 -180 1 0 26.29 351.71 ZM27.58 362.9 L7.17
									 362.9 C3.22 362.9 0 366.11 0 370.07 L0 395.07 L5.59 395.07 L5.59 380.52 L7.45 380.52 L7.45 413.76
									 L16.55 413.76 L16.55 398.9 C16.55 398.39 16.97 397.97 17.48 397.97 C18 397.97 18.42 398.39 18.42
									 398.9 L18.42 413.76 L28.04 413.76 L28.04 380.46 L29.91 380.46 L29.91 395.07 L34.75 395.07 L34.75
									 370.07 C34.75 366.11 31.54 362.9 27.58 362.9 Z" class="st2"/>
					</g>
				</g>
				<g id="group21-42" transform="translate(7.08661,-26.2205)" v:mID="21" v:groupContext="group">
					<v:userDefs>
						<v:ud v:nameU="visVersion" v:prompt="" v:val="VT0(15):26"/>
						<v:ud v:nameU="ShapeClass" v:prompt="" v:val="VT0(5):26"/>
						<v:ud v:nameU="SolSH" v:prompt="" v:val="VT15({BF0433D9-CD73-4EB5-8390-8653BE590246}):41"/>
						<v:ud v:nameU="visLegendShape" v:prompt="" v:val="VT0(2):26"/>
					</v:userDefs>
					<title>Mainframe</title>
					<g id="shape22-43" v:mID="22" v:groupContext="shape" transform="translate(2.84079,0)">
						<title>Sheet.22</title>
						<path d="M0 413.76 L29.75 413.76 L29.75 378.33 L0 378.33 L0 413.76 Z" class="st3"/>
						<path d="M0 413.76 L29.75 413.76 L29.75 378.33 L0 378.33 L0 413.76" class="st4"/>
						<path d="M14.88 413.76 L14.88 378.33" class="st4"/>
					</g>
					<g id="shape23-47" v:mID="23" v:groupContext="shape" transform="translate(5.78631,-2.57268)">
						<title>Sheet.23</title>
						<v:userDefs>
							<v:ud v:nameU="SurroundingRegionColor" v:prompt="" v:val="VT5(1)"/>
							<v:ud v:nameU="SurroundingRegionColor" v:prompt="" v:val="VT5(#774b04)"/>
						</v:userDefs>
						<path d="M18.05 391.84 L24.62 391.84 L24.62 384.32 L18.05 384.32 L18.05 391.84 ZM7.44 387.36 L8.34 387.36
									 L8.34 384.16 L7.44 384.16 L7.44 387.36 ZM7.44 391.98 L8.34 391.98 L8.34 388.78 L7.44 388.78
									 L7.44 391.98 ZM5.32 387.36 L6.21 387.36 L6.21 384.16 L5.32 384.16 L5.32 387.36 ZM5.32 391.98
									 L6.21 391.98 L6.21 388.78 L5.32 388.78 L5.32 391.98 ZM2.13 387.36 L3.02 387.36 L3.02 384.16
									 L2.13 384.16 L2.13 387.36 ZM2.13 391.98 L3.02 391.98 L3.02 388.78 L2.13 388.78 L2.13 391.98
									 ZM0 387.36 L0.9 387.36 L0.9 384.16 L0 384.16 L0 387.36 ZM0 391.98 L0.9 391.98 L0.9 388.78 L0
									 388.78 L0 391.98 ZM16.91 409.35 L16.91 409.97 L24.7 409.97 L24.7 409.35 L16.91 409.35 ZM16.91
									 411.24 L16.91 411.87 L24.7 411.87 L24.7 411.24 L16.91 411.24 ZM16.91 413.14 L16.91 413.76 L24.7
									 413.76 L24.7 413.14 L16.91 413.14 ZM1.48 409.97 L9.26 409.97 L9.26 409.35 L1.48 409.35 L1.48
									 409.97 ZM1.48 411.87 L9.26 411.87 L9.26 411.24 L1.48 411.24 L1.48 411.87 ZM1.48 413.76 L9.26
									 413.76 L9.26 413.14 L1.48 413.14 L1.48 413.76 Z" class="st5"/>
					</g>
					<g id="shape24-50" v:mID="24" v:groupContext="shape" transform="translate(24.5407,-25.203)">
						<title>Sheet.24</title>
						<path d="M4.08 408.02 a0.555364 0.555364 -180 1 0 1.04222 0.383977 a0.555364 0.555364 -180 1 0 -1.04222 -0.383977
									 ZM4.08 409.67 a0.555364 0.555364 -180 1 0 1.02705 0.422902 a0.555364 0.555364 -180 1 0 -1.02705
									 -0.422902 ZM4.09 411.32 a0.555364 0.555364 -180 1 0 1.01759 0.445194 a0.555364 0.555364 -180
									 1 0 -1.01759 -0.445194 ZM4.09 412.98 a0.555364 0.555364 -180 1 0 1.01759 0.445194 a0.555364
									 0.555364 -180 1 0 -1.01759 -0.445194 ZM2.05 408.05 a0.555364 0.555364 -180 1 0 1.05915 0.334468
									 a0.555364 0.555364 -180 1 0 -1.05915 -0.334468 ZM2.05 409.69 a0.555364 0.555364 -180 1 0 1.04739
									 0.369666 a0.555364 0.555364 -180 1 0 -1.04739 -0.369666 ZM2.06 411.35 a0.555364 0.555364 -180
									 1 0 1.03999 0.389997 a0.555364 0.555364 -180 1 0 -1.03999 -0.389997 ZM2.06 413.01 a0.555364
									 0.555364 -180 1 0 1.03999 0.389997 a0.555364 0.555364 -180 1 0 -1.03999 -0.389997 ZM0.02 408.07
									 a0.555718 0.555718 -180 1 0 1.07482 0.282848 a0.555718 0.555718 -180 1 0 -1.07482 -0.282848
									 ZM0.02 409.72 a0.555718 0.555718 -180 1 0 1.06626 0.313605 a0.555718 0.555718 -180 1 0 -1.06626
									 -0.313605 ZM0.03 411.38 a0.555718 0.555718 -180 1 0 1.06083 0.331509 a0.555718 0.555718 -180
									 1 0 -1.06083 -0.331509 ZM0.03 413.04 a0.555718 0.555718 -180 1 0 1.06083 0.331509 a0.555718
									 0.555718 -180 1 0 -1.06083 -0.331509 Z" class="st3"/>
					</g>
				</g>
			</g>
			<g id="group25-53" transform="translate(159.247,-314.079)" v:mID="25" v:groupContext="group">
				<title>Sheet.25</title>
				<g id="shape26-54" v:mID="26" v:groupContext="shape">
					<title>Rounded Rectangle</title>
					<v:userDefs>
						<v:ud v:nameU="CTypeTopLeftSnip" v:prompt="" v:val="VT0(0):5"/>
						<v:ud v:nameU="CTypeTopRightSnip" v:prompt="" v:val="VT0(0):5"/>
						<v:ud v:nameU="CTypeBotLeftSnip" v:prompt="" v:val="VT0(0):5"/>
						<v:ud v:nameU="CTypeBotRightSnip" v:prompt="" v:val="VT0(0):5"/>
						<v:ud v:nameU="CornerLockHoriz" v:prompt="" v:val="VT0(1):5"/>
						<v:ud v:nameU="CornerLockVert" v:prompt="" v:val="VT0(1):5"/>
						<v:ud v:nameU="CornerLockDiag" v:prompt="" v:val="VT0(0):5"/>
						<v:ud v:nameU="TopLeftOffset" v:prompt="" v:val="VT0(0.15748031496063):24"/>
						<v:ud v:nameU="TopRightOffset" v:prompt="" v:val="VT0(0.15748031496063):24"/>
						<v:ud v:nameU="BotLeftOffset" v:prompt="" v:val="VT0(0.15748031496063):24"/>
						<v:ud v:nameU="BotRightOffset" v:prompt="" v:val="VT0(0.15748031496063):24"/>
						<v:ud v:nameU="visVersion" v:prompt="" v:val="VT0(15):26"/>
						<v:ud v:nameU="TopLeftOffset" v:prompt="" v:val="VT0(0.14566929133858):1"/>
						<v:ud v:nameU="TopRightOffset" v:prompt="" v:val="VT0(0.14566929133858):1"/>
						<v:ud v:nameU="BotLeftOffset" v:prompt="" v:val="VT0(0.14566929133858):1"/>
						<v:ud v:nameU="BotRightOffset" v:prompt="" v:val="VT0(0.14566929133858):1"/>
					</v:userDefs>
					<path d="M10.49 413.76 L94.39 413.76 L94.39 413.76 A10.488 10.488 -180 0 0 104.88 403.28 L104.88 339.21 A10.488
								 10.488 -180 0 0 94.39 328.72 L94.39 328.72 L10.49 328.72 L10.49 328.72 A10.488 10.488 -180 0 0 0
								 339.21 L0 403.28 A10.488 10.488 -180 0 0 10.49 413.76 L10.49 413.76 Z" class="st1"/>
				</g>
				<g id="group27-56" transform="translate(42.5197,-8.50394)" v:mID="27" v:groupContext="group">
					<v:userDefs>
						<v:ud v:nameU="visVersion" v:prompt="" v:val="VT0(15):26"/>
						<v:ud v:nameU="ShapeClass" v:prompt="" v:val="VT0(5):26"/>
						<v:ud v:nameU="SolSH" v:prompt="" v:val="VT15({BF0433D9-CD73-4EB5-8390-8653BE590246}):41"/>
						<v:ud v:nameU="visLegendShape" v:prompt="" v:val="VT0(2):26"/>
					</v:userDefs>
					<title>User.21</title>
					<g id="shape28-57" v:mID="28" v:groupContext="shape" transform="translate(18.0575,0)">
						<title>Sheet.28</title>
						<path d="M26.29 351.71 A8.81 8.81 -180 1 0 8.67 351.71 A8.81 8.81 -180 1 0 26.29 351.71 ZM27.58 362.9 L7.17
									 362.9 C3.22 362.9 0 366.11 0 370.07 L0 395.07 L5.59 395.07 L5.59 380.52 L7.45 380.52 L7.45 413.76
									 L16.55 413.76 L16.55 398.9 C16.55 398.39 16.97 397.97 17.48 397.97 C18 397.97 18.42 398.39 18.42
									 398.9 L18.42 413.76 L28.04 413.76 L28.04 380.46 L29.91 380.46 L29.91 395.07 L34.75 395.07 L34.75
									 370.07 C34.75 366.11 31.54 362.9 27.58 362.9 Z" class="st2"/>
					</g>
				</g>
				<g id="group29-59" transform="translate(7.08661,-26.2205)" v:mID="29" v:groupContext="group">
					<v:userDefs>
						<v:ud v:nameU="visVersion" v:prompt="" v:val="VT0(15):26"/>
						<v:ud v:nameU="ShapeClass" v:prompt="" v:val="VT0(5):26"/>
						<v:ud v:nameU="SolSH" v:prompt="" v:val="VT15({BF0433D9-CD73-4EB5-8390-8653BE590246}):41"/>
						<v:ud v:nameU="visLegendShape" v:prompt="" v:val="VT0(2):26"/>
					</v:userDefs>
					<title>Mainframe</title>
					<g id="shape30-60" v:mID="30" v:groupContext="shape" transform="translate(2.84079,0)">
						<title>Sheet.30</title>
						<path d="M0 413.76 L29.75 413.76 L29.75 378.33 L0 378.33 L0 413.76 Z" class="st3"/>
						<path d="M0 413.76 L29.75 413.76 L29.75 378.33 L0 378.33 L0 413.76" class="st4"/>
						<path d="M14.88 413.76 L14.88 378.33" class="st4"/>
					</g>
					<g id="shape31-64" v:mID="31" v:groupContext="shape" transform="translate(5.78631,-2.57268)">
						<title>Sheet.31</title>
						<v:userDefs>
							<v:ud v:nameU="SurroundingRegionColor" v:prompt="" v:val="VT5(1)"/>
							<v:ud v:nameU="SurroundingRegionColor" v:prompt="" v:val="VT5(#774b04)"/>
						</v:userDefs>
						<path d="M18.05 391.84 L24.62 391.84 L24.62 384.32 L18.05 384.32 L18.05 391.84 ZM7.44 387.36 L8.34 387.36
									 L8.34 384.16 L7.44 384.16 L7.44 387.36 ZM7.44 391.98 L8.34 391.98 L8.34 388.78 L7.44 388.78
									 L7.44 391.98 ZM5.32 387.36 L6.21 387.36 L6.21 384.16 L5.32 384.16 L5.32 387.36 ZM5.32 391.98
									 L6.21 391.98 L6.21 388.78 L5.32 388.78 L5.32 391.98 ZM2.13 387.36 L3.02 387.36 L3.02 384.16
									 L2.13 384.16 L2.13 387.36 ZM2.13 391.98 L3.02 391.98 L3.02 388.78 L2.13 388.78 L2.13 391.98
									 ZM0 387.36 L0.9 387.36 L0.9 384.16 L0 384.16 L0 387.36 ZM0 391.98 L0.9 391.98 L0.9 388.78 L0
									 388.78 L0 391.98 ZM16.91 409.35 L16.91 409.97 L24.7 409.97 L24.7 409.35 L16.91 409.35 ZM16.91
									 411.24 L16.91 411.87 L24.7 411.87 L24.7 411.24 L16.91 411.24 ZM16.91 413.14 L16.91 413.76 L24.7
									 413.76 L24.7 413.14 L16.91 413.14 ZM1.48 409.97 L9.26 409.97 L9.26 409.35 L1.48 409.35 L1.48
									 409.97 ZM1.48 411.87 L9.26 411.87 L9.26 411.24 L1.48 411.24 L1.48 411.87 ZM1.48 413.76 L9.26
									 413.76 L9.26 413.14 L1.48 413.14 L1.48 413.76 Z" class="st5"/>
					</g>
					<g id="shape32-67" v:mID="32" v:groupContext="shape" transform="translate(24.5407,-25.203)">
						<title>Sheet.32</title>
						<path d="M4.08 408.02 a0.555364 0.555364 -180 1 0 1.04222 0.383977 a0.555364 0.555364 -180 1 0 -1.04222 -0.383977
									 ZM4.08 409.67 a0.555364 0.555364 -180 1 0 1.02705 0.422902 a0.555364 0.555364 -180 1 0 -1.02705
									 -0.422902 ZM4.09 411.32 a0.555364 0.555364 -180 1 0 1.01759 0.445194 a0.555364 0.555364 -180
									 1 0 -1.01759 -0.445194 ZM4.09 412.98 a0.555364 0.555364 -180 1 0 1.01759 0.445194 a0.555364
									 0.555364 -180 1 0 -1.01759 -0.445194 ZM2.05 408.05 a0.555364 0.555364 -180 1 0 1.05915 0.334468
									 a0.555364 0.555364 -180 1 0 -1.05915 -0.334468 ZM2.05 409.69 a0.555364 0.555364 -180 1 0 1.04739
									 0.369666 a0.555364 0.555364 -180 1 0 -1.04739 -0.369666 ZM2.06 411.35 a0.555364 0.555364 -180
									 1 0 1.03999 0.389997 a0.555364 0.555364 -180 1 0 -1.03999 -0.389997 ZM2.06 413.01 a0.555364
									 0.555364 -180 1 0 1.03999 0.389997 a0.555364 0.555364 -180 1 0 -1.03999 -0.389997 ZM0.02 408.07
									 a0.555718 0.555718 -180 1 0 1.07482 0.282848 a0.555718 0.555718 -180 1 0 -1.07482 -0.282848
									 ZM0.02 409.72 a0.555718 0.555718 -180 1 0 1.06626 0.313605 a0.555718 0.555718 -180 1 0 -1.06626
									 -0.313605 ZM0.03 411.38 a0.555718 0.555718 -180 1 0 1.06083 0.331509 a0.555718 0.555718 -180
									 1 0 -1.06083 -0.331509 ZM0.03 413.04 a0.555718 0.555718 -180 1 0 1.06083 0.331509 a0.555718
									 0.555718 -180 1 0 -1.06083 -0.331509 Z" class="st3"/>
					</g>
				</g>
			</g>
			<g id="group33-70" transform="translate(3.19744E-014,-157.039)" v:mID="33" v:groupContext="group">
				<title>Sheet.33</title>
				<g id="shape34-71" v:mID="34" v:groupContext="shape">
					<title>Rounded Rectangle</title>
					<v:userDefs>
						<v:ud v:nameU="CTypeTopLeftSnip" v:prompt="" v:val="VT0(0):5"/>
						<v:ud v:nameU="CTypeTopRightSnip" v:prompt="" v:val="VT0(0):5"/>
						<v:ud v:nameU="CTypeBotLeftSnip" v:prompt="" v:val="VT0(0):5"/>
						<v:ud v:nameU="CTypeBotRightSnip" v:prompt="" v:val="VT0(0):5"/>
						<v:ud v:nameU="CornerLockHoriz" v:prompt="" v:val="VT0(1):5"/>
						<v:ud v:nameU="CornerLockVert" v:prompt="" v:val="VT0(1):5"/>
						<v:ud v:nameU="CornerLockDiag" v:prompt="" v:val="VT0(0):5"/>
						<v:ud v:nameU="TopLeftOffset" v:prompt="" v:val="VT0(0.15748031496063):24"/>
						<v:ud v:nameU="TopRightOffset" v:prompt="" v:val="VT0(0.15748031496063):24"/>
						<v:ud v:nameU="BotLeftOffset" v:prompt="" v:val="VT0(0.15748031496063):24"/>
						<v:ud v:nameU="BotRightOffset" v:prompt="" v:val="VT0(0.15748031496063):24"/>
						<v:ud v:nameU="visVersion" v:prompt="" v:val="VT0(15):26"/>
						<v:ud v:nameU="TopLeftOffset" v:prompt="" v:val="VT0(0.14566929133858):1"/>
						<v:ud v:nameU="TopRightOffset" v:prompt="" v:val="VT0(0.14566929133858):1"/>
						<v:ud v:nameU="BotLeftOffset" v:prompt="" v:val="VT0(0.14566929133858):1"/>
						<v:ud v:nameU="BotRightOffset" v:prompt="" v:val="VT0(0.14566929133858):1"/>
					</v:userDefs>
					<path d="M10.49 413.76 L94.39 413.76 L94.39 413.76 A10.488 10.488 -180 0 0 104.88 403.28 L104.88 339.21 A10.488
								 10.488 -180 0 0 94.39 328.72 L94.39 328.72 L10.49 328.72 L10.49 328.72 A10.488 10.488 -180 0 0 0
								 339.21 L0 403.28 A10.488 10.488 -180 0 0 10.49 413.76 L10.49 413.76 Z" class="st1"/>
				</g>
				<g id="group35-73" transform="translate(42.5197,-8.50394)" v:mID="35" v:groupContext="group">
					<v:userDefs>
						<v:ud v:nameU="visVersion" v:prompt="" v:val="VT0(15):26"/>
						<v:ud v:nameU="ShapeClass" v:prompt="" v:val="VT0(5):26"/>
						<v:ud v:nameU="SolSH" v:prompt="" v:val="VT15({BF0433D9-CD73-4EB5-8390-8653BE590246}):41"/>
						<v:ud v:nameU="visLegendShape" v:prompt="" v:val="VT0(2):26"/>
					</v:userDefs>
					<title>User.21</title>
					<g id="shape36-74" v:mID="36" v:groupContext="shape" transform="translate(18.0575,0)">
						<title>Sheet.36</title>
						<path d="M26.29 351.71 A8.81 8.81 -180 1 0 8.67 351.71 A8.81 8.81 -180 1 0 26.29 351.71 ZM27.58 362.9 L7.17
									 362.9 C3.22 362.9 0 366.11 0 370.07 L0 395.07 L5.59 395.07 L5.59 380.52 L7.45 380.52 L7.45 413.76
									 L16.55 413.76 L16.55 398.9 C16.55 398.39 16.97 397.97 17.48 397.97 C18 397.97 18.42 398.39 18.42
									 398.9 L18.42 413.76 L28.04 413.76 L28.04 380.46 L29.91 380.46 L29.91 395.07 L34.75 395.07 L34.75
									 370.07 C34.75 366.11 31.54 362.9 27.58 362.9 Z" class="st2"/>
					</g>
				</g>
				<g id="group37-76" transform="translate(7.08661,-26.2205)" v:mID="37" v:groupContext="group">
					<v:userDefs>
						<v:ud v:nameU="visVersion" v:prompt="" v:val="VT0(15):26"/>
						<v:ud v:nameU="ShapeClass" v:prompt="" v:val="VT0(5):26"/>
						<v:ud v:nameU="SolSH" v:prompt="" v:val="VT15({BF0433D9-CD73-4EB5-8390-8653BE590246}):41"/>
						<v:ud v:nameU="visLegendShape" v:prompt="" v:val="VT0(2):26"/>
					</v:userDefs>
					<title>Mainframe</title>
					<g id="shape38-77" v:mID="38" v:groupContext="shape" transform="translate(2.84079,0)">
						<title>Sheet.38</title>
						<path d="M0 413.76 L29.75 413.76 L29.75 378.33 L0 378.33 L0 413.76 Z" class="st3"/>
						<path d="M0 413.76 L29.75 413.76 L29.75 378.33 L0 378.33 L0 413.76" class="st4"/>
						<path d="M14.88 413.76 L14.88 378.33" class="st4"/>
					</g>
					<g id="shape39-81" v:mID="39" v:groupContext="shape" transform="translate(5.78631,-2.57268)">
						<title>Sheet.39</title>
						<v:userDefs>
							<v:ud v:nameU="SurroundingRegionColor" v:prompt="" v:val="VT5(1)"/>
							<v:ud v:nameU="SurroundingRegionColor" v:prompt="" v:val="VT5(#774b04)"/>
						</v:userDefs>
						<path d="M18.05 391.84 L24.62 391.84 L24.62 384.32 L18.05 384.32 L18.05 391.84 ZM7.44 387.36 L8.34 387.36
									 L8.34 384.16 L7.44 384.16 L7.44 387.36 ZM7.44 391.98 L8.34 391.98 L8.34 388.78 L7.44 388.78
									 L7.44 391.98 ZM5.32 387.36 L6.21 387.36 L6.21 384.16 L5.32 384.16 L5.32 387.36 ZM5.32 391.98
									 L6.21 391.98 L6.21 388.78 L5.32 388.78 L5.32 391.98 ZM2.13 387.36 L3.02 387.36 L3.02 384.16
									 L2.13 384.16 L2.13 387.36 ZM2.13 391.98 L3.02 391.98 L3.02 388.78 L2.13 388.78 L2.13 391.98
									 ZM0 387.36 L0.9 387.36 L0.9 384.16 L0 384.16 L0 387.36 ZM0 391.98 L0.9 391.98 L0.9 388.78 L0
									 388.78 L0 391.98 ZM16.91 409.35 L16.91 409.97 L24.7 409.97 L24.7 409.35 L16.91 409.35 ZM16.91
									 411.24 L16.91 411.87 L24.7 411.87 L24.7 411.24 L16.91 411.24 ZM16.91 413.14 L16.91 413.76 L24.7
									 413.76 L24.7 413.14 L16.91 413.14 ZM1.48 409.97 L9.26 409.97 L9.26 409.35 L1.48 409.35 L1.48
									 409.97 ZM1.48 411.87 L9.26 411.87 L9.26 411.24 L1.48 411.24 L1.48 411.87 ZM1.48 413.76 L9.26
									 413.76 L9.26 413.14 L1.48 413.14 L1.48 413.76 Z" class="st5"/>
					</g>
					<g id="shape40-84" v:mID="40" v:groupContext="shape" transform="translate(24.5407,-25.203)">
						<title>Sheet.40</title>
						<path d="M4.08 408.02 a0.555364 0.555364 -180 1 0 1.04222 0.383977 a0.555364 0.555364 -180 1 0 -1.04222 -0.383977
									 ZM4.08 409.67 a0.555364 0.555364 -180 1 0 1.02705 0.422902 a0.555364 0.555364 -180 1 0 -1.02705
									 -0.422902 ZM4.09 411.32 a0.555364 0.555364 -180 1 0 1.01759 0.445194 a0.555364 0.555364 -180
									 1 0 -1.01759 -0.445194 ZM4.09 412.98 a0.555364 0.555364 -180 1 0 1.01759 0.445194 a0.555364
									 0.555364 -180 1 0 -1.01759 -0.445194 ZM2.05 408.05 a0.555364 0.555364 -180 1 0 1.05915 0.334468
									 a0.555364 0.555364 -180 1 0 -1.05915 -0.334468 ZM2.05 409.69 a0.555364 0.555364 -180 1 0 1.04739
									 0.369666 a0.555364 0.555364 -180 1 0 -1.04739 -0.369666 ZM2.06 411.35 a0.555364 0.555364 -180
									 1 0 1.03999 0.389997 a0.555364 0.555364 -180 1 0 -1.03999 -0.389997 ZM2.06 413.01 a0.555364
									 0.555364 -180 1 0 1.03999 0.389997 a0.555364 0.555364 -180 1 0 -1.03999 -0.389997 ZM0.02 408.07
									 a0.555718 0.555718 -180 1 0 1.07482 0.282848 a0.555718 0.555718 -180 1 0 -1.07482 -0.282848
									 ZM0.02 409.72 a0.555718 0.555718 -180 1 0 1.06626 0.313605 a0.555718 0.555718 -180 1 0 -1.06626
									 -0.313605 ZM0.03 411.38 a0.555718 0.555718 -180 1 0 1.06083 0.331509 a0.555718 0.555718 -180
									 1 0 -1.06083 -0.331509 ZM0.03 413.04 a0.555718 0.555718 -180 1 0 1.06083 0.331509 a0.555718
									 0.555718 -180 1 0 -1.06083 -0.331509 Z" class="st3"/>
					</g>
				</g>
			</g>
			<g id="group41-87" transform="translate(159.247,0)" v:mID="41" v:groupContext="group">
				<title>Sheet.41</title>
				<g id="shape42-88" v:mID="42" v:groupContext="shape">
					<title>Rounded Rectangle</title>
					<v:userDefs>
						<v:ud v:nameU="CTypeTopLeftSnip" v:prompt="" v:val="VT0(0):5"/>
						<v:ud v:nameU="CTypeTopRightSnip" v:prompt="" v:val="VT0(0):5"/>
						<v:ud v:nameU="CTypeBotLeftSnip" v:prompt="" v:val="VT0(0):5"/>
						<v:ud v:nameU="CTypeBotRightSnip" v:prompt="" v:val="VT0(0):5"/>
						<v:ud v:nameU="CornerLockHoriz" v:prompt="" v:val="VT0(1):5"/>
						<v:ud v:nameU="CornerLockVert" v:prompt="" v:val="VT0(1):5"/>
						<v:ud v:nameU="CornerLockDiag" v:prompt="" v:val="VT0(0):5"/>
						<v:ud v:nameU="TopLeftOffset" v:prompt="" v:val="VT0(0.15748031496063):24"/>
						<v:ud v:nameU="TopRightOffset" v:prompt="" v:val="VT0(0.15748031496063):24"/>
						<v:ud v:nameU="BotLeftOffset" v:prompt="" v:val="VT0(0.15748031496063):24"/>
						<v:ud v:nameU="BotRightOffset" v:prompt="" v:val="VT0(0.15748031496063):24"/>
						<v:ud v:nameU="visVersion" v:prompt="" v:val="VT0(15):26"/>
						<v:ud v:nameU="TopLeftOffset" v:prompt="" v:val="VT0(0.14566929133858):1"/>
						<v:ud v:nameU="TopRightOffset" v:prompt="" v:val="VT0(0.14566929133858):1"/>
						<v:ud v:nameU="BotLeftOffset" v:prompt="" v:val="VT0(0.14566929133858):1"/>
						<v:ud v:nameU="BotRightOffset" v:prompt="" v:val="VT0(0.14566929133858):1"/>
					</v:userDefs>
					<path d="M10.49 413.76 L94.39 413.76 L94.39 413.76 A10.488 10.488 -180 0 0 104.88 403.28 L104.88 339.21 A10.488
								 10.488 -180 0 0 94.39 328.72 L94.39 328.72 L10.49 328.72 L10.49 328.72 A10.488 10.488 -180 0 0 0
								 339.21 L0 403.28 A10.488 10.488 -180 0 0 10.49 413.76 L10.49 413.76 Z" class="st1"/>
				</g>
				<g id="group43-90" transform="translate(42.5197,-8.50394)" v:mID="43" v:groupContext="group">
					<v:userDefs>
						<v:ud v:nameU="visVersion" v:prompt="" v:val="VT0(15):26"/>
						<v:ud v:nameU="ShapeClass" v:prompt="" v:val="VT0(5):26"/>
						<v:ud v:nameU="SolSH" v:prompt="" v:val="VT15({BF0433D9-CD73-4EB5-8390-8653BE590246}):41"/>
						<v:ud v:nameU="visLegendShape" v:prompt="" v:val="VT0(2):26"/>
					</v:userDefs>
					<title>User.21</title>
					<g id="shape44-91" v:mID="44" v:groupContext="shape" transform="translate(18.0575,0)">
						<title>Sheet.44</title>
						<path d="M26.29 351.71 A8.81 8.81 -180 1 0 8.67 351.71 A8.81 8.81 -180 1 0 26.29 351.71 ZM27.58 362.9 L7.17
									 362.9 C3.22 362.9 0 366.11 0 370.07 L0 395.07 L5.59 395.07 L5.59 380.52 L7.45 380.52 L7.45 413.76
									 L16.55 413.76 L16.55 398.9 C16.55 398.39 16.97 397.97 17.48 397.97 C18 397.97 18.42 398.39 18.42
									 398.9 L18.42 413.76 L28.04 413.76 L28.04 380.46 L29.91 380.46 L29.91 395.07 L34.75 395.07 L34.75
									 370.07 C34.75 366.11 31.54 362.9 27.58 362.9 Z" class="st2"/>
					</g>
				</g>
				<g id="group45-93" transform="translate(7.08661,-26.2205)" v:mID="45" v:groupContext="group">
					<v:userDefs>
						<v:ud v:nameU="visVersion" v:prompt="" v:val="VT0(15):26"/>
						<v:ud v:nameU="ShapeClass" v:prompt="" v:val="VT0(5):26"/>
						<v:ud v:nameU="SolSH" v:prompt="" v:val="VT15({BF0433D9-CD73-4EB5-8390-8653BE590246}):41"/>
						<v:ud v:nameU="visLegendShape" v:prompt="" v:val="VT0(2):26"/>
					</v:userDefs>
					<title>Mainframe</title>
					<g id="shape46-94" v:mID="46" v:groupContext="shape" transform="translate(2.84079,0)">
						<title>Sheet.46</title>
						<path d="M0 413.76 L29.75 413.76 L29.75 378.33 L0 378.33 L0 413.76 Z" class="st3"/>
						<path d="M0 413.76 L29.75 413.76 L29.75 378.33 L0 378.33 L0 413.76" class="st4"/>
						<path d="M14.88 413.76 L14.88 378.33" class="st4"/>
					</g>
					<g id="shape47-98" v:mID="47" v:groupContext="shape" transform="translate(5.78631,-2.57268)">
						<title>Sheet.47</title>
						<v:userDefs>
							<v:ud v:nameU="SurroundingRegionColor" v:prompt="" v:val="VT5(1)"/>
							<v:ud v:nameU="SurroundingRegionColor" v:prompt="" v:val="VT5(#774b04)"/>
						</v:userDefs>
						<path d="M18.05 391.84 L24.62 391.84 L24.62 384.32 L18.05 384.32 L18.05 391.84 ZM7.44 387.36 L8.34 387.36
									 L8.34 384.16 L7.44 384.16 L7.44 387.36 ZM7.44 391.98 L8.34 391.98 L8.34 388.78 L7.44 388.78
									 L7.44 391.98 ZM5.32 387.36 L6.21 387.36 L6.21 384.16 L5.32 384.16 L5.32 387.36 ZM5.32 391.98
									 L6.21 391.98 L6.21 388.78 L5.32 388.78 L5.32 391.98 ZM2.13 387.36 L3.02 387.36 L3.02 384.16
									 L2.13 384.16 L2.13 387.36 ZM2.13 391.98 L3.02 391.98 L3.02 388.78 L2.13 388.78 L2.13 391.98
									 ZM0 387.36 L0.9 387.36 L0.9 384.16 L0 384.16 L0 387.36 ZM0 391.98 L0.9 391.98 L0.9 388.78 L0
									 388.78 L0 391.98 ZM16.91 409.35 L16.91 409.97 L24.7 409.97 L24.7 409.35 L16.91 409.35 ZM16.91
									 411.24 L16.91 411.87 L24.7 411.87 L24.7 411.24 L16.91 411.24 ZM16.91 413.14 L16.91 413.76 L24.7
									 413.76 L24.7 413.14 L16.91 413.14 ZM1.48 409.97 L9.26 409.97 L9.26 409.35 L1.48 409.35 L1.48
									 409.97 ZM1.48 411.87 L9.26 411.87 L9.26 411.24 L1.48 411.24 L1.48 411.87 ZM1.48 413.76 L9.26
									 413.76 L9.26 413.14 L1.48 413.14 L1.48 413.76 Z" class="st5"/>
					</g>
					<g id="shape48-101" v:mID="48" v:groupContext="shape" transform="translate(24.5407,-25.203)">
						<title>Sheet.48</title>
						<path d="M4.08 408.02 a0.555364 0.555364 -180 1 0 1.04222 0.383977 a0.555364 0.555364 -180 1 0 -1.04222 -0.383977
									 ZM4.08 409.67 a0.555364 0.555364 -180 1 0 1.02705 0.422902 a0.555364 0.555364 -180 1 0 -1.02705
									 -0.422902 ZM4.09 411.32 a0.555364 0.555364 -180 1 0 1.01759 0.445194 a0.555364 0.555364 -180
									 1 0 -1.01759 -0.445194 ZM4.09 412.98 a0.555364 0.555364 -180 1 0 1.01759 0.445194 a0.555364
									 0.555364 -180 1 0 -1.01759 -0.445194 ZM2.05 408.05 a0.555364 0.555364 -180 1 0 1.05915 0.334468
									 a0.555364 0.555364 -180 1 0 -1.05915 -0.334468 ZM2.05 409.69 a0.555364 0.555364 -180 1 0 1.04739
									 0.369666 a0.555364 0.555364 -180 1 0 -1.04739 -0.369666 ZM2.06 411.35 a0.555364 0.555364 -180
									 1 0 1.03999 0.389997 a0.555364 0.555364 -180 1 0 -1.03999 -0.389997 ZM2.06 413.01 a0.555364
									 0.555364 -180 1 0 1.03999 0.389997 a0.555364 0.555364 -180 1 0 -1.03999 -0.389997 ZM0.02 408.07
									 a0.555718 0.555718 -180 1 0 1.07482 0.282848 a0.555718 0.555718 -180 1 0 -1.07482 -0.282848
									 ZM0.02 409.72 a0.555718 0.555718 -180 1 0 1.06626 0.313605 a0.555718 0.555718 -180 1 0 -1.06626
									 -0.313605 ZM0.03 411.38 a0.555718 0.555718 -180 1 0 1.06083 0.331509 a0.555718 0.555718 -180
									 1 0 -1.06083 -0.331509 ZM0.03 413.04 a0.555718 0.555718 -180 1 0 1.06083 0.331509 a0.555718
									 0.555718 -180 1 0 -1.06083 -0.331509 Z" class="st3"/>
					</g>
				</g>
			</g>
			<g id="shape49-104" v:mID="49" v:groupContext="shape" transform="translate(-250.147,-110.522) rotate(-46.996)">
				<title>Simple Double Arrow</title>
				<v:userDefs>
					<v:ud v:nameU="visVersion" v:val="VT0(15):26"/>
					<v:ud v:nameU="ArrowType" v:prompt="" v:val="VT0(3):26"/>
				</v:userDefs>
				<path d="M0 413.76 L9.92 408.09 L9.92 410.93 L146.67 410.93 L146.67 410.93 L146.67 408.09 L156.6 413.76 L146.67 419.43
							 L146.67 416.6 L146.67 416.6 L9.92 416.6 L9.92 419.43 L0 413.76 Z" class="st2"/>
			</g>
			<g id="shape50-106" v:mID="50" v:groupContext="shape" transform="translate(355.029,-25.4831) rotate(46.996)">
				<title>Simple Double Arrow.50</title>
				<v:userDefs>
					<v:ud v:nameU="visVersion" v:val="VT0(15):26"/>
					<v:ud v:nameU="ArrowType" v:prompt="" v:val="VT0(3):26"/>
				</v:userDefs>
				<path d="M0 413.76 L9.92 408.09 L9.92 410.93 L146.67 410.93 L146.67 410.93 L146.67 408.09 L156.6 413.76 L146.67 419.43
							 L146.67 416.6 L146.67 416.6 L9.92 416.6 L9.92 419.43 L0 413.76 Z" class="st2"/>
			</g>
			<g id="shape51-108" v:mID="51" v:groupContext="shape" transform="translate(264.129,-356.598)">
				<title>Simple Double Arrow.51</title>
				<v:userDefs>
					<v:ud v:nameU="visVersion" v:val="VT0(15):26"/>
					<v:ud v:nameU="ArrowType" v:prompt="" v:val="VT0(3):26"/>
				</v:userDefs>
				<path d="M0 413.76 L9.92 408.09 L9.92 410.93 L70.58 410.93 L70.58 410.93 L70.58 408.09 L80.5 413.76 L70.58 419.43
							 L70.58 416.6 L70.58 416.6 L9.92 416.6 L9.92 419.43 L0 413.76 Z" class="st2"/>
			</g>
			<g id="shape52-110" v:mID="52" v:groupContext="shape" transform="translate(173.324,393.834) rotate(-122.473)">
				<title>Simple Double Arrow.52</title>
				<v:userDefs>
					<v:ud v:nameU="visVersion" v:val="VT0(15):26"/>
					<v:ud v:nameU="ArrowType" v:prompt="" v:val="VT0(3):26"/>
				</v:userDefs>
				<path d="M0 413.76 L9.92 408.09 L9.92 410.93 L125.82 410.93 L125.82 410.93 L125.82 408.09 L135.74 413.76 L125.82
							 419.43 L125.82 416.6 L125.82 416.6 L9.92 416.6 L9.92 419.43 L0 413.76 Z" class="st2"/>
			</g>
			<g id="shape53-112" v:mID="53" v:groupContext="shape" transform="translate(100.444,149.096) rotate(-57.5274)">
				<title>Simple Double Arrow.53</title>
				<v:userDefs>
					<v:ud v:nameU="visVersion" v:val="VT0(15):26"/>
					<v:ud v:nameU="ArrowType" v:prompt="" v:val="VT0(3):26"/>
				</v:userDefs>
				<path d="M0 413.76 L9.92 408.09 L9.92 410.93 L125.82 410.93 L125.82 410.93 L125.82 408.09 L135.74 413.76 L125.82
							 419.43 L125.82 416.6 L125.82 416.6 L9.92 416.6 L9.92 419.43 L0 413.76 Z" class="st2"/>
			</g>
			<g id="shape54-114" v:mID="54" v:groupContext="shape" transform="translate(264.129,-42.5197)">
				<title>Simple Double Arrow.54</title>
				<v:userDefs>
					<v:ud v:nameU="visVersion" v:val="VT0(15):26"/>
					<v:ud v:nameU="ArrowType" v:prompt="" v:val="VT0(3):26"/>
				</v:userDefs>
				<path d="M0 413.76 L9.92 408.09 L9.92 410.93 L70.58 410.93 L70.58 410.93 L70.58 408.09 L80.5 413.76 L70.58 419.43
							 L70.58 416.6 L70.58 416.6 L9.92 416.6 L9.92 419.43 L0 413.76 Z" class="st2"/>
			</g>
			<g id="shape55-116" v:mID="55" v:groupContext="shape" transform="translate(104.882,-199.559)">
				<title>Simple Double Arrow.55</title>
				<v:userDefs>
					<v:ud v:nameU="visVersion" v:val="VT0(15):26"/>
					<v:ud v:nameU="ArrowType" v:prompt="" v:val="VT0(3):26"/>
				</v:userDefs>
				<path d="M0 413.76 L9.92 408.09 L9.92 410.93 L355.15 410.93 L355.15 410.93 L355.15 408.09 L365.07 413.76 L355.15
							 419.43 L355.15 416.6 L355.15 416.6 L9.92 416.6 L9.92 419.43 L0 413.76 Z" class="st2"/>
			</g>
			<g id="shape56-118" v:mID="56" v:groupContext="shape" transform="translate(-109.926,68.408) rotate(-51.0131)">
				<title>Simple Double Arrow.56</title>
				<v:userDefs>
					<v:ud v:nameU="visVersion" v:val="VT0(15):26"/>
					<v:ud v:nameU="ArrowType" v:prompt="" v:val="VT0(3):26"/>
				</v:userDefs>
				<path d="M0 413.76 L9.92 408.09 L9.92 410.93 L284.74 410.93 L284.74 410.93 L284.74 408.09 L294.66 413.76 L284.74
							 419.43 L284.74 416.6 L284.74 416.6 L9.92 416.6 L9.92 419.43 L0 413.76 Z" class="st2"/>
			</g>
			<g id="shape57-120" v:mID="57" v:groupContext="shape" transform="translate(75.4596,589.042) rotate(-128.987)">
				<title>Simple Double Arrow.57</title>
				<v:userDefs>
					<v:ud v:nameU="visVersion" v:val="VT0(15):26"/>
					<v:ud v:nameU="ArrowType" v:prompt="" v:val="VT0(3):26"/>
				</v:userDefs>
				<path d="M0 413.76 L9.92 408.09 L9.92 410.93 L284.74 410.93 L284.74 410.93 L284.74 408.09 L294.66 413.76 L284.74
							 419.43 L284.74 416.6 L284.74 416.6 L9.92 416.6 L9.92 419.43 L0 413.76 Z" class="st2"/>
			</g>
			<g id="shape58-122" v:mID="58" v:groupContext="shape" transform="translate(-202.076,328.725) rotate(-90)">
				<title>Simple Double Arrow.58</title>
				<v:userDefs>
					<v:ud v:nameU="visVersion" v:val="VT0(15):26"/>
					<v:ud v:nameU="ArrowType" v:prompt="" v:val="VT0(3):26"/>
				</v:userDefs>
				<path d="M0 413.76 L9.92 408.09 L9.92 410.93 L219.12 410.93 L219.12 410.93 L219.12 408.09 L229.04 413.76 L219.12
							 419.43 L219.12 416.6 L219.12 416.6 L9.92 416.6 L9.92 419.43 L0 413.76 Z" class="st2"/>
			</g>
			<g id="shape59-124" v:mID="59" v:groupContext="shape" transform="translate(-16.69,328.725) rotate(-90)">
				<title>Simple Double Arrow.59</title>
				<v:userDefs>
					<v:ud v:nameU="visVersion" v:val="VT0(15):26"/>
					<v:ud v:nameU="ArrowType" v:prompt="" v:val="VT0(3):26"/>
				</v:userDefs>
				<path d="M0 413.76 L9.92 408.09 L9.92 410.93 L219.12 410.93 L219.12 410.93 L219.12 408.09 L229.04 413.76 L219.12
							 419.43 L219.12 416.6 L219.12 416.6 L9.92 416.6 L9.92 419.43 L0 413.76 Z" class="st2"/>
			</g>
		</g>
	</g>
</svg>
