<?xml version="1.0" encoding="UTF-8" standalone="no"?>
<!DOCTYPE svg PUBLIC "-//W3C//DTD SVG 1.1//EN" "http://www.w3.org/Graphics/SVG/1.1/DTD/svg11.dtd">
<!-- Generated by Microsoft Visio, SVG Export svn.svg Page-1 -->
<svg xmlns="http://www.w3.org/2000/svg" xmlns:xlink="http://www.w3.org/1999/xlink" xmlns:ev="http://www.w3.org/2001/xml-events"
		xmlns:v="http://schemas.microsoft.com/visio/2003/SVGExtensions/" width="4.95276in" height="2.97545in"
		viewBox="0 0 356.598 214.232" xml:space="preserve" color-interpolation-filters="sRGB" class="st5">
	<v:documentProperties v:langID="1033" v:metric="true" v:viewMarkup="false"/>

	<style type="text/css">
	<![CDATA[
		.st1 {fill:#774b04}
		.st2 {stroke:#ffffff;stroke-linecap:round;stroke-linejoin:round;stroke-width:0.5}
		.st3 {fill:#ffffff}
		.st4 {fill:#774b04;stroke:#ffffff;stroke-linecap:round;stroke-linejoin:round;stroke-width:0.5}
		.st5 {fill:none;fill-rule:evenodd;font-size:12px;overflow:visible;stroke-linecap:square;stroke-miterlimit:3}
	]]>
	</style>

	<g v:mID="0" v:index="1" v:groupContext="foregroundPage">
		<title>Page-1</title>
		<v:pageProperties v:drawingScale="0.0393701" v:pageScale="0.0393701" v:drawingUnits="24" v:shadowOffsetX="8.50394"
				v:shadowOffsetY="-8.50394"/>
		<g id="group31-1" transform="translate(0,-0.25)" v:mID="31" v:groupContext="group">
			<title>Sheet.31</title>
			<g id="group1-2" transform="translate(142.866,-72)" v:mID="1" v:groupContext="group">
				<v:userDefs>
					<v:ud v:nameU="visVersion" v:prompt="" v:val="VT0(15):26"/>
					<v:ud v:nameU="ShapeClass" v:prompt="" v:val="VT0(5):26"/>
					<v:ud v:nameU="SolSH" v:prompt="" v:val="VT15({BF0433D9-CD73-4EB5-8390-8653BE590246}):41"/>
					<v:ud v:nameU="visLegendShape" v:prompt="" v:val="VT0(2):26"/>
				</v:userDefs>
				<title>Mainframe</title>
				<g id="shape2-3" v:mID="2" v:groupContext="shape" transform="translate(5.68158,2.84217E-014)">
					<title>Sheet.2</title>
					<path d="M0 214.23 L59.5 214.23 L59.5 143.37 L0 143.37 L0 214.23 Z" class="st1"/>
					<path d="M0 214.23 L59.5 214.23 L59.5 143.37 L0 143.37 L0 214.23" class="st2"/>
					<path d="M29.75 214.23 L29.75 143.37" class="st2"/>
				</g>
				<g id="shape3-7" v:mID="3" v:groupContext="shape" transform="translate(11.5726,-5.14536)">
					<title>Sheet.3</title>
					<v:userDefs>
						<v:ud v:nameU="SurroundingRegionColor" v:prompt="" v:val="VT5(1)"/>
						<v:ud v:nameU="SurroundingRegionColor" v:prompt="" v:val="VT5(#774b04)"/>
					</v:userDefs>
					<path d="M36.09 170.38 L49.23 170.38 L49.23 155.34 L36.09 155.34 L36.09 170.38 ZM14.89 161.43 L16.68 161.43 L16.68
								 155.02 L14.89 155.02 L14.89 161.43 ZM14.89 170.67 L16.68 170.67 L16.68 164.26 L14.89 164.26 L14.89
								 170.67 ZM10.63 161.43 L12.43 161.43 L12.43 155.02 L10.63 155.02 L10.63 161.43 ZM10.63 170.67 L12.43
								 170.67 L12.43 164.26 L10.63 164.26 L10.63 170.67 ZM4.25 161.43 L6.05 161.43 L6.05 155.02 L4.25 155.02
								 L4.25 161.43 ZM4.25 170.67 L6.05 170.67 L6.05 164.26 L4.25 164.26 L4.25 170.67 ZM0 161.43 L1.79
								 161.43 L1.79 155.02 L0 155.02 L0 161.43 ZM0 170.67 L1.79 170.67 L1.79 164.26 L0 164.26 L0 170.67
								 ZM33.82 205.4 L33.82 206.65 L49.39 206.65 L49.39 205.4 L33.82 205.4 ZM33.82 209.19 L33.82 210.44
								 L49.39 210.44 L49.39 209.19 L33.82 209.19 ZM33.82 212.98 L33.82 214.23 L49.39 214.23 L49.39 212.98
								 L33.82 212.98 ZM2.96 206.65 L18.52 206.65 L18.52 205.4 L2.95 205.4 L2.96 206.65 ZM2.96 210.44 L18.52
								 210.44 L18.52 209.19 L2.95 209.19 L2.96 210.44 ZM2.96 214.23 L18.52 214.23 L18.52 212.98 L2.95 212.98
								 L2.96 214.23 Z" class="st3"/>
				</g>
				<g id="shape4-10" v:mID="4" v:groupContext="shape" transform="translate(49.0815,-50.4059)">
					<title>Sheet.4</title>
					<path d="M8.15 202.75 A1.11073 1.11073 -180 1 0 10.24 203.52 A1.11073 1.11073 -180 1 0 8.15 202.75 ZM8.17 206.04
								 A1.11073 1.11073 -180 1 0 10.22 206.88 A1.11073 1.11073 -180 1 0 8.17 206.04 ZM8.18 209.34 A1.11073
								 1.11073 -180 1 0 10.21 210.23 A1.11073 1.11073 -180 1 0 8.18 209.34 ZM8.18 212.67 A1.11073 1.11073
								 -180 1 0 10.21 213.56 A1.11073 1.11073 -180 1 0 8.18 212.67 ZM4.1 202.8 A1.11073 1.11073 -180 1
								 0 6.21 203.47 A1.11073 1.11073 -180 1 0 4.1 202.8 ZM4.11 206.09 A1.11073 1.11073 -180 1 0 6.2 206.83
								 A1.11073 1.11073 -180 1 0 4.11 206.09 ZM4.11 209.4 A1.11073 1.11073 -180 1 0 6.19 210.18 A1.11073
								 1.11073 -180 1 0 4.11 209.4 ZM4.11 212.73 A1.11073 1.11073 -180 1 0 6.19 213.51 A1.11073 1.11073
								 -180 1 0 4.11 212.73 ZM0.04 202.85 A1.11144 1.11144 -180 1 0 2.19 203.42 A1.11144 1.11144 -180 1
								 0 0.04 202.85 ZM0.05 206.15 A1.11144 1.11144 -180 1 0 2.18 206.78 A1.11144 1.11144 -180 1 0 0.05
								 206.15 ZM0.05 209.46 A1.11144 1.11144 -180 1 0 2.17 210.12 A1.11144 1.11144 -180 1 0 0.05 209.46
								 ZM0.05 212.78 A1.11144 1.11144 -180 1 0 2.17 213.45 A1.11144 1.11144 -180 1 0 0.05 212.78 Z"
							class="st1"/>
				</g>
			</g>
			<g id="group5-13" transform="translate(-3.19744E-014,-142.866)" v:mID="5" v:groupContext="group">
				<v:userDefs>
					<v:ud v:nameU="visVersion" v:prompt="" v:val="VT0(15):26"/>
					<v:ud v:nameU="ShapeClass" v:prompt="" v:val="VT0(5):26"/>
					<v:ud v:nameU="SolSH" v:prompt="" v:val="VT15({BF0433D9-CD73-4EB5-8390-8653BE590246}):41"/>
					<v:ud v:nameU="visLegendShape" v:prompt="" v:val="VT0(2):26"/>
				</v:userDefs>
				<title>User</title>
				<g id="shape6-14" v:mID="6" v:groupContext="shape" transform="translate(18.0575,2.84217E-014)">
					<title>Sheet.6</title>
					<path d="M26.29 152.18 A8.81 8.81 -180 1 0 8.67 152.18 A8.81 8.81 -180 1 0 26.29 152.18 ZM27.58 163.37 L7.17
								 163.37 C3.22 163.37 0 166.58 0 170.53 L0 195.54 L5.59 195.54 L5.59 180.99 L7.45 180.99 L7.45 214.23
								 L16.55 214.23 L16.55 199.37 C16.55 198.86 16.97 198.44 17.48 198.44 C18 198.44 18.42 198.86 18.42
								 199.37 L18.42 214.23 L28.04 214.23 L28.04 180.93 L29.91 180.93 L29.91 195.54 L34.75 195.54 L34.75
								 170.53 C34.75 166.58 31.54 163.37 27.58 163.37 Z" class="st4"/>
				</g>
			</g>
			<g id="group17-16" transform="translate(285.732,-142.866)" v:mID="17" v:groupContext="group">
				<v:userDefs>
					<v:ud v:nameU="visVersion" v:prompt="" v:val="VT0(15):26"/>
					<v:ud v:nameU="ShapeClass" v:prompt="" v:val="VT0(5):26"/>
					<v:ud v:nameU="SolSH" v:prompt="" v:val="VT15({BF0433D9-CD73-4EB5-8390-8653BE590246}):41"/>
					<v:ud v:nameU="visLegendShape" v:prompt="" v:val="VT0(2):26"/>
				</v:userDefs>
				<title>User.17</title>
				<g id="shape18-17" v:mID="18" v:groupContext="shape" transform="translate(18.0575,2.84217E-014)">
					<title>Sheet.18</title>
					<path d="M26.29 152.18 A8.81 8.81 -180 1 0 8.67 152.18 A8.81 8.81 -180 1 0 26.29 152.18 ZM27.58 163.37 L7.17
								 163.37 C3.22 163.37 0 166.58 0 170.53 L0 195.54 L5.59 195.54 L5.59 180.99 L7.45 180.99 L7.45 214.23
								 L16.55 214.23 L16.55 199.37 C16.55 198.86 16.97 198.44 17.48 198.44 C18 198.44 18.42 198.86 18.42
								 199.37 L18.42 214.23 L28.04 214.23 L28.04 180.93 L29.91 180.93 L29.91 195.54 L34.75 195.54 L34.75
								 170.53 C34.75 166.58 31.54 163.37 27.58 163.37 Z" class="st4"/>
				</g>
			</g>
			<g id="group19-19" v:mID="19" v:groupContext="group">
				<v:userDefs>
					<v:ud v:nameU="visVersion" v:prompt="" v:val="VT0(15):26"/>
					<v:ud v:nameU="ShapeClass" v:prompt="" v:val="VT0(5):26"/>
					<v:ud v:nameU="SolSH" v:prompt="" v:val="VT15({BF0433D9-CD73-4EB5-8390-8653BE590246}):41"/>
					<v:ud v:nameU="visLegendShape" v:prompt="" v:val="VT0(2):26"/>
				</v:userDefs>
				<title>User.19</title>
				<g id="shape20-20" v:mID="20" v:groupContext="shape" transform="translate(18.0575,2.84217E-014)">
					<title>Sheet.20</title>
					<path d="M26.29 152.18 A8.81 8.81 -180 1 0 8.67 152.18 A8.81 8.81 -180 1 0 26.29 152.18 ZM27.58 163.37 L7.17
								 163.37 C3.22 163.37 0 166.58 0 170.53 L0 195.54 L5.59 195.54 L5.59 180.99 L7.45 180.99 L7.45 214.23
								 L16.55 214.23 L16.55 199.37 C16.55 198.86 16.97 198.44 17.48 198.44 C18 198.44 18.42 198.86 18.42
								 199.37 L18.42 214.23 L28.04 214.23 L28.04 180.93 L29.91 180.93 L29.91 195.54 L34.75 195.54 L34.75
								 170.53 C34.75 166.58 31.54 163.37 27.58 163.37 Z" class="st4"/>
				</g>
			</g>
			<g id="group21-22" transform="translate(285.732,-1.13386)" v:mID="21" v:groupContext="group">
				<v:userDefs>
					<v:ud v:nameU="visVersion" v:prompt="" v:val="VT0(15):26"/>
					<v:ud v:nameU="ShapeClass" v:prompt="" v:val="VT0(5):26"/>
					<v:ud v:nameU="SolSH" v:prompt="" v:val="VT15({BF0433D9-CD73-4EB5-8390-8653BE590246}):41"/>
					<v:ud v:nameU="visLegendShape" v:prompt="" v:val="VT0(2):26"/>
				</v:userDefs>
				<title>User.21</title>
				<g id="shape22-23" v:mID="22" v:groupContext="shape" transform="translate(18.0575,2.84217E-014)">
					<title>Sheet.22</title>
					<path d="M26.29 152.18 A8.81 8.81 -180 1 0 8.67 152.18 A8.81 8.81 -180 1 0 26.29 152.18 ZM27.58 163.37 L7.17
								 163.37 C3.22 163.37 0 166.58 0 170.53 L0 195.54 L5.59 195.54 L5.59 180.99 L7.45 180.99 L7.45 214.23
								 L16.55 214.23 L16.55 199.37 C16.55 198.86 16.97 198.44 17.48 198.44 C18 198.44 18.42 198.86 18.42
								 199.37 L18.42 214.23 L28.04 214.23 L28.04 180.93 L29.91 180.93 L29.91 195.54 L34.75 195.54 L34.75
								 170.53 C34.75 166.58 31.54 163.37 27.58 163.37 Z" class="st4"/>
				</g>
			</g>
			<g id="shape24-25" v:mID="24" v:groupContext="shape" transform="translate(-17.7196,-16.2598) rotate(-24.4251)">
				<title>Simple Double Arrow</title>
				<v:userDefs>
					<v:ud v:nameU="visVersion" v:val="VT0(15):26"/>
					<v:ud v:nameU="ArrowType" v:prompt="" v:val="VT0(3):26"/>
				</v:userDefs>
				<path d="M0 214.23 L9.92 208.56 L9.92 211.4 L61.37 211.4 L61.37 211.4 L61.37 208.56 L71.29 214.23 L61.37 219.9 L61.37
							 217.07 L61.37 217.07 L9.92 217.07 L9.92 219.9 L0 214.23 Z" class="st4"/>
			</g>
			<g id="shape26-27" v:mID="26" v:groupContext="shape" transform="translate(322.201,-43.0447) rotate(26.1139)">
				<title>Simple Double Arrow.26</title>
				<v:userDefs>
					<v:ud v:nameU="visVersion" v:val="VT0(15):26"/>
					<v:ud v:nameU="ArrowType" v:prompt="" v:val="VT0(3):26"/>
				</v:userDefs>
				<path d="M0 214.23 L9.92 208.56 L9.92 211.4 L54.48 211.4 L54.48 211.4 L54.48 208.56 L64.4 214.23 L54.48 219.9 L54.48
							 217.07 L54.48 217.07 L9.92 217.07 L9.92 219.9 L0 214.23 Z" class="st4"/>
			</g>
			<g id="shape28-29" v:mID="28" v:groupContext="shape" transform="translate(135.086,-132.05) rotate(-23.59)">
				<title>Simple Double Arrow.28</title>
				<v:userDefs>
					<v:ud v:nameU="visVersion" v:val="VT0(15):26"/>
					<v:ud v:nameU="ArrowType" v:prompt="" v:val="VT0(3):26"/>
				</v:userDefs>
				<path d="M0 214.23 L9.92 208.56 L9.92 211.4 L60.91 211.4 L60.91 211.4 L60.91 208.56 L70.83 214.23 L60.91 219.9 L60.91
							 217.07 L60.91 217.07 L9.92 217.07 L9.92 219.9 L0 214.23 Z" class="st4"/>
			</g>
			<g id="shape30-31" v:mID="30" v:groupContext="shape" transform="translate(167.008,-155.515) rotate(26.665)">
				<title>Simple Double Arrow.30</title>
				<v:userDefs>
					<v:ud v:nameU="visVersion" v:val="VT0(15):26"/>
					<v:ud v:nameU="ArrowType" v:prompt="" v:val="VT0(3):26"/>
				</v:userDefs>
				<path d="M0 214.23 L9.92 208.56 L9.92 211.4 L62.72 211.4 L62.72 211.4 L62.72 208.56 L72.64 214.23 L62.72 219.9 L62.72
							 217.07 L62.72 217.07 L9.92 217.07 L9.92 219.9 L0 214.23 Z" class="st4"/>
			</g>
		</g>
	</g>
</svg>
